<?xml version="1.0" encoding="UTF-8"?>
<svg width="43px" height="36px" viewBox="0 0 43 36" version="1.1" xmlns="http://www.w3.org/2000/svg" xmlns:xlink="http://www.w3.org/1999/xlink">
    <!-- Generator: Sketch 50.2 (55047) - http://www.bohemiancoding.com/sketch -->
    <title>bank-ckeck</title>
    <desc>Created with Sketch.</desc>
    <defs></defs>
    <g id="Page-1" stroke="none" stroke-width="1" fill="none" fill-rule="evenodd">
        <g id="bank-ckeck" fill="#0E3A63" fill-rule="nonzero">
            <path d="M26.73,9.56 C26.6951092,9.24356801 26.8442824,8.93506009 27.1139711,8.76590174 C27.3836599,8.59674338 27.7263401,8.59674338 27.9960289,8.76590174 C28.2657176,8.93506009 28.4148908,9.24356801 28.38,9.56 C28.3336187,9.98064216 27.9781915,10.299033 27.555,10.299033 C27.1318085,10.299033 26.7763813,9.98064216 26.73,9.56 Z M42.08,4.61 C42.0744866,6.8870298 40.2270365,8.73000667 37.95,8.73 L33.33,8.73 L33.33,31.17 C33.3300067,33.4470365 31.4870298,35.2944866 29.21,35.3 L7.76,35.3 C5.47906398,35.3 3.63,33.450936 3.63,31.17 L3.63,29.52 C3.63,29.07 4,28.7 4.46,28.7 L8.58,28.7 L8.58,8.73 L3.96,8.73 C1.76070325,8.6216813 0.0331624965,6.80696256 0.0331624965,4.605 C0.0331624965,2.40303744 1.76070325,0.588318695 3.96,0.48 L37.96,0.48 C40.2370298,0.485513405 42.0800067,2.33296353 42.08,4.61 Z M25.91,33.65 C25.3700357,32.9360989 25.0785339,32.0651056 25.08,31.17 L25.08,30.35 L5.28,30.35 L5.28,31.17 C5.28,32.5396662 6.39033382,33.65 7.76,33.65 L25.91,33.65 Z M31.68,5.43 L10.23,5.43 L10.23,28.7 L25.91,28.7 C26.36,28.7 26.73,29.07 26.73,29.52 L26.73,31.17 C26.8130513,32.4759146 27.8964472,33.4925992 29.205,33.4925992 C30.5135528,33.4925992 31.5969487,32.4759146 31.68,31.17 L31.68,5.43 Z M40.43,4.61 C40.43,3.24033382 39.3196662,2.13 37.95,2.13 L3.96,2.13 C2.6540854,2.21305129 1.63740076,3.29644719 1.63740076,4.605 C1.63740076,5.91355281 2.6540854,6.99694871 3.96,7.08 L8.58,7.08 L8.58,5.43 L5.61,5.43 C5.29356801,5.46489076 4.98506009,5.31571762 4.81590174,5.04602887 C4.64674338,4.77634013 4.64674338,4.43365987 4.81590174,4.16397113 C4.98506009,3.89428238 5.29356801,3.74510924 5.61,3.78 L36.31,3.78 C36.7306422,3.82638129 37.049033,4.18180849 37.049033,4.605 C37.049033,5.02819151 36.7306422,5.38361871 36.31,5.43 L33.33,5.43 L33.33,7.08 L37.95,7.08 C39.3157704,7.0800111 40.4244929,5.97575932 40.43,4.61 Z M13.53,9.56 C13.53,9.1 13.9,8.73 14.36,8.73 L24.26,8.73 C24.576432,8.69510924 24.8849399,8.84428238 25.0540983,9.11397113 C25.2232566,9.38365987 25.2232566,9.72634013 25.0540983,9.99602887 C24.8849399,10.2657176 24.576432,10.4148908 24.26,10.38 L14.36,10.38 C13.9054807,10.380033 13.5354761,10.0144863 13.53,9.56 Z M13.53,14.51 C13.53,14.05 13.9,13.68 14.36,13.68 L27.56,13.68 C28.0156349,13.68 28.385,14.0493651 28.385,14.505 C28.385,14.9606349 28.0156349,15.33 27.56,15.33 L14.36,15.33 C13.9054807,15.330033 13.5354761,14.9644863 13.53,14.51 Z" id="356ta"></path>
        </g>
    </g>
</svg>