<svg id="Capa_1" data-name="Capa 1" xmlns="http://www.w3.org/2000/svg" viewBox="0 0 78 77"><defs><style>.cls-1{fill:#022258;}</style></defs><title>בנקאיות</title><path class="cls-1" d="M77,23.9,51.26,7.42a1.11,1.11,0,0,0-1.53.33,1.09,1.09,0,0,0,.33,1.52L75.47,25.51H69.54L40.62,7h0a3,3,0,0,0-3.24,0L8.46,25.51H2.53L39,2.2l5.16,3.3a1.11,1.11,0,0,0,1.53-.33,1.08,1.08,0,0,0-.33-1.52L40.2.35a2.22,2.22,0,0,0-2.4,0L1,23.9a2,2,0,0,0-.87,2.33,2.06,2.06,0,0,0,2,1.49H7.67v7.12a1.83,1.83,0,0,0,1.46,1.78v1.94A1.83,1.83,0,0,0,11,40.38h.15V53.87a1.11,1.11,0,0,0,2.21,0V39.28a1.1,1.1,0,0,0-1.1-1.1h-.88V36.66h7.84v1.52h-.87a1.1,1.1,0,0,0-1.11,1.1V63.6a1.1,1.1,0,0,0,1.11,1.1h.87v1.66H11.35V64.7h.88a1.1,1.1,0,0,0,1.1-1.1V60.79a1.11,1.11,0,0,0-2.21,0V62.5H11a1.83,1.83,0,0,0-1.84,1.83v1.93a1.84,1.84,0,0,0-1.46,1.79v2.22H3.75a2.21,2.21,0,0,0-2.22,2.21v2.31A2.21,2.21,0,0,0,3.75,77h70.5a2.21,2.21,0,0,0,2.22-2.21V72.48a2.21,2.21,0,0,0-2.22-2.21H70.33V68.05a1.84,1.84,0,0,0-1.46-1.79V64.33A1.83,1.83,0,0,0,67,62.5h-.15V40.38H67a1.83,1.83,0,0,0,1.84-1.82V36.62a1.84,1.84,0,0,0,1.46-1.79V27.72h5.58A2.07,2.07,0,0,0,77,23.9Zm-38.46-15a.76.76,0,0,1,.84,0h0l26,16.63H12.55ZM31.4,32.61v2.23a1.83,1.83,0,0,0,1.46,1.78v1.94a1.83,1.83,0,0,0,1.83,1.82h.16V62.5h-.16a1.83,1.83,0,0,0-1.83,1.83v1.93a1.84,1.84,0,0,0-1.46,1.79v2.22H22.87V68.05a1.84,1.84,0,0,0-1.46-1.79V64.33a1.83,1.83,0,0,0-1.83-1.83h-.16V40.38h.16a1.83,1.83,0,0,0,1.83-1.82V36.62a1.83,1.83,0,0,0,1.46-1.78V32.61Zm23.73,0v2.23a1.83,1.83,0,0,0,1.46,1.78v1.94a1.83,1.83,0,0,0,1.83,1.82h.16V62.5h-.16a1.83,1.83,0,0,0-1.83,1.83v1.93a1.84,1.84,0,0,0-1.46,1.79v2.22H46.6V68.05a1.84,1.84,0,0,0-1.46-1.79V64.33a1.83,1.83,0,0,0-1.83-1.83h-.16V40.38h.16a1.83,1.83,0,0,0,1.83-1.82V36.62a1.83,1.83,0,0,0,1.46-1.78V32.61Zm13,1.85H57.35V32.61H68.11v1.85ZM65.77,64.7h.88v1.66H58.81V64.7h.87a1.1,1.1,0,0,0,1.11-1.1V39.28a1.1,1.1,0,0,0-1.11-1.1h-.87V36.66h7.84v1.52h-.88a1.1,1.1,0,0,0-1.1,1.1V63.6A1.1,1.1,0,0,0,65.77,64.7ZM36,38.18h-.87V36.66h7.84v1.52h-.87a1.1,1.1,0,0,0-1.11,1.1V63.6a1.1,1.1,0,0,0,1.11,1.1h.87v1.66H35.08V64.7H36a1.1,1.1,0,0,0,1.11-1.1V39.28A1.1,1.1,0,0,0,36,38.18ZM33.62,68.5a1,1,0,0,0,.34.06H44a1,1,0,0,0,.35-.06v1.77H33.62Zm10.76-34H33.62V32.61H44.38Zm-23.73,0H9.89V32.61H20.65v1.85ZM9.89,68.5a1,1,0,0,0,.35.06H20.3a1,1,0,0,0,.35-.06v1.77H9.89V68.5Zm64.37,4V74.8H3.74V72.47ZM57.35,70.27V68.5a1,1,0,0,0,.34.06H67.76a1,1,0,0,0,.35-.06v1.77ZM68.11,30.41H9.89V27.72H68.11v2.69Z"/></svg>