<?xml version="1.0" encoding="UTF-8"?>
<svg width="78px" height="78px" viewBox="0 0 78 78" version="1.1" xmlns="http://www.w3.org/2000/svg" xmlns:xlink="http://www.w3.org/1999/xlink">
    <!-- Generator: Sketch 51 (57462) - http://www.bohemiancoding.com/sketch -->
    <title>bank-alt</title>
    <desc>Created with Sketch.</desc>
    <defs></defs>
    <g id="Page-1" stroke="none" stroke-width="1" fill="none" fill-rule="evenodd">
        <g id="bank-alt" fill="#0F3860" fill-rule="nonzero">
            <path d="M46.04,18.08 C46.0372386,21.9791303 42.8741303,25.1377614 38.975,25.135 C35.0758697,25.1322386 31.9172386,21.9691303 31.92,18.07 C31.9217863,15.5477049 33.2690654,13.2179612 35.4543301,11.9583606 C37.6395949,10.6987601 40.3308517,10.7006661 42.5143301,11.9633606 C44.6978086,13.2260552 46.0417863,15.5577049 46.04,18.08 Z M42.51,18.08 C42.5082137,16.8188525 41.8337488,15.6544571 40.7406699,15.0254303 C39.6475909,14.3964036 38.3019625,14.3983096 37.2106699,15.0304303 C36.1193772,15.6625511 35.4482137,16.8288525 35.45,18.09 C35.45,20.0395652 37.0304348,21.62 38.98,21.62 C40.9295652,21.62 42.51,20.0395652 42.51,18.09 L42.51,18.08 Z M70.71,32.18 L70.71,63.9 C74.5958009,63.9055079 77.7444921,67.0541991 77.75,70.94 L77.75,76.23 C77.75,77.2 76.96,77.99 75.99,77.99 L1.99,77.99 C1.01,77.99 0.23,77.2 0.23,76.23 L0.23,70.94 C0.235507876,67.0541991 3.38419908,63.9055079 7.27,63.9 L7.27,32.18 L2,32.18 C1.02,32.18 0.24,31.39 0.24,30.42 L0.24,23.37 C0.24,22.75 0.56,22.17 1.1,21.86 L35.56,1.39 C37.6678467,0.160642404 40.2714352,0.149206437 42.39,1.36 L42.43,1.39 L76.9,21.86 C77.43,22.18 77.76,22.76 77.76,23.37 L77.76,30.42 C77.76,31.39 76.97,32.18 76,32.18 L70.71,32.18 Z M70.71,67.42 L7.27,67.42 C5.32823751,67.425493 3.755493,68.9982375 3.75,70.94 L3.75,74.47 L74.23,74.47 L74.23,70.94 C74.2244882,68.9943412 72.6456666,67.4199922 70.7,67.42 L70.71,67.42 Z M17.85,63.9 L17.85,32.18 L10.8,32.18 L10.8,63.9 L17.85,63.9 Z M31.94,63.9 L31.94,32.18 L21.37,32.18 L21.37,63.9 L31.94,63.9 Z M42.51,63.9 L42.51,32.18 L35.46,32.18 L35.46,63.9 L42.51,63.9 Z M56.61,63.9 L56.61,32.18 L46.04,32.18 L46.04,63.9 L56.61,63.9 Z M67.18,63.9 L67.18,32.18 L60.13,32.18 L60.13,63.9 L67.18,63.9 Z M74.23,28.65 L74.23,24.37 L40.65,4.43 C39.6135064,3.83158014 38.3364936,3.83158014 37.3,4.43 L3.75,24.37 L3.75,28.65 L74.23,28.65 Z" id="tce8a"></path>
        </g>
    </g>
</svg>