<?xml version="1.0" encoding="UTF-8"?>
<svg width="40px" height="40px" viewBox="0 0 40 40" version="1.1" xmlns="http://www.w3.org/2000/svg" xmlns:xlink="http://www.w3.org/1999/xlink">
    <!-- Generator: Sketch 50.2 (55047) - http://www.bohemiancoding.com/sketch -->
    <title>bank</title>
    <desc>Created with Sketch.</desc>
    <defs></defs>
    <g id="Page-1" stroke="none" stroke-width="1" fill="none" fill-rule="evenodd">
        <g id="bank" fill="#0E3A63" fill-rule="nonzero">
            <path d="M1.68,15.2 C1.45800467,14.5398908 1.68850245,13.8120031 2.25,13.4 L19.49,0.63 C19.77,0.43 20.14,0.43 20.42,0.63 L37.66,13.39 C38.22,13.81 38.46,14.53 38.24,15.19 C38.019742,15.8422111 37.3980161,16.2729493 36.71,16.25 L35.49,16.25 L35.49,34.56 L36.43,34.56 C36.860782,34.5600001 37.2099997,34.909218 37.2099997,35.34 C37.2099997,35.770782 36.860782,36.1199999 36.43,36.12 L3.48,36.12 C3.049218,36.1199999 2.70000026,35.770782 2.70000026,35.34 C2.70000026,34.909218 3.049218,34.5600001 3.48,34.56 L25.5,34.56 L25.5,16.25 L22.85,16.25 L22.85,27.49 L21.28,26.35 L21.29,16.58 L21.29,16.25 L18.62,16.25 L18.62,16.58 L18.63,28.43 L17.07,28.43 L17.07,16.25 L14.42,16.25 L14.42,28.43 L12.85,28.43 L12.86,16.58 L12.86,16.25 L10.19,16.25 L10.19,16.58 L10.2,28.43 L8.63,28.43 L8.63,16.25 L5.98,16.25 L5.98,28.43 L4.42,28.43 L4.42,16.25 L3.2,16.25 C2.49,16.25 1.89,15.83 1.68,15.19 L1.68,15.2 Z M29.72,16.25 L27.05,16.25 L27.05,16.58 L27.06,34.23 L27.06,34.56 L29.71,34.56 L29.71,34.23 L29.72,16.58 L29.72,16.25 Z M33.93,16.25 L31.28,16.25 L31.28,34.55 L33.93,34.55 L33.93,16.25 Z M3.08,14.73 L36.83,14.73 L19.96,2.23 L3.08,14.73 Z M39.3,38.9 C39.3,39.33 38.95,39.68 38.52,39.68 L1.39,39.68 C0.956456471,39.68 0.605,39.3285435 0.605,38.895 C0.605,38.4614565 0.956456471,38.11 1.39,38.11 L38.52,38.11 C38.95,38.11 39.3,38.47 39.3,38.9 Z M21.3,33.42 L21.3,31.86 L3.98,31.86 C3.5492179,31.86 3.2,31.5107821 3.2,31.08 C3.2,30.67 3.52,30.32 3.88,30.3 L21.31,30.3 L21.31,28.43 L24.21,30.95 L21.3,33.42 Z" id="p64xa"></path>
        </g>
    </g>
</svg>