<?xml version="1.0" encoding="UTF-8"?>
<svg width="43px" height="47px" viewBox="0 0 43 47" version="1.1" xmlns="http://www.w3.org/2000/svg" xmlns:xlink="http://www.w3.org/1999/xlink">
    <!-- Generator: Sketch 50.2 (55047) - http://www.bohemiancoding.com/sketch -->
    <title>Untitled</title>
    <desc>Created with Sketch.</desc>
    <defs></defs>
    <g id="Page-1" stroke="none" stroke-width="1" fill="none" fill-rule="evenodd">
        <g id="bell" fill="#0F3861" fill-rule="nonzero">
            <path d="M42.51,38.86 C42.7417172,39.2274447 42.7567571,39.6914304 42.5493225,40.0731101 C42.3418879,40.4547897 41.9443718,40.6945602 41.51,40.7 L28.87,40.7 L28.79,41.03 C27.9723446,44.2344973 25.0871676,46.4776092 21.78,46.48 L21.67,46.48 C18.3665589,46.4730475 15.4867292,44.2308944 14.67,41.03 L14.57,40.7 L1.95,40.7 C1.51562817,40.6945602 1.11811206,40.4547897 0.910677463,40.0731101 C0.703242861,39.6914304 0.718282795,39.2274447 0.95,38.86 L5.66,31.52 L5.66,22.11 C5.66,15.53 9.56,9.64 15.58,7.11 L15.85,6.99 L15.85,5.69 C15.9801191,2.53410901 18.5764277,0.0426417112 21.735,0.0426417112 C24.8935723,0.0426417112 27.4898809,2.53410901 27.62,5.69 L27.62,6.99 L27.89,7.1 C33.9195166,9.64141661 37.8315599,15.5568048 37.81,22.1 L37.81,31.52 L42.51,38.86 Z M18.23,6.25 L18.75,6.15 C20.78,5.77 22.67,5.77 24.69,6.15 L25.22,6.23 L25.22,5.69 C25.1205969,3.83233212 23.5853255,2.37701604 21.725,2.37701604 C19.8646745,2.37701604 18.3294031,3.83233212 18.23,5.69 L18.23,6.25 Z M26.44,40.7 L17,40.7 L17.31,41.33 C18.1070263,43.0159874 19.805113,44.090923 21.67,44.09 L21.77,44.09 C23.6384991,44.0947986 25.3414334,43.0192612 26.14,41.33 L26.44,40.7 Z M39.32,38.31 L35.6,32.51 C35.47,32.32 35.4,32.11 35.4,31.87 L35.4,22.11 C35.4,14.47 29.27,8.25 21.72,8.25 C14.1196101,8.31052952 8.00117709,14.5094682 8.04,22.11 L8.04,31.87 C8.04,32.1 7.98,32.32 7.85,32.52 L4.13,38.32 L39.32,38.31 Z" id="slnda"></path>
        </g>
    </g>
</svg>