<svg height="512pt" viewBox="0 -1 512.00359 512" width="512pt" xmlns="http://www.w3.org/2000/svg"><path d="m498.558594 313.917969h-101.921875c-7.414063 0-13.445313 6.03125-13.445313 13.441406v.304687h-27.089844c-5.058593 0-9.457031 2.867188-11.667968 7.058594h-1.28125c4.832031-11.042968 8.292968-22.84375 10.257812-35.242187 4.574219-28.847657 1.683594-56.699219-8.355468-80.542969-19.046876-45.238281-48.824219-69.164062-66.832032-80.191406 5.992188-5.097656 9.804688-12.6875 9.804688-21.152344v-12.902344c0-9.695312-4.996094-18.242187-12.546875-23.210937 5.449219-7.898438 13.296875-21.273438 18.023437-38.324219 2.460938-8.886719-.109375-18.382812-6.714844-24.785156-6.664062-6.457032-15.941406-8.664063-24.808593-5.902344l-13.117188 4.078125c-5.390625 1.675781-11.300781 1.042969-16.214843-1.738281l-20.433594-11.574219c-7.605469-4.308594-17.058594-4.308594-24.664063 0l-20.433593 11.574219c-4.914063 2.78125-10.824219 3.414062-16.214844 1.738281l-13.117188-4.082031c-8.875-2.761719-18.148437-.550782-24.808594 5.90625-6.605468 6.402344-9.175781 15.898437-6.714843 24.78125 4.726562 17.050781 12.574219 30.429687 18.023437 38.324218-7.550781 4.96875-12.550781 13.515626-12.550781 23.210938v12.90625c0 8.464844 3.8125 16.050781 9.804687 21.152344-18.003906 11.027344-47.78125 34.953125-66.832031 80.191406-7.507812 17.832031-11.082031 38.585938-10.339843 60.015625.144531 4.140625 3.640624 7.410156 7.757812 7.234375 4.140625-.144531 7.382812-3.613281 7.238281-7.757812-.667969-19.269532 2.503907-37.828126 9.175781-53.671876 13.363282-31.742187 32.632813-51.746093 46.449219-62.941406 12.34375-10.003906 22.667969-14.96875 26.027344-16.449218h117.738281c7.460938 3.273437 48.988282 23.621093 72.472656 79.390624 8.953126 21.265626 11.5 46.289063 7.363282 72.371094-2.125 13.398438-6.207032 26.007813-12.046875 37.589844h-21.328125c-7.558594 0-15.042969 1.148438-22.25 3.40625l-120.570313 37.808594c-10.183593 3.191406-21.253906 2.777344-31.171875-1.167969l-43.113281-17.152344c-11.132813-13.46875-19.261719-29.171875-23.992187-46.683593-1.082032-4-5.199219-6.367188-9.199219-5.285157-4 1.078125-6.367188 5.199219-5.285157 9.199219 3.136719 11.613281 7.726563 22.628906 13.597657 32.871094l-10.535157-4.191406c-15.453124-6.148438-33.007812-1.714844-43.6875 11.03125-12.671874 15.125-11.890624 37.230468 1.820313 51.421874 25.296875 26.1875 76.773437 73.542969 137.316406 96.488282 14.347657 5.441406 29.851563 8.238281 45.398438 8.238281 3.628906 0 7.261719-.152344 10.878906-.460937 21.152344-1.792969 52.675781-5.410157 82.734375-12.445313 4.035156-.945313 6.542969-4.980469 5.597656-9.015625-.945312-4.035156-4.992187-6.539062-9.015625-5.59375-29.179687 6.828125-59.929687 10.351562-80.585937 12.105469-16.890625 1.433593-34.078125-.9375-49.691406-6.855469-57.808594-21.914062-107.414063-67.601562-131.839844-92.886719-8.363282-8.65625-8.84375-22.136719-1.113282-31.359375 6.511719-7.773437 17.21875-10.476562 26.640626-6.726562l78.527343 31.238281c5.4375 2.164063 11.140625 3.511719 16.914063 4.0625-2.886719 5.898437-3.980469 12.683594-2.765625 19.523437l.175781.988282c2.722656 15.300781 16.28125 26.414062 31.570312 26.414062.980469 0 1.96875-.046875 2.957032-.140625l99.734375-9.371093c4.125-.386719 7.152343-4.042969 6.765625-8.167969-.386719-4.125-4.046875-7.152344-8.167969-6.769531l-99.734375 9.371093c-8.777344.8125-16.8125-5.316406-18.351562-13.96875l-.175782-.984375c-1.5-8.441406 3.675782-16.753906 12.042969-19.335937.015625-.003907.121094-.039063.132813-.042969l120.683593-37.839844c5.753907-1.804687 11.726563-2.722656 17.757813-2.722656h37.699218v110.859375c-6.976562 4.726563-15.976562 9.136719-26.820312 13.128906-3.886719 1.433594-5.878906 5.746094-4.445312 9.636719 1.433593 3.886719 5.742187 5.875 9.632812 4.445312 8.78125-3.238281 16.546875-6.773437 23.222656-10.566406 2.234375 4.117188 6.597656 6.917969 11.597656 6.917969h27.09375v.308594c0 7.410156 6.03125 13.441406 13.441407 13.441406h101.925781c7.410156 0 13.441406-6.03125 13.441406-13.441406v-157.089844c-.003906-7.410156-6.035156-13.441406-13.445312-13.441406zm-377.835938-274.773438c-1.011718-3.644531-.003906-7.382812 2.695313-10 1.277343-1.234375 4.792969-3.941406 9.910156-2.351562l13.113281 4.078125c9.335938 2.90625 19.566406 1.808594 28.070313-3.007813l20.433593-11.574219c3.046876-1.722656 6.828126-1.722656 9.875 0l20.433594 11.574219c8.503906 4.816407 18.734375 5.914063 28.066406 3.007813l13.117188-4.078125h.003906c5.105469-1.589844 8.628906 1.113281 9.90625 2.351562 2.699219 2.617188 3.707032 6.359375 2.695313 10-5.132813 18.523438-14.648438 32.34375-18.800781 37.769531h-120.730469c-4.148438-5.402343-13.625-19.128906-18.789063-37.769531zm152.300782 78.449219c0 7.042969-5.726563 12.769531-12.769532 12.769531h-120.742187c-7.042969 0-12.769531-5.726562-12.769531-12.769531v-12.902344c0-7.042968 5.726562-12.769531 12.769531-12.769531h120.742187c7.042969 0 12.769532 5.726563 12.769532 12.769531zm84.894531 351.546875v-126.472656h25.277343v126.472656zm139.078125 13.746094h-98.796875v-153.964844h98.796875zm0 0"/></svg>