<svg xmlns="http://www.w3.org/2000/svg" width="93" height="82" viewBox="0 0 93 82">
  <defs>
    <style>
      .cls-1 {
        fill: #022258;
        fill-rule: evenodd;
      }
    </style>
  </defs>
  <path id="אחזקת_משרד" data-name="אחזקת משרד" class="cls-1" d="M34.661,23.606L26.807,1.263a1.788,1.788,0,0,0-1.688-1.2H10.59A1.787,1.787,0,0,0,8.9,1.263L1.049,23.606a1.788,1.788,0,0,0,1.689,2.38h9.75v52.37H8.773a1.787,1.787,0,1,0,0,3.574h18.16a1.787,1.787,0,1,0,0-3.574h-3.71V25.985h9.75A1.788,1.788,0,0,0,34.661,23.606ZM19.645,78.356H16.066V25.985h3.579v52.37ZM21.433,22.41H5.262l6.6-18.767H23.852l6.6,18.767H21.433Zm63.6,17.753a7.476,7.476,0,0,0-2.968.611A14.943,14.943,0,0,0,67.289,27.951h-13.8A14.944,14.944,0,0,0,38.713,40.775a7.514,7.514,0,0,0-10.482,6.9v0.162a7.239,7.239,0,0,0,3.579,6.239v4.612A16.116,16.116,0,0,0,42.855,73.956l-2.264,5.508a1.789,1.789,0,0,0,1.656,2.466h7.872a1.788,1.788,0,0,0,1.448-.739l4.657-6.422h8.332l4.657,6.422a1.789,1.789,0,0,0,1.448.739h7.872a1.788,1.788,0,0,0,1.656-2.466l-2.264-5.508A16.116,16.116,0,0,0,88.971,58.683V54.071a7.24,7.24,0,0,0,3.578-6.239V47.67A7.518,7.518,0,0,0,85.035,40.164ZM49.206,78.356h-4.29l1.5-3.656c0.492,0.045.991,0.07,1.495,0.07h3.9Zm22.37,0-2.6-3.586h3.9c0.5,0,1-.025,1.495-0.07l1.5,3.656h-4.29Zm17.4-30.524h0A3.67,3.67,0,0,1,85.3,51.5a1.787,1.787,0,1,0,0,3.575l0.089,0v3.614A12.532,12.532,0,0,1,72.87,71.195H47.911A12.532,12.532,0,0,1,35.388,58.683V55.068l0.089,0a1.787,1.787,0,1,0,0-3.575,3.67,3.67,0,0,1-3.668-3.664V47.67a3.936,3.936,0,0,1,7.872,0v10.3A8.952,8.952,0,0,0,48.628,66.9H51.9a1.787,1.787,0,1,0,0-3.575H48.628a5.371,5.371,0,0,1-5.368-5.362V47.67a7.451,7.451,0,0,0-1.117-3.934V42.865A11.357,11.357,0,0,1,53.491,31.526h13.8a11.358,11.358,0,0,1,11.35,11.339v0.871a7.45,7.45,0,0,0-1.118,3.935v10.3a5.371,5.371,0,0,1-5.367,5.362H66.429a1.787,1.787,0,1,0,0,3.575h5.725A8.951,8.951,0,0,0,81.1,57.968V47.67a3.937,3.937,0,0,1,7.873,0v0.162h0Zm-18.821-.8a1.785,1.785,0,1,0,.524,1.264A1.807,1.807,0,0,0,70.15,47.032Zm-16.99,0a1.784,1.784,0,1,0,.525,1.264A1.8,1.8,0,0,0,53.161,47.032Zm7.568,16.823a1.785,1.785,0,1,0,.524,1.264A1.8,1.8,0,0,0,60.728,63.854Z"/>
</svg>
