<?xml version="1.0" encoding="UTF-8"?>
<svg width="65px" height="74px" viewBox="0 0 65 74" version="1.1" xmlns="http://www.w3.org/2000/svg" xmlns:xlink="http://www.w3.org/1999/xlink">
    <!-- Generator: Sketch 51 (57462) - http://www.bohemiancoding.com/sketch -->
    <title>calc</title>
    <desc>Created with Sketch.</desc>
    <defs></defs>
    <g id="Page-1" stroke="none" stroke-width="1" fill="none" fill-rule="evenodd">
        <g id="calc" fill="#0F3860" fill-rule="nonzero">
            <path d="M64.56,4.81 L64.56,69.53 C64.56,71.93 62.62,73.87 60.22,73.87 L4.82,73.87 C2.42146117,73.8700063 0.475513882,71.9285325 0.47,69.53 L0.47,4.81 C0.47,2.41 2.42,0.46 4.82,0.46 L60.22,0.46 C62.62,0.46 64.56,2.41 64.56,4.81 Z M3.95,19.88 L61.09,19.88 L61.09,4.81 C61.09,4.32951227 60.7004877,3.94 60.22,3.94 L4.82,3.94 C4.33951227,3.94 3.95,4.32951227 3.95,4.81 L3.95,19.88 Z M20.68,48.61 L3.95,48.61 L3.95,69.53 C3.95,70.01 4.34,70.4 4.82,70.4 L20.68,70.4 L20.68,48.61 Z M20.68,23.36 L3.95,23.36 L3.95,45.13 L20.68,45.13 L20.68,23.36 Z M40.88,48.61 L24.15,48.61 L24.15,70.4 L40.89,70.4 L40.88,48.61 Z M40.88,23.36 L24.15,23.36 L24.15,45.13 L40.89,45.13 L40.88,23.36 Z M61.09,23.36 L44.36,23.36 L44.36,70.4 L60.22,70.4 C60.7,70.4 61.09,70 61.09,69.53 L61.09,23.36 Z M18.34,34.24 C18.34,35.2 17.57,35.98 16.61,35.98 L14.05,35.98 L14.05,38.54 C14.0994815,39.1912989 13.7800383,39.8154495 13.222806,40.1562294 C12.6655738,40.4970092 11.9644262,40.4970092 11.407194,40.1562294 C10.8499617,39.8154495 10.5305185,39.1912989 10.58,38.54 L10.58,35.98 L8.02,35.98 C7.1127697,35.9110744 6.41181426,35.1548448 6.41181426,34.245 C6.41181426,33.3351552 7.1127697,32.5789256 8.02,32.51 L10.58,32.51 L10.58,29.95 C10.5305185,29.2987011 10.8499617,28.6745505 11.407194,28.3337706 C11.9644262,27.9929908 12.6655738,27.9929908 13.222806,28.3337706 C13.7800383,28.6745505 14.0994815,29.2987011 14.05,29.95 L14.05,32.51 L16.61,32.51 C17.57,32.51 18.34,33.28 18.34,34.24 Z M38.64,34.24 C38.64,35.2 37.86,35.98 36.9,35.98 L28.14,35.98 C27.2327697,35.9110744 26.5318143,35.1548448 26.5318143,34.245 C26.5318143,33.3351552 27.2327697,32.5789256 28.14,32.51 L36.9,32.51 C37.86,32.51 38.64,33.28 38.64,34.24 Z M16.87,61.61 C17.4699305,62.3007815 17.4324076,63.3381748 16.7841386,63.9838086 C16.1358696,64.6294424 15.0983321,64.6627393 14.41,64.06 L12.31,61.96 L10.21,64.06 C9.88542442,64.3854824 9.44466085,64.5684129 8.985,64.5684129 C8.52533915,64.5684129 8.08457558,64.3854824 7.76,64.06 C7.08761107,63.3817334 7.08761107,62.2882666 7.76,61.61 L9.86,59.51 L7.76,57.41 C7.10865737,56.7260902 7.12180945,55.6474589 7.7896342,54.9796342 C8.45745895,54.3118095 9.53609024,54.2986574 10.22,54.95 L12.32,57.05 L14.41,54.95 C14.845696,54.4925192 15.4951274,54.3071383 16.1066688,54.465684 C16.7182103,54.6242297 17.1957703,55.1017897 17.354316,55.7133312 C17.5128617,56.3248726 17.3274808,56.974304 16.87,57.41 L14.77,59.51 L16.87,61.61 Z M37.07,57.41 L30.42,64.06 C30.0954244,64.3854824 29.6546608,64.5684129 29.195,64.5684129 C28.7353392,64.5684129 28.2945756,64.3854824 27.97,64.06 C27.2976111,63.3817334 27.2976111,62.2882666 27.97,61.61 L34.62,54.95 C35.0482142,54.4609767 35.7132973,54.2514079 36.3445064,54.4066053 C36.9757155,54.5618027 37.4677897,55.0558853 37.6204146,55.6877213 C37.7730396,56.3195574 37.5607635,56.9837813 37.07,57.41 Z M29.19,54.7 C30.0073814,54.7 30.67,55.3626186 30.67,56.18 C30.67,56.9973814 30.0073814,57.66 29.19,57.66 C28.3726186,57.66 27.71,56.9973814 27.71,56.18 C27.71,55.3626186 28.3726186,54.7 29.19,54.7 Z M35.84,61.35 C36.6601429,61.35 37.325,62.0148571 37.325,62.835 C37.325,63.6551429 36.6601429,64.32 35.84,64.32 C35.0198571,64.32 34.355,63.6551429 34.355,62.835 C34.355,62.0148571 35.0198571,61.35 35.84,61.35 Z M58.85,43.85 C58.85,44.8 58.07,45.58 57.11,45.58 L48.24,45.58 C47.2790245,45.58 46.5,44.8009755 46.5,43.84 C46.5,42.8790245 47.2790245,42.1 48.24,42.1 L57.11,42.1 C58.07,42.1 58.85,42.88 58.85,43.84 L58.85,43.85 Z M58.85,49.91 C58.85,50.87 58.07,51.65 57.11,51.65 L48.24,51.65 C47.2790245,51.65 46.5,50.8709755 46.5,49.91 C46.5,48.9490245 47.2790245,48.17 48.24,48.17 L57.11,48.17 C58.07,48.17 58.85,48.95 58.85,49.91 Z" id="y9zsa"></path>
        </g>
    </g>
</svg>