<?xml version="1.0" encoding="UTF-8"?>
<svg width="31px" height="27px" viewBox="0 0 31 27" version="1.1" xmlns="http://www.w3.org/2000/svg" xmlns:xlink="http://www.w3.org/1999/xlink">
    <!-- Generator: Sketch 50.2 (55047) - http://www.bohemiancoding.com/sketch -->
    <title>calendar</title>
    <desc>Created with Sketch.</desc>
    <defs></defs>
    <g id="Page-1" stroke="none" stroke-width="1" fill="none" fill-rule="evenodd">
        <g id="calendar" fill="#2C546C" fill-rule="nonzero">
            <path d="M0.98,25.91 L0.98,3.01 C0.98,2.44 1.43,1.99 2.01,1.99 L7.26,1.99 L7.26,1.11 C7.26,0.54 7.71,0.09 8.28,0.09 C8.86,0.09 9.31,0.54 9.31,1.11 L9.31,1.99 L21.86,1.99 L21.86,1.11 C21.86,0.54 22.31,0.09 22.89,0.09 C23.46,0.09 23.91,0.54 23.91,1.11 L23.91,1.99 L28.99,1.99 C29.57,1.99 30.02,2.44 30.02,3.01 L30.02,25.89 C30.02,26.46 29.57,26.91 28.99,26.91 L2.01,26.91 C1.46,26.91 0.98,26.46 0.98,25.91 Z M3.03,6.69 L28,6.69 L28,4.04 L23.92,4.04 L23.92,4.59 C23.92,5.16 23.47,5.61 22.9,5.61 C22.32,5.61 21.87,5.16 21.87,4.59 L21.87,4.04 L9.32,4.04 L9.32,4.59 C9.32,5.16 8.87,5.61 8.29,5.61 C7.72,5.61 7.27,5.16 7.27,4.59 L7.27,4.04 L3.04,4.04 L3.03,6.69 Z M3.03,24.89 L27.97,24.89 L27.97,8.74 L3.03,8.74 L3.03,24.89 Z M23.91,14.46 C23.91,15.04 23.46,15.49 22.89,15.49 L8.13,15.49 C7.56,15.49 7.11,15.04 7.11,14.46 C7.11,13.89 7.56,13.44 8.13,13.44 L22.89,13.44 C23.46,13.44 23.91,13.89 23.91,14.46 Z M16.54,19.41 C16.54,19.99 16.09,20.44 15.51,20.44 L8.13,20.44 C7.56,20.44 7.11,19.99 7.11,19.41 C7.11,18.84 7.56,18.39 8.13,18.39 L15.51,18.39 C16.09,18.39 16.54,18.84 16.54,19.41 Z" id="88cga"></path>
        </g>
    </g>
</svg>