<svg xmlns="http://www.w3.org/2000/svg" width="94" height="74" viewBox="0 0 94 74">
  <defs>
    <style>
      .cls-1 {
        fill: #022258;
        fill-rule: evenodd;
      }
    </style>
  </defs>
  <path id="Forma_1" data-name="Forma 1" class="cls-1" d="M90.322,27.677l-2.045-2.165L81.1,6.165A8.418,8.418,0,0,0,73.261.712H22a8.39,8.39,0,0,0-7.839,5.454L7.082,25.271,4.135,28A11.521,11.521,0,0,0,.085,36.759V64.946a8.381,8.381,0,0,0,8.379,8.34h5.293a8.382,8.382,0,0,0,8.381-8.34v-4.09H71.858v4.09a8.38,8.38,0,0,0,8.38,8.34H85.53a8.381,8.381,0,0,0,8.38-8.34V36.017A11.626,11.626,0,0,0,90.322,27.677ZM17.928,7.529A4.336,4.336,0,0,1,22,4.722H73.281A4.362,4.362,0,0,1,77.35,7.529l6.255,16.84H78.934a13.751,13.751,0,0,0-27.205,0H11.673Zm56.917,16.84H55.779A9.738,9.738,0,0,1,74.845,24.369ZM18.129,64.946a4.36,4.36,0,0,1-4.371,4.33H8.465a4.359,4.359,0,0,1-4.37-4.33V59.694a8.146,8.146,0,0,0,4.37,1.163h9.665v4.09Zm71.772,0a4.359,4.359,0,0,1-4.371,4.33H80.238a4.374,4.374,0,0,1-4.371-4.33v-4.09H85.53A8.146,8.146,0,0,0,89.9,59.694v5.253h0Zm-4.371-8.1H8.465a4.326,4.326,0,0,1-4.37-4.291v-15.8a7.529,7.529,0,0,1,2.667-5.734l0.08-.08,2.727-2.566H85.49l1.925,2.065c0.019,0.04.08,0.06,0.1,0.1a7.555,7.555,0,0,1,2.366,5.473v16.54H89.9A4.339,4.339,0,0,1,85.53,56.847ZM26.55,36.4H11.513a2.011,2.011,0,0,0-2,2V48.828a2.011,2.011,0,0,0,2,2H26.55a2.01,2.01,0,0,0,2-2V38.4A2.011,2.011,0,0,0,26.55,36.4ZM24.544,46.823H13.518V40.407H24.544v6.416ZM82.484,36.4H67.447a2.01,2.01,0,0,0-2,2V48.828a2.01,2.01,0,0,0,2,2H82.484a2.011,2.011,0,0,0,2-2V38.4A2.011,2.011,0,0,0,82.484,36.4ZM80.478,46.823H69.451V40.407H80.478v6.416Zm-23.8-2H37.315a2,2,0,1,0,0,4.01H56.681A2,2,0,1,0,56.681,44.818Zm0-6.215H37.315a2,2,0,1,0,0,4.009H56.681A2,2,0,1,0,56.681,38.6Z"/>
</svg>
