<?xml version="1.0" encoding="UTF-8"?>
<svg width="94px" height="74px" viewBox="0 0 94 74" version="1.1" xmlns="http://www.w3.org/2000/svg" xmlns:xlink="http://www.w3.org/1999/xlink">
    <!-- Generator: Sketch 51 (57462) - http://www.bohemiancoding.com/sketch -->
    <title>car</title>
    <desc>Created with Sketch.</desc>
    <defs></defs>
    <g id="Page-1" stroke="none" stroke-width="1" fill="none" fill-rule="evenodd">
        <g id="car" fill="#0F3860" fill-rule="nonzero">
            <path d="M93.91,36.02 L93.91,64.95 C93.887983,69.5625176 90.1425701,73.2900525 85.53,73.29 L80.23,73.29 C75.6213317,73.2845529 71.8819952,69.558619 71.86,64.95 L71.86,60.85 L22.14,60.85 L22.14,64.95 C22.117983,69.5625176 18.3725701,73.2900525 13.76,73.29 L8.46,73.29 C3.85133174,73.2845529 0.111995213,69.558619 0.09,64.95 L0.09,36.75 C0.09,33.39 1.57,30.18 4.14,28 L7.08,25.27 L14.16,6.17 C15.3807379,2.8944886 18.504418,0.719068567 22,0.71 L73.26,0.71 C76.7528628,0.72767341 79.8721342,2.90002311 81.1,6.17 L88.28,25.51 L90.32,27.68 C92.6019207,29.8563657 93.90134,32.8666872 93.92,36.02 L93.91,36.02 Z M11.67,24.37 L51.73,24.37 C52.61,18.37 57.33,13.67 63.32,12.78 C66.929243,12.2391493 70.6053094,13.1574973 73.5361622,15.3321826 C76.467015,17.5068679 78.4114699,20.7589323 78.94,24.37 L83.61,24.37 L77.35,7.53 C76.7039733,5.84396792 75.0855621,4.73056465 73.28,4.73 L22,4.73 C20.2,4.73 18.57,5.83 17.93,7.53 L11.67,24.37 Z M67.33,16.83 C64.7984257,16.297326 62.1589357,16.7925965 59.992665,18.2067681 C57.8263943,19.6209396 56.3109548,21.8380646 55.78,24.37 L74.85,24.37 C74.0560692,20.590105 71.107773,17.6339676 67.33,16.83 Z M18.13,60.86 L8.47,60.86 C6.93204388,60.8907465 5.41685438,60.4850779 4.1,59.69 L4.1,64.95 C4.11650869,67.3501427 6.069807,69.2855618 8.47,69.28 L13.76,69.28 C16.16,69.28 18.11,67.35 18.13,64.95 L18.13,60.86 Z M89.9,64.95 L89.9,59.69 C88.5829297,60.4845706 87.0678896,60.8901992 85.53,60.86 L75.87,60.86 L75.87,64.95 C75.8919492,67.3478488 77.8420507,69.2801005 80.24,69.28 L85.54,69.28 C87.94,69.28 89.88,67.35 89.9,64.95 Z M89.9,52.55 L89.88,52.55 L89.88,36.02 C89.88,33.95 89.02,31.97 87.52,30.54 C87.5,30.5 87.44,30.48 87.42,30.44 L85.49,28.38 L9.57,28.38 L6.84,30.95 L6.76,31.03 C5.07626505,32.4577404 4.10386389,34.5524241 4.1,36.76 L4.1,52.56 C4.1105598,53.7084029 4.5769136,54.8055697 5.39645829,55.6101112 C6.21600299,56.4146528 7.32159803,56.8606578 8.47,56.85 L85.53,56.85 C87.923066,56.8666434 89.8780014,54.9430228 89.9,52.55 Z M28.56,38.4 L28.56,48.83 C28.56,49.93 27.66,50.83 26.56,50.83 L11.51,50.83 C10.41,50.83 9.51,49.93 9.51,48.83 L9.51,38.4 C9.51,37.3 10.41,36.4 11.51,36.4 L26.55,36.4 C27.65,36.4 28.55,37.3 28.55,38.4 L28.56,38.4 Z M24.55,40.4 L13.52,40.4 L13.52,46.82 L24.55,46.82 L24.55,40.4 Z M84.49,38.4 L84.49,48.83 C84.49,49.93 83.59,50.83 82.49,50.83 L67.45,50.83 C66.35,50.83 65.45,49.93 65.45,48.83 L65.45,38.4 C65.45,37.3 66.35,36.4 67.45,36.4 L82.48,36.4 C83.58,36.4 84.49,37.3 84.49,38.4 Z M80.48,40.4 L69.45,40.4 L69.45,46.82 L80.48,46.82 L80.48,40.4 Z M58.68,46.82 C58.68,47.92 57.78,48.82 56.68,48.82 L37.32,48.82 C36.22,48.82 35.32,47.92 35.32,46.82 C35.32,45.72 36.22,44.82 37.32,44.82 L56.68,44.82 C57.78,44.82 58.68,45.72 58.68,46.82 Z M58.68,40.61 C58.68,41.71 57.78,42.61 56.68,42.61 L37.32,42.61 C36.22,42.61 35.32,41.71 35.32,40.61 C35.32,39.51 36.22,38.61 37.32,38.61 L56.68,38.61 C57.78,38.61 58.68,39.51 58.68,40.61 Z" id="eskka"></path>
        </g>
    </g>
</svg>