<svg xmlns="http://www.w3.org/2000/svg" width="91" height="87" viewBox="0 0 91 87">
  <defs>
    <style>
      .cls-1 {
        fill: #022258;
        fill-rule: evenodd;
      }
    </style>
  </defs>
  <path id="Forma_1" data-name="Forma 1" class="cls-1" d="M60.441,56.012c-2.109,0-3.824-1.418-3.824-3.161s1.715-3.161,3.824-3.161,3.824,1.418,3.824,3.161a1.74,1.74,0,0,0,3.477,0,6.7,6.7,0,0,0-5.562-6.294V45.693a1.74,1.74,0,0,0-3.477,0v0.863a6.7,6.7,0,0,0-5.562,6.294c0,3.574,3.275,6.481,7.3,6.481,2.109,0,3.824,1.418,3.824,3.161s-1.715,3.161-3.824,3.161-3.824-1.418-3.824-3.161a1.74,1.74,0,0,0-3.477,0A6.7,6.7,0,0,0,58.7,68.787V69.5a1.74,1.74,0,0,0,3.477,0V68.787a6.7,6.7,0,0,0,5.563-6.294C67.742,58.919,64.467,56.012,60.441,56.012ZM79.48,46.137a22.348,22.348,0,0,0-9.251-7.819,1.775,1.775,0,0,0-2.32.777,1.628,1.628,0,0,0,.814,2.215A18.32,18.32,0,0,1,79.57,57.779a17.641,17.641,0,0,1-2.229,8.564,1.623,1.623,0,0,0,.718,2.245,1.8,1.8,0,0,0,.815.195,1.752,1.752,0,0,0,1.536-.881A20.771,20.771,0,0,0,79.48,46.137ZM63.174,36.2H63.057a1.662,1.662,0,1,0,0,3.32h0.109A1.662,1.662,0,1,0,63.174,36.2Zm-11,38.049A18.321,18.321,0,0,1,41.328,57.779a17.641,17.641,0,0,1,2.229-8.565,1.623,1.623,0,0,0-.718-2.245,1.78,1.78,0,0,0-2.351.686,20.771,20.771,0,0,0,.93,21.765,22.35,22.35,0,0,0,9.252,7.819,1.8,1.8,0,0,0,.752.164,1.748,1.748,0,0,0,1.568-.941A1.628,1.628,0,0,0,52.176,74.247Zm5.666,1.793h-0.1a1.662,1.662,0,1,0-.016,3.32h0.116A1.662,1.662,0,1,0,57.842,76.04Zm10.5-45.458a7.52,7.52,0,0,0-.772-1.356H72.1a7.831,7.831,0,0,0,8-7.636,7.831,7.831,0,0,0-8-7.636H58.175a7.356,7.356,0,0,0,1.4-4.316,7.831,7.831,0,0,0-8-7.636H9A7.831,7.831,0,0,0,1,9.636a7.831,7.831,0,0,0,8,7.636h13.92a7.334,7.334,0,0,0,0,8.632H18.383a7.831,7.831,0,0,0-8,7.636,7.5,7.5,0,0,0,3.027,5.976,7.413,7.413,0,0,0,0,11.953,7.413,7.413,0,0,0,0,11.953A7.5,7.5,0,0,0,10.387,69.4a7.831,7.831,0,0,0,8,7.636H38.868A30.13,30.13,0,0,0,60.449,86C76.744,86,90,73.34,90,57.779,90,44.827,80.817,33.887,68.342,30.581ZM72.1,17.273a4.426,4.426,0,0,1,4.519,4.316A4.426,4.426,0,0,1,72.1,25.905H29.508a4.426,4.426,0,0,1-4.52-4.316,4.426,4.426,0,0,1,4.52-4.316H72.1ZM9,13.953a4.426,4.426,0,0,1-4.52-4.316A4.426,4.426,0,0,1,9,5.32H51.584A4.426,4.426,0,0,1,56.1,9.636a4.426,4.426,0,0,1-4.52,4.316H9Zm9.387,15.273H60.971a4.693,4.693,0,0,1,1.972.434c-0.822-.066-1.654-0.1-2.493-0.1a30.168,30.168,0,0,0-20.911,8.3H18.383A4.321,4.321,0,1,1,18.383,29.225Zm0,11.953H36.568A27.653,27.653,0,0,0,32.1,49.81H18.383A4.321,4.321,0,1,1,18.383,41.178Zm0,11.953H31.3a26.984,26.984,0,0,0-.107,8.632H18.383A4.321,4.321,0,1,1,18.383,53.13Zm0,20.585a4.321,4.321,0,1,1,0-8.632H31.9a27.543,27.543,0,0,0,4.171,8.632H18.383ZM60.449,82.68c-14.377,0-26.074-11.171-26.074-24.9s11.7-24.9,26.074-24.9,26.074,11.171,26.074,24.9S74.827,82.68,60.449,82.68Z"/>
</svg>
