<?xml version="1.0" encoding="UTF-8"?>
<svg width="37px" height="35px" viewBox="0 0 37 35" version="1.1" xmlns="http://www.w3.org/2000/svg" xmlns:xlink="http://www.w3.org/1999/xlink">
    <!-- Generator: Sketch 50.2 (55047) - http://www.bohemiancoding.com/sketch -->
    <title>check</title>
    <desc>Created with Sketch.</desc>
    <defs></defs>
    <g id="Page-1" stroke="none" stroke-width="1" fill="none" fill-rule="evenodd">
        <g id="check" fill="#0F3861" fill-rule="nonzero">
            <path d="M36.21,21.08 L28.11,21.08 L36.13,29.1 C37.13,30.1 37.13,31.72 36.13,32.72 L34.79,34.05 C34.3129489,34.5318408 33.6630474,34.8029424 32.985,34.8029424 C32.3069526,34.8029424 31.6570511,34.5318408 31.18,34.05 L18.28,21.15 L18.2,21.08 L1.45,21.08 C1.08388033,21.0745349 0.789959214,20.7761605 0.79,20.41 L0.79,1.19 C0.79,0.83 1.09,0.53 1.45,0.53 L36.21,0.53 C36.58,0.53 36.88,0.83 36.88,1.19 L36.88,20.41 C36.88,20.78 36.58,21.08 36.21,21.08 Z M32.99,27.84 L29.91,30.91 L32.11,33.11 C32.3406907,33.340828 32.6536569,33.4705174 32.98,33.4705174 C33.3063431,33.4705174 33.6193093,33.340828 33.85,33.11 L35.19,31.78 C35.67,31.3 35.67,30.52 35.19,30.04 L32.99,27.84 Z M19.61,14.45 L16.54,17.53 L28.97,29.97 L32.05,26.9 L19.61,14.45 Z M18.31,13.87 L15.17,13.09 L15.96,16.23 L18.31,13.87 Z M35.55,1.86 L2.11,1.86 L2.11,19.75 L16.87,19.75 L15.12,18 C15.0365996,17.9137514 14.9778887,17.8066904 14.95,17.69 L13.9,13.48 L11.98,15.39 C11.86,15.52 11.69,15.59 11.51,15.59 L11.39,15.58 C11.1773762,15.5396889 10.9980233,15.3977012 10.91,15.2 L9.02,11.04 L7.42,12.64 C7.29,12.77 7.12,12.84 6.94,12.84 L4.44,12.84 L4.44,11.51 L6.66,11.51 L8.76,9.41 C8.91394891,9.25623813 9.13379079,9.18823226 9.34767105,9.22820988 C9.56155131,9.2681875 9.74198577,9.41101138 9.83,9.61 L11.72,13.77 L13.78,11.7 C13.8511099,11.6319892 13.936527,11.580739 14.03,11.55 L14.1,11.53 C14.1526183,11.5185058 14.2061714,11.5118117 14.26,11.51 L33.22,11.51 L33.22,12.84 L19.88,12.84 L26.78,19.74 L35.55,19.74 L35.55,1.86 Z" id="8r3ya"></path>
        </g>
    </g>
</svg>