<?xml version="1.0" encoding="UTF-8"?>
<svg width="35px" height="35px" viewBox="0 0 35 35" version="1.1" xmlns="http://www.w3.org/2000/svg" xmlns:xlink="http://www.w3.org/1999/xlink">
    <!-- Generator: Sketch 50.2 (55047) - http://www.bohemiancoding.com/sketch -->
    <title>clock</title>
    <desc>Created with Sketch.</desc>
    <defs></defs>
    <g id="Page-1" stroke="none" stroke-width="1" fill="none" fill-rule="evenodd">
        <g id="clock" fill="#0E3A63" fill-rule="nonzero">
            <path d="M26.23,13.6 C26.3895221,13.9893667 26.2069422,14.4346837 25.82,14.6 L17.92,19.17 C17.6235902,19.2925214 17.2823942,19.2211083 17.06,18.99 L9.49,9.59 C9.34778626,9.44641023 9.26861926,9.25209122 9.27,9.05 C9.27253879,8.84486909 9.35789741,8.64947675 9.5066756,8.50823163 C9.65545379,8.36698651 9.85501389,8.2918864 10.06,8.3 C10.26,8.3 10.46,8.39 10.6,8.54 L17.8,17.54 L25.22,13.19 C25.42,13.11 25.62,13.11 25.82,13.19 C26,13.26 26.15,13.41 26.22,13.6 L26.23,13.6 Z M34.76,17.8 C34.76,27.24 27.06,34.93 17.62,34.93 C8.15840823,34.9189789 0.491021085,27.2515918 0.48,17.79 C0.48,8.34 8.18,0.66 17.62,0.66 C27.07,0.66 34.76,8.34 34.76,17.79 L34.76,17.8 Z M33.21,18.56 L30.11,18.56 C29.6847407,18.56 29.34,18.2152593 29.34,17.79 C29.34,17.3647407 29.6847407,17.02 30.11,17.02 L33.21,17.02 L33.18,16.65 C32.5823165,8.94718535 26.4628147,2.82768351 18.76,2.23 L18.39,2.2 L18.39,5.3 C18.39,5.72525926 18.0452593,6.07 17.62,6.07 C17.1947407,6.07 16.85,5.72525926 16.85,5.3 L16.85,2.2 L16.47,2.23 C8.77498688,2.83704396 2.66636328,8.95415176 2.07,16.65 L2.03,17.02 L5.13,17.02 C5.55525926,17.02 5.9,17.3647407 5.9,17.79 C5.9,18.2152593 5.55525926,18.56 5.13,18.56 L2.03,18.56 L2.06,18.94 C2.66170516,26.63543 8.77457003,32.7482948 16.47,33.35 L16.85,33.38 L16.85,30.28 C16.85,29.8547407 17.1947407,29.51 17.62,29.51 C18.0452593,29.51 18.39,29.8547407 18.39,30.28 L18.39,33.38 L18.76,33.35 C26.4593301,32.7529753 32.5776342,26.6389141 33.18,18.94 L33.21,18.56 Z" id="ksb3a"></path>
        </g>
    </g>
</svg>