<svg xmlns="http://www.w3.org/2000/svg" width="80" height="72" viewBox="0 0 80 72">
  <defs>
    <style>
      .cls-1 {
        fill: #fff;
        fill-rule: evenodd;
      }
    </style>
  </defs>
  <path class="cls-1" d="M75.171,0.37H4.824A4.835,4.835,0,0,0-.007,5.2V53.757a4.835,4.835,0,0,0,4.83,4.828H28.929V62.1a5.849,5.849,0,0,1-5.843,5.841H17.774a1.844,1.844,0,1,0,0,3.688H62.222a1.844,1.844,0,1,0,0-3.688H56.908A5.849,5.849,0,0,1,51.065,62.1V58.585H75.171A4.835,4.835,0,0,0,80,53.757V5.2A4.835,4.835,0,0,0,75.171.37ZM30.609,67.94A9.471,9.471,0,0,0,32.618,62.1V58.586H47.377V62.1a9.48,9.48,0,0,0,2.009,5.841H30.609Zm45.7-14.184A1.143,1.143,0,0,1,75.171,54.9H4.824a1.142,1.142,0,0,1-1.14-1.141V44.066h72.63v9.691Zm0-13.379H3.683V5.2A1.142,1.142,0,0,1,4.824,4.058H75.171A1.143,1.143,0,0,1,76.314,5.2V40.378h0ZM40,47.492a1.99,1.99,0,1,1-1.99,1.99A1.99,1.99,0,0,1,40,47.492Z"/>
</svg>
