<?xml version="1.0" encoding="UTF-8"?>
<svg width="38px" height="38px" viewBox="0 0 38 38" version="1.1" xmlns="http://www.w3.org/2000/svg" xmlns:xlink="http://www.w3.org/1999/xlink">
    <!-- Generator: Sketch 50.2 (55047) - http://www.bohemiancoding.com/sketch -->
    <title>credit</title>
    <desc>Created with Sketch.</desc>
    <defs></defs>
    <g id="Page-1" stroke="none" stroke-width="1" fill="none" fill-rule="evenodd">
        <g id="credit" fill="#0F3860" fill-rule="nonzero">
            <path d="M37.87,19.63 L37.87,34.73 C37.8645106,36.4618952 36.4618952,37.8645106 34.73,37.87 L7.04,37.87 C5.30810477,37.8645106 3.90548941,36.4618952 3.9,34.73 L3.9,21.52 L3.27,21.52 C1.53030304,21.52 0.12,20.109697 0.12,18.37 L0.12,3.27 C0.12,1.53030304 1.53030304,0.12 3.27,0.12 L30.95,0.12 C32.689697,0.12 34.1,1.53030304 34.1,3.27 L34.1,16.48 L34.73,16.48 C36.4657904,16.4855105 37.8700087,17.8942008 37.87,19.63 Z M1.38,5.16 L32.84,5.16 L32.84,3.27 C32.84,2.23 31.99,1.38 30.95,1.38 L3.27,1.38 C2.23,1.38 1.38,2.23 1.38,3.27 L1.38,5.16 Z M1.38,8.93 L32.84,8.93 L32.84,6.42 L1.38,6.42 L1.38,8.93 Z M7.04,16.48 L21.52,16.48 L21.52,15.22 C21.52,14.18 22.36,13.34 23.4,13.34 L24.66,13.34 C25.15,13.34 25.58,13.53 25.92,13.83 C26.25,13.53 26.69,13.33 27.18,13.33 L28.44,13.33 C29.48,13.33 30.32,14.18 30.32,15.23 L30.32,16.48 L32.84,16.48 L32.84,10.19 L1.38,10.19 L1.38,18.37 C1.38,19.41 2.23,20.26 3.27,20.26 L3.9,20.26 L3.9,19.63 C3.89999125,17.8942008 5.30420956,16.4855105 7.04,16.48 Z M28.44,14.6 L27.18,14.6 C26.8359287,14.5999567 26.5554614,14.8759721 26.55,15.22 L26.55,16.48 L29.07,16.48 L29.07,15.22 C29.0645386,14.8759721 28.7840713,14.5999567 28.44,14.6 Z M24.66,14.6 L23.4,14.6 C23.0559287,14.5999567 22.7754614,14.8759721 22.77,15.22 L22.77,16.48 L25.29,16.48 L25.29,15.22 C25.2845386,14.8759721 25.0040713,14.5999567 24.66,14.6 Z M36.62,19.63 C36.62,18.59 35.77,17.74 34.72,17.74 L7.04,17.74 C6,17.74 5.16,18.59 5.16,19.63 L5.16,34.73 C5.16,35.77 6,36.62 7.04,36.62 L34.73,36.62 C35.77,36.62 36.62,35.77 36.62,34.72 L36.62,19.63 Z M7.67,32.84 L17.74,32.84 L17.74,34.1 L7.67,34.1 L7.67,32.84 Z M7.67,29.07 L12.71,29.07 L12.71,30.32 L7.67,30.32 L7.67,29.07 Z M14.59,29.07 L19.63,29.07 L19.63,30.32 L14.59,30.32 L14.59,29.07 Z M20.26,32.84 L30.32,32.84 L30.32,34.1 L20.26,34.1 L20.26,32.84 Z M33.46,25.29 L33.46,26.55 L24.66,26.55 L24.66,25.29 L25.92,25.29 L25.92,23.4 L25.29,23.4 C25.03222,23.392142 24.8052612,23.2279631 24.7171258,22.9855906 C24.6289903,22.7432182 24.6974789,22.4716039 24.89,22.3 L28.66,19.15 C28.9,18.95 29.23,18.95 29.46,19.15 L33.24,22.29 C33.4401454,22.4600993 33.5137544,22.7365248 33.4247064,22.9836329 C33.3356584,23.230741 33.1026421,23.396671 32.84,23.4 L32.21,23.4 L32.21,25.3 L33.46,25.29 Z M28.44,23.4 L27.18,23.4 L27.18,25.3 L28.44,25.3 L28.44,23.4 Z M30.95,23.4 L29.7,23.4 L29.7,25.3 L30.95,25.3 L30.95,23.4 Z M31.1,22.15 L29.07,20.45 L27.03,22.15 L31.1,22.15 Z" id="qtjja"></path>
        </g>
    </g>
</svg>