<svg xmlns="http://www.w3.org/2000/svg" width="83" height="75" viewBox="0 0 83 75">
  <defs>
    <style>
      .cls-1 {
        fill: #022258;
        fill-rule: evenodd;
      }
    </style>
  </defs>
  <path id="חיובים_באשראי" data-name="חיובים באשראי" class="cls-1" d="M76.066,28.154H74.683V6.9A6.908,6.908,0,0,0,67.768.017H6.927A6.909,6.909,0,0,0,.012,6.9V42.235a6.909,6.909,0,0,0,6.915,6.886H8.308V68.1a6.91,6.91,0,0,0,6.915,6.887H76.066A6.909,6.909,0,0,0,82.98,68.1V35.041A6.909,6.909,0,0,0,76.066,28.154ZM2.779,6.9A4.144,4.144,0,0,1,6.927,2.771H67.768A4.145,4.145,0,0,1,71.917,6.9v4.131H2.779V6.9Zm0,6.886H71.917V19.3H2.779V13.789ZM8.308,35.041V46.367H6.927a4.144,4.144,0,0,1-4.148-4.132V22.054H71.917v6.1H15.223A6.91,6.91,0,0,0,8.308,35.041Zm55.313-6.887H58.09m-2.766,0H49.795M80.213,68.1a4.144,4.144,0,0,1-4.147,4.132H15.223A4.146,4.146,0,0,1,11.075,68.1V35.041a4.145,4.145,0,0,1,4.148-4.131H76.066a4.143,4.143,0,0,1,4.147,4.131V68.1ZM16.605,63.966H38.731v2.755H16.605V63.966Zm0-8.264H27.669v2.755H16.605V55.7Zm15.212,0H42.879v2.755H31.817V55.7Zm12.446,8.264H66.385v2.755H44.263V63.966ZM70.534,47.437V43.306h1.382a1.378,1.378,0,0,0,.888-2.434l-8.3-6.888a1.382,1.382,0,0,0-1.769,0l-8.3,6.888a1.377,1.377,0,0,0,.885,2.434h1.382v4.131H53.943v2.756H73.3V47.437H70.534Zm-8.3,0H59.472V43.306h2.767v4.131Zm5.53,0H65V43.306h2.764v4.131ZM59.144,40.55l4.477-3.716L68.1,40.55H59.144Z"/>
</svg>
