<svg xmlns="http://www.w3.org/2000/svg" width="70" height="70" viewBox="0 0 70 70">
  <defs>
    <style>
      .cls-1 {
        fill: #022258;
        fill-rule: evenodd;
      }
    </style>
  </defs>
  <path id="פקדונות" class="cls-1" d="M51.388,42.649c-5.457,0-9.575,2.351-9.575,5.468v16.4c0,3.117,4.117,5.468,9.575,5.468s9.573-2.351,9.573-5.468v-16.4C60.961,45,56.847,42.649,51.388,42.649Zm6.838,21.872c0,1.115-2.664,2.734-6.838,2.734s-6.84-1.619-6.84-2.734V62.953a14.026,14.026,0,0,0,6.84,1.568,14.018,14.018,0,0,0,6.838-1.568v1.568Zm0-5.468c0,1.115-2.664,2.734-6.838,2.734s-6.84-1.62-6.84-2.734V57.485a14.017,14.017,0,0,0,6.84,1.568,14.009,14.009,0,0,0,6.838-1.568v1.568Zm0-5.468c0,1.115-2.664,2.733-6.838,2.733s-6.84-1.619-6.84-2.733V52.017a14,14,0,0,0,6.84,1.569,14,14,0,0,0,6.838-1.569v1.569Zm-6.838-2.734c-4.175,0-6.84-1.619-6.84-2.734s2.665-2.734,6.84-2.734S58.227,47,58.227,48.117,55.562,50.851,51.388,50.851Zm18.6-15.019a34.118,34.118,0,0,0-11.042-23.1,35.183,35.183,0,0,0-22.6-9.56V1.367a1.368,1.368,0,0,0-2.736,0V3.173a35.131,35.131,0,0,0-22.584,9.56A34.134,34.134,0,0,0,0,35.832a1.367,1.367,0,0,0,2.7.37c0.232-1.05,3.166-2.575,7.233-2.575,4.173,0,6.838,1.619,6.838,2.734a1.366,1.366,0,0,0,1.347,1.366h0.044a1.365,1.365,0,0,0,1.357-1.346c0-.048,0-0.094,0-0.142,0.231-1.058,3.175-2.611,7.245-2.611,4.177,0,6.838,1.619,6.838,2.734V63.154a4.1,4.1,0,0,1-8.206,0V60.42a1.368,1.368,0,0,0-2.736,0v2.733a6.839,6.839,0,0,0,13.678,0V36.362c0-1.115,2.663-2.734,6.838-2.734,4.1,0,7.055,1.557,7.282,2.615,0,0.047,0,.092,0,0.139a1.367,1.367,0,0,0,1.366,1.347h0.036a1.367,1.367,0,0,0,1.347-1.366c0-1.115,2.665-2.734,6.838-2.734,4.069,0,7,1.524,7.232,2.573A1.368,1.368,0,0,0,69.987,35.832Zm-53.014-3.25a13.756,13.756,0,0,0-7.041-1.689A16.462,16.462,0,0,0,3.7,32.054c-0.189.081-.368,0.161-0.543,0.246A32.635,32.635,0,0,1,26.67,6.989a25.415,25.415,0,0,0-4.445,6.158A50.5,50.5,0,0,0,16.973,32.582Zm26.208-1.689a14,14,0,0,0-6.838,1.569V15.173a1.368,1.368,0,0,0-2.736,0V32.462a14,14,0,0,0-6.838-1.569,15.819,15.819,0,0,0-7.036,1.55c1.2-13.816,7.075-25.076,13.874-26.427v10.07a1.368,1.368,0,0,0,2.736,0V6.015C43.159,7.363,49.052,18.624,50.253,32.45A15.892,15.892,0,0,0,43.181,30.893Zm23.1,1.161a16.468,16.468,0,0,0-6.23-1.161,13.761,13.761,0,0,0-7.042,1.689,50.375,50.375,0,0,0-5.268-19.434,25.46,25.46,0,0,0-4.455-6.159A32.645,32.645,0,0,1,66.826,32.3C66.652,32.215,66.47,32.134,66.284,32.054Z"/>
</svg>
