<?xml version="1.0" encoding="UTF-8"?>
<svg width="36px" height="33px" viewBox="0 0 36 33" version="1.1" xmlns="http://www.w3.org/2000/svg" xmlns:xlink="http://www.w3.org/1999/xlink">
    <!-- Generator: Sketch 50.2 (55047) - http://www.bohemiancoding.com/sketch -->
    <title>desktop-graph-up</title>
    <desc>Created with Sketch.</desc>
    <defs></defs>
    <g id="Page-1" stroke="none" stroke-width="1" fill="none" fill-rule="evenodd">
        <g id="desktop-graph-up" fill="#0F3860" fill-rule="nonzero">
            <path d="M35.21,9.09 L35.21,24.42 C35.21,26.42 33.58,28.06 31.57,28.06 L18.68,28.06 L18.68,28.96 L22.68,28.96 C23.3182504,28.9573406 23.931272,29.2090225 24.3835244,29.6593984 C24.8357769,30.1097743 25.0900055,30.721744 25.09,31.36 L25.09,31.92 C25.09,32.29 24.79,32.6 24.41,32.6 L11.59,32.6 C11.2127949,32.6000396 10.9054667,32.2971655 10.9,31.92 L10.9,31.36 C10.8999945,30.721744 11.1542231,30.1097743 11.6064756,29.6593984 C12.058728,29.2090225 12.6717496,28.9573406 13.31,28.96 L17.31,28.96 L17.31,28.06 L4.43,28.06 C2.42,28.06 0.79,26.42 0.79,24.42 L0.79,9.09 C0.79,7.09 2.42,5.45 4.43,5.45 L26.37,5.45 L30.05,1.77 L28.65,1.77 C28.3035212,1.72806058 28.0429156,1.4340078 28.0429156,1.085 C28.0429156,0.735992201 28.3035212,0.441939417 28.65,0.4 L31.64,0.4 C32.02,0.4 32.33,0.7 32.33,1.08 L32.33,4.07 C32.33,4.45107648 32.0210765,4.76 31.64,4.76 C31.2589235,4.76 30.95,4.45107648 30.95,4.07 L30.95,2.81 L28.31,5.45 L31.57,5.45 C33.57,5.45 35.21,7.08 35.21,9.09 Z M2.16,22.79 L33.84,22.79 L33.84,9.09 C33.84,7.83631362 32.8236864,6.82 31.57,6.82 L26.94,6.82 L17.09,16.66 C16.8212159,16.9256131 16.3887841,16.9256131 16.12,16.66 L13.35,13.89 L8.51,18.73 C8.33672622,18.903274 8.08417406,18.9709452 7.84747753,18.9075226 C7.61078101,18.8441 7.42589997,18.659219 7.36247738,18.4225225 C7.29905478,18.1858259 7.36672603,17.9332738 7.54,17.76 L12.87,12.44 C13.13,12.17 13.57,12.17 13.84,12.44 L16.61,15.21 L25,6.82 L4.43,6.82 C3.17631362,6.82 2.16,7.83631362 2.16,9.09 L2.16,22.79 Z M13.31,30.33 C12.78,30.33 12.35,30.73 12.28,31.23 L23.71,31.23 C23.65,30.73 23.21,30.33 22.69,30.33 L13.31,30.33 Z M33.84,24.16 L2.16,24.16 L2.16,24.42 C2.16550569,25.6697794 3.1802085,26.6800121 4.43,26.68 L31.57,26.68 C32.8197915,26.6800121 33.8344943,25.6697794 33.84,24.42 L33.84,24.16 Z M6.88,20.36 L6.68,20.56 C6.55215182,20.6900936 6.37739931,20.7633712 6.195,20.7633712 C6.01260069,20.7633712 5.83784818,20.6900936 5.71,20.56 C5.44438691,20.2912159 5.44438691,19.8587841 5.71,19.59 L5.91,19.39 C6.18452345,19.1697034 6.58086171,19.1913558 6.82975295,19.4402471 C7.07864419,19.6891383 7.10029656,20.0854765 6.88,20.36 Z" id="h28ea"></path>
        </g>
    </g>
</svg>