<?xml version="1.0" encoding="UTF-8"?>
<svg width="80px" height="72px" viewBox="0 0 80 72" version="1.1" xmlns="http://www.w3.org/2000/svg" xmlns:xlink="http://www.w3.org/1999/xlink">
    <!-- Generator: Sketch 51 (57462) - http://www.bohemiancoding.com/sketch -->
    <title>desktop-alt</title>
    <desc>Created with Sketch.</desc>
    <defs></defs>
    <g id="Page-1" stroke="none" stroke-width="1" fill="none" fill-rule="evenodd">
        <g id="desktop-alt" fill="#0F3860" fill-rule="nonzero">
            <path d="M80,5.2 L80,53.76 C80,56.4275353 77.8375353,58.59 75.17,58.59 L51.07,58.59 L51.07,62.09 C51.0699953,65.3169646 53.6830401,67.9344838 56.91,67.94 L62.22,67.94 C63.2389654,67.94 64.065,68.7660346 64.065,69.785 C64.065,70.8039654 63.2389654,71.63 62.22,71.63 L17.78,71.63 C16.7610346,71.63 15.935,70.8039654 15.935,69.785 C15.935,68.7660346 16.7610346,67.94 17.78,67.94 L23.08,67.94 C26.3069646,67.9400047 28.9244838,65.3269599 28.93,62.1 L28.93,58.59 L4.83,58.59 C2.16246466,58.59 4.54747351e-13,56.4275353 4.54747351e-13,53.76 L4.54747351e-13,5.2 C0.00550105658,2.5347466 2.1647466,0.375501057 4.83,0.37 L75.17,0.37 C77.8375353,0.37 80,2.53246466 80,5.2 Z M49.39,67.94 C48.086879,66.2722829 47.3793099,64.2164602 47.38,62.1 L47.38,58.59 L32.62,58.59 L32.62,62.1 C32.62,64.3 31.87,66.33 30.62,67.94 L49.39,67.94 Z M76.31,44.07 L3.68,44.07 L3.68,53.76 C3.68,54.39 4.2,54.9 4.83,54.9 L75.17,54.9 C75.8,54.9 76.31,54.39 76.31,53.76 L76.31,44.07 Z M76.31,40.37 L76.31,5.2 C76.31,4.57 75.81,4.06 75.17,4.06 L4.83,4.06 C4.2,4.06 3.68,4.57 3.68,5.2 L3.68,40.38 L76.31,40.37 Z M40,47.49 C41.0990467,47.49 41.99,48.3809533 41.99,49.48 C41.99,50.5790467 41.0990467,51.47 40,51.47 C38.9009533,51.47 38.01,50.5790467 38.01,49.48 C38.01,48.3809533 38.9009533,47.49 40,47.49 Z" id="jlmxa"></path>
        </g>
    </g>
</svg>