<?xml version="1.0" encoding="UTF-8"?>
<svg width="52px" height="52px" viewBox="0 0 52 52" version="1.1" xmlns="http://www.w3.org/2000/svg" xmlns:xlink="http://www.w3.org/1999/xlink">
    <!-- Generator: Sketch 50.2 (55047) - http://www.bohemiancoding.com/sketch -->
    <title>desktop</title>
    <desc>Created with Sketch.</desc>
    <defs></defs>
    <g id="Page-1" stroke="none" stroke-width="1" fill="none" fill-rule="evenodd">
        <g id="desktop" fill="#45B7EC" fill-rule="nonzero">
            <path d="M47.52,40.64 L33.22,40.64 L33.22,45.7 L43.24,45.7 C43.62,45.7 43.93,46 43.93,46.38 L43.93,50.67 C43.93,51.05 43.62,51.35 43.23,51.35 L8.96,51.35 C8.58279485,51.3500396 8.27546674,51.0471655 8.27,50.67 L8.27,46.38 C8.27,46.01 8.57,45.7 8.96,45.7 L18.98,45.7 L18.98,40.64 L4.67,40.64 C2.51608948,40.64 0.77,38.8939105 0.77,36.74 L0.77,4.6 C0.77,2.44608948 2.51608948,0.7 4.67,0.7 L47.52,0.7 C49.6739105,0.7 51.42,2.44608948 51.42,4.6 L51.42,36.74 C51.42,38.8939105 49.6739105,40.64 47.52,40.64 Z M9.64,47.07 L9.64,49.98 L42.55,49.98 L42.55,47.07 L9.64,47.07 Z M31.84,45.7 L31.84,40.64 L20.35,40.64 L20.35,45.7 L31.84,45.7 Z M50.05,4.6 C50.05,3.2 48.92,2.07 47.52,2.07 L4.67,2.07 C3.27271958,2.07 2.14,3.20271958 2.14,4.6 L2.14,32.84 L50.05,32.84 L50.05,4.6 Z M50.05,34.21 L2.15,34.21 L2.15,36.74 C2.15,38.14 3.28,39.27 4.67,39.27 L47.52,39.27 C48.92,39.27 50.05,38.14 50.05,36.74 L50.05,34.21 Z M27.55,36.06 L33.21,36.06 L33.21,37.43 L27.56,37.43 L27.55,36.06 Z M18.98,36.06 L24.64,36.06 L24.64,37.43 L18.98,37.43 L18.98,36.06 Z M12.86,5.67 L12.86,9.96 C12.86,10.33 12.55,10.64 12.16,10.64 L5.06,10.64 L5.06,9.27 L11.48,9.27 L11.48,6.36 L5.06,6.36 L5.06,4.99 L12.16,4.99 C12.55,4.99 12.86,5.29 12.86,5.67 Z M10.71,14.93 L5.06,14.93 L5.06,13.56 L10.71,13.56 L10.71,14.93 Z M9.64,19.21 L5.06,19.21 L5.06,17.84 L9.64,17.84 L9.64,19.21 Z M7.5,23.5 L5.06,23.5 L5.06,22.13 L7.5,22.13 L7.5,23.5 Z M29.31,4.99 C36.19,4.99 41.78,10.59 41.78,17.46 C41.7635074,24.3401478 36.1901478,29.9135074 29.31,29.93 C22.44,29.93 16.84,24.33 16.84,17.46 C16.84,10.58 22.44,4.99 29.31,4.99 Z M36.89,9.36 C35.1194056,7.68748775 32.8437865,6.64991798 30.42,6.41 L30,6.37 L30,15.95 L37.2,9.65 L36.89,9.36 Z M34.44,27.3 C37.2915966,25.8205064 39.3606719,23.1761808 40.1109031,20.0524559 C40.8611344,16.9287309 40.2186545,13.6331657 38.35,11.02 L38.1,10.68 L30.13,17.65 L34.07,27.5 L34.44,27.3 Z M29.31,28.56 C30.35,28.56 31.39,28.41 32.38,28.13 L32.79,28.01 L28.81,18.04 L28.68,17.71 C28.6477207,17.6305643 28.6307559,17.5457404 28.63,17.46 L28.63,6.37 L28.2,6.41 C22.4018477,7.1004532 18.1276495,12.1614389 18.4174018,17.9933631 C18.7071542,23.8252872 23.4619627,28.4376773 29.3,28.55 L29.31,28.56 Z" id="7hq9a"></path>
        </g>
    </g>
</svg>