<?xml version="1.0" encoding="UTF-8"?>
<svg width="38px" height="43px" viewBox="0 0 38 43" version="1.1" xmlns="http://www.w3.org/2000/svg" xmlns:xlink="http://www.w3.org/1999/xlink">
    <!-- Generator: Sketch 50.2 (55047) - http://www.bohemiancoding.com/sketch -->
    <title>desktop-ok</title>
    <desc>Created with Sketch.</desc>
    <defs></defs>
    <g id="Page-1" stroke="none" stroke-width="1" fill="none" fill-rule="evenodd">
        <g id="desktop-ok" fill="#0E3A63" fill-rule="nonzero">
            <path d="M17.13,17 L14.45,14.31 C14.1272174,13.9828882 14.1272174,13.4571118 14.45,13.13 C14.7813032,12.8175995 15.2986968,12.8175995 15.63,13.13 L17.6,15.09 C17.67,15.16 17.79,15.16 17.86,15.09 L22.75,10.2 C23.0813032,9.88759948 23.5986968,9.88759948 23.93,10.2 C24.26,10.53 24.26,11.06 23.93,11.4 L18.33,17 C18.1720053,17.1612527 17.9557538,17.2521225 17.73,17.2521225 C17.5042462,17.2521225 17.2879947,17.1612527 17.13,17 Z M37.8,9.57 L37.8,32.94 C37.8,33.39 37.43,33.76 36.98,33.76 L23.08,33.76 L23.08,37.52 L23.9,37.52 C25.8387763,37.5271474 27.5075265,38.8913507 27.9,40.79 L30.44,40.79 C30.8553354,40.8360771 31.1695843,41.1871165 31.1695843,41.605 C31.1695843,42.0228835 30.8553354,42.3739229 30.44,42.42 L7.56,42.42 C7.2472725,42.4546938 6.94227134,42.3073839 6.7750216,42.04087 C6.60777186,41.7743561 6.60777186,41.4356439 6.7750216,41.16913 C6.94227134,40.9026161 7.2472725,40.7553062 7.56,40.79 L10.09,40.79 C10.4824735,38.8913507 12.1512237,37.5271474 14.09,37.52 L14.91,37.52 L14.91,33.76 L1.01,33.76 C0.56495581,33.7491421 0.209867567,33.3851766 0.21,32.94 L0.21,9.57 C0.21,9.12 0.57,8.75 1.01,8.75 L7.44,8.75 C9.17089339,3.84986263 13.8031415,0.573380952 19,0.573380952 C24.1968585,0.573380952 28.8291066,3.84986263 30.56,8.75 L36.98,8.75 C37.43,8.75 37.8,9.12 37.8,9.57 Z M8.37,12.84 C8.61693581,18.5315898 13.3030559,23.0188059 19,23.0188059 C24.6969441,23.0188059 29.3830642,18.5315898 29.63,12.84 C29.63,11.88 29.5,10.93 29.24,10.01 C29.1551665,9.87892752 29.1100219,9.72613045 29.11,9.57 C27.6761253,5.19583104 23.6031425,2.23073183 19,2.21 C13.3,2.21 8.37,6.85 8.37,12.84 Z M14.1,39.15 C13.03,39.15 12.12,39.84 11.78,40.79 L26.21,40.79 C25.8648843,39.8137635 24.9454112,39.1581392 23.91,39.15 L14.1,39.15 Z M21.45,37.52 L21.45,33.76 L16.55,33.76 L16.55,37.52 L21.45,37.52 Z M36.16,30.49 L1.84,30.49 L1.84,32.12 L36.16,32.12 L36.16,30.49 Z M36.16,10.39 L31.01,10.39 C31.7416854,13.995919 30.8165507,17.7398635 28.4895685,20.5899808 C26.1625862,23.4400981 22.6794014,25.095519 19,25.1 C15.3184555,25.0961264 11.8332035,23.4393658 9.50581579,20.586814 C7.17842809,17.7342622 6.25488882,13.9874086 6.99,10.38 L1.84,10.38 L1.84,28.86 L36.16,28.86 L36.16,10.39 Z M13.7,18.13 C13.9107867,18.3390004 13.9940613,18.644578 13.918455,18.9316249 C13.8428487,19.2186717 13.619848,19.4435784 13.333455,19.5216249 C13.047062,19.5996713 12.7407867,19.5190004 12.53,19.31 C12.204152,18.9869134 12.2019134,18.460848 12.525,18.135 C12.8480866,17.809152 13.374152,17.8069134 13.7,18.13 Z M11.59,16.72 C11.3846252,16.8053831 11.1535744,16.8047663 10.9486583,16.7182879 C10.7437422,16.6318096 10.5821079,16.466706 10.5,16.26 C9.08658587,12.8247325 9.88528038,8.87611791 12.5226771,6.26021637 C15.1600738,3.64431482 19.1150922,2.87795999 22.5386782,4.31943882 C25.9622642,5.76091765 28.1780068,9.12543167 28.15,12.84 C28.1419496,15.8736275 26.6340965,18.7069437 24.1223409,20.4081328 C21.6105853,22.1093218 18.4200378,22.4581892 15.6,21.34 L15.57,21.33 C15.1419793,21.1587917 14.9337917,20.6730207 15.105,20.245 C15.2762083,19.8169793 15.7619793,19.6087917 16.19,19.78 L16.22,19.8 C19.5277567,21.1236674 23.310229,19.9376009 25.2699366,16.9622193 C27.2296443,13.9868377 26.8256687,10.043406 24.3033855,7.52717131 C21.7811022,5.01093666 17.8367118,4.6164303 14.866044,6.58327607 C11.8953761,8.55012184 10.7183946,12.3354309 12.05,15.64 C12.1322338,15.8442153 12.1299669,16.0727351 12.0436983,16.2752789 C11.9574296,16.4778227 11.7942272,16.6377959 11.59,16.72 Z" id="cbmna"></path>
        </g>
    </g>
</svg>