<svg xmlns="http://www.w3.org/2000/svg" width="86" height="85" viewBox="0 0 86 85">
  <defs>
    <style>
      .cls-1 {
        fill: #022258;
        fill-rule: evenodd;
      }
    </style>
  </defs>
  <path class="cls-1" d="M16.4,71.55a1.407,1.407,0,0,0,.99-0.405,1.373,1.373,0,0,0,0-1.956L6.111,58.05A7.91,7.91,0,0,1,3.8,52.184V31.434a2.8,2.8,0,0,1,5.6,0V42.384a1.4,1.4,0,0,0,2.8,0V31.434a5.6,5.6,0,0,0-11.2,0v20.75a10.632,10.632,0,0,0,3.21,7.895l11.2,11.067A1.4,1.4,0,0,0,16.4,71.55ZM33.2,75.7H10.8a1.391,1.391,0,0,0-1.4,1.383v5.533a1.4,1.4,0,0,0,2.8,0v-4.15H31.8v4.15a1.4,1.4,0,0,0,2.8,0V77.083A1.392,1.392,0,0,0,33.2,75.7ZM9.486,50.772a5.644,5.644,0,0,0,1.725,3.772l7,6.917a1.411,1.411,0,0,0,1.98,0,1.373,1.373,0,0,0,0-1.956l-7-6.918a2.9,2.9,0,0,1-.906-1.927,2.367,2.367,0,0,1,.738-1.816,2.433,2.433,0,0,1,1.838-.729,2.977,2.977,0,0,1,1.952.9l9.865,9.744A8.059,8.059,0,0,1,29,64.634V71.55a1.4,1.4,0,0,0,2.8,0V64.633a10.813,10.813,0,0,0-3.21-7.895l-9.8-9.683a5.773,5.773,0,0,0-3.816-1.7,5.238,5.238,0,0,0-3.933,1.537A5.112,5.112,0,0,0,9.486,50.772Zm48,5.9A10.84,10.84,0,0,0,54.2,64.633V71.55a1.4,1.4,0,0,0,2.8,0V64.633a8.069,8.069,0,0,1,2.39-5.939l9.8-9.683a2.978,2.978,0,0,1,1.953-.9,2.423,2.423,0,0,1,1.837.729,2.378,2.378,0,0,1,.741,1.718,2.865,2.865,0,0,1-.91,2.027l-7,6.917a1.373,1.373,0,0,0,0,1.956,1.411,1.411,0,0,0,1.98,0l7-6.915a5.6,5.6,0,0,0,1.73-3.984,5.136,5.136,0,0,0-1.561-3.674,5.274,5.274,0,0,0-3.931-1.537,5.776,5.776,0,0,0-3.818,1.7ZM68.2,16.217A15.434,15.434,0,0,0,38.834,9.8a1.376,1.376,0,0,0,.678,1.838,1.408,1.408,0,0,0,1.861-.669A12.628,12.628,0,0,1,65.4,16.217c0,8.122-8.362,21.027-22.4,28.851C28.963,37.243,20.6,24.338,20.6,16.217A12.632,12.632,0,0,1,38.245,4.8a1.407,1.407,0,0,0,1.844-.712,1.376,1.376,0,0,0-.721-1.822A15.437,15.437,0,0,0,17.8,16.217c0,8.932,8.6,23.06,24.53,31.648a1.417,1.417,0,0,0,1.341,0C59.6,39.277,68.2,25.15,68.2,16.217ZM79.4,25.9a5.573,5.573,0,0,0-5.6,5.533V42.384a1.4,1.4,0,0,0,2.8,0V31.433a2.8,2.8,0,0,1,5.6,0v20.75a7.922,7.922,0,0,1-2.39,5.939L68.61,69.189a1.373,1.373,0,0,0,0,1.956,1.412,1.412,0,0,0,1.98,0L81.7,60.157A10.656,10.656,0,0,0,85,52.184V31.434A5.573,5.573,0,0,0,79.4,25.9ZM75.2,75.7H52.8a1.391,1.391,0,0,0-1.4,1.383v5.533a1.4,1.4,0,0,0,2.8,0v-4.15H73.8v4.15a1.4,1.4,0,0,0,2.8,0V77.083A1.392,1.392,0,0,0,75.2,75.7ZM55.143,9.7A7.033,7.033,0,0,1,59.4,13.909a1.4,1.4,0,0,0,1.319.921,1.428,1.428,0,0,0,.469-0.08,1.381,1.381,0,0,0,.851-1.766,9.709,9.709,0,0,0-5.961-5.9,1.408,1.408,0,0,0-1.788.841A1.38,1.38,0,0,0,55.143,9.7Z"/>
</svg>
