<?xml version="1.0" encoding="UTF-8"?>
<svg width="35px" height="36px" viewBox="0 0 35 36" version="1.1" xmlns="http://www.w3.org/2000/svg" xmlns:xlink="http://www.w3.org/1999/xlink">
    <!-- Generator: Sketch 51 (57462) - http://www.bohemiancoding.com/sketch -->
    <title>edit</title>
    <desc>Created with Sketch.</desc>
    <defs></defs>
    <g id="Page-1" stroke="none" stroke-width="1" fill="none" fill-rule="evenodd">
        <g id="edit" fill="#2C546C" fill-rule="nonzero">
            <path d="M26.66,4.83 L26.66,2.41 C26.6550944,2.32927649 26.5907235,2.26490561 26.51,2.26 L9.56,2.26 L9.56,7.15 C9.56,8.16 8.74,8.99 7.72,8.99 L2.6,8.99 L2.6,33.35 C2.6,33.44 2.67,33.51 2.75,33.51 L26.51,33.51 C26.59,33.51 26.66,33.44 26.66,33.35 L26.66,20.51 C26.66,20.0433194 27.0383194,19.665 27.505,19.665 C27.9716806,19.665 28.35,20.0433194 28.35,20.51 L28.35,33.35 C28.35,34.37 27.52,35.19 26.51,35.19 L2.75,35.19 C1.73379606,35.19 0.91,34.3662039 0.91,33.35 L0.91,8.15 C0.91,7.92 1.01,7.71 1.16,7.55 L8.13,0.82 C8.2875337,0.665647721 8.49945254,0.579443449 8.72,0.58 L26.51,0.58 C27.52,0.58 28.35,1.4 28.35,2.41 L28.35,4.83 C28.35,5.29668061 27.9716806,5.675 27.505,5.675 C27.0383194,5.675 26.66,5.29668061 26.66,4.83 Z M7.88,3.21 L3.78,7.31 L7.72,7.31 C7.81,7.31 7.88,7.24 7.88,7.15 L7.88,3.21 Z M33.98,11.2 L17.68,27.5 C17.58,27.6 17.46,27.67 17.32,27.71 L12.02,29.19 L11.8,29.21 L7.49,29.21 C7.02608081,29.21 6.65,28.8339192 6.65,28.37 C6.65,27.9060808 7.02608081,27.53 7.49,27.53 L11.16,27.53 L12.46,22.85 C12.49709,22.7106897 12.5694095,22.5832695 12.67,22.48 L12.69,22.47 L7.49,22.47 C7.02331939,22.47 6.645,22.0916806 6.645,21.625 C6.645,21.1583194 7.02331939,20.78 7.49,20.78 L14.37,20.78 L19.43,15.72 L7.49,15.72 C7.02608081,15.72 6.65,15.3439192 6.65,14.88 C6.65,14.4160808 7.02608081,14.04 7.49,14.04 L21.11,14.04 L28.96,6.18 C30.072936,5.06734483 31.877064,5.06734483 32.99,6.18 L33.98,7.18 C35.0860067,8.29178157 35.0860067,10.0882184 33.98,11.2 Z M15.48,26.48 L13.69,24.69 L13.01,27.16 L15.48,26.48 Z M30.54,12.26 L27.91,9.62 L14.46,23.08 L17.09,25.71 L30.54,12.26 Z M32.79,8.36 L31.79,7.37 C31.3370477,6.91731688 30.6029523,6.91731688 30.15,7.37 L29.09,8.43 L31.73,11.07 L32.79,10 C33.24,9.54 33.24,8.8 32.79,8.35 L32.79,8.36 Z" id="g9q5a"></path>
        </g>
    </g>
</svg>