<?xml version="1.0" encoding="iso-8859-1"?>
<!-- Generator: Adobe Illustrator 19.0.0, SVG Export Plug-In . SVG Version: 6.00 Build 0)  -->
<svg version="1.1" id="Capa_1" xmlns="http://www.w3.org/2000/svg" xmlns:xlink="http://www.w3.org/1999/xlink" x="0px" y="0px"
	 viewBox="0 0 512 512" style="enable-background:new 0 0 512 512;" xml:space="preserve">
<g>
	<g>
		<path d="M348.186,80.161h-20.041c-4.142,0-7.5,3.357-7.5,7.5s3.358,7.5,7.5,7.5h20.041c4.142,0,7.5-3.357,7.5-7.5
			S352.328,80.161,348.186,80.161z"/>
	</g>
</g>
<g>
	<g>
		<path d="M348.186,120.242h-20.041c-4.142,0-7.5,3.357-7.5,7.5s3.358,7.5,7.5,7.5h20.041c4.142,0,7.5-3.357,7.5-7.5
			S352.328,120.242,348.186,120.242z"/>
	</g>
</g>
<g>
	<g>
		<path d="M348.186,160.322h-20.041c-4.142,0-7.5,3.357-7.5,7.5s3.358,7.5,7.5,7.5h20.041c4.142,0,7.5-3.357,7.5-7.5
			S352.328,160.322,348.186,160.322z"/>
	</g>
</g>
<g>
	<g>
		<path d="M348.186,200.404h-20.041c-4.142,0-7.5,3.357-7.5,7.5s3.358,7.5,7.5,7.5h20.041c4.142,0,7.5-3.357,7.5-7.5
			S352.328,200.404,348.186,200.404z"/>
	</g>
</g>
<g>
	<g>
		<path d="M348.186,240.484h-20.041c-4.142,0-7.5,3.357-7.5,7.5s3.358,7.5,7.5,7.5h20.041c4.142,0,7.5-3.357,7.5-7.5
			S352.328,240.484,348.186,240.484z"/>
	</g>
</g>
<g>
	<g>
		<path d="M348.186,280.565h-20.041c-4.142,0-7.5,3.357-7.5,7.5s3.358,7.5,7.5,7.5h20.041c4.142,0,7.5-3.357,7.5-7.5
			S352.328,280.565,348.186,280.565z"/>
	</g>
</g>
<g>
	<g>
		<path d="M348.186,320.646h-20.041c-4.142,0-7.5,3.357-7.5,7.5s3.358,7.5,7.5,7.5h20.041c4.142,0,7.5-3.357,7.5-7.5
			S352.328,320.646,348.186,320.646z"/>
	</g>
</g>
<g>
	<g>
		<path d="M247.984,80.161h-88.177c-4.142,0-7.5,3.357-7.5,7.5s3.358,7.5,7.5,7.5h88.177c4.142,0,7.5-3.357,7.5-7.5
			S252.126,80.161,247.984,80.161z"/>
	</g>
</g>
<g>
	<g>
		<path d="M276.17,120.242H159.807c-4.142,0-7.5,3.357-7.5,7.5s3.358,7.5,7.5,7.5H276.17c4.142,0,7.5-3.357,7.5-7.5
			S280.312,120.242,276.17,120.242z"/>
	</g>
</g>
<g>
	<g>
		<path d="M223.936,160.322h-64.129c-4.142,0-7.5,3.357-7.5,7.5s3.358,7.5,7.5,7.5h64.129c4.142,0,7.5-3.357,7.5-7.5
			S228.078,160.322,223.936,160.322z"/>
	</g>
</g>
<g>
	<g>
		<path d="M247.984,200.404h-88.177c-4.142,0-7.5,3.357-7.5,7.5s3.358,7.5,7.5,7.5h88.177c4.142,0,7.5-3.357,7.5-7.5
			S252.126,200.404,247.984,200.404z"/>
	</g>
</g>
<g>
	<g>
		<path d="M280.049,240.484H159.807c-4.142,0-7.5,3.357-7.5,7.5s3.358,7.5,7.5,7.5h120.242c4.142,0,7.5-3.357,7.5-7.5
			S284.191,240.484,280.049,240.484z"/>
	</g>
</g>
<g>
	<g>
		<path d="M223.936,280.565h-64.129c-4.142,0-7.5,3.357-7.5,7.5s3.358,7.5,7.5,7.5h64.129c4.142,0,7.5-3.357,7.5-7.5
			S228.078,280.565,223.936,280.565z"/>
	</g>
</g>
<g>
	<g>
		<path d="M247.984,320.646h-88.177c-4.142,0-7.5,3.357-7.5,7.5s3.358,7.5,7.5,7.5h88.177c4.142,0,7.5-3.358,7.5-7.5
			C255.484,324.003,252.126,320.646,247.984,320.646z"/>
	</g>
</g>
<g>
	<g>
		<path d="M312.113,376.758H199.887c-4.142,0-7.5,3.357-7.5,7.5s3.358,7.5,7.5,7.5h112.226c4.142,0,7.5-3.357,7.5-7.5
			S316.255,376.758,312.113,376.758z"/>
	</g>
</g>
<g>
	<g>
		<path d="M288.065,416.839h-64.129c-4.142,0-7.5,3.357-7.5,7.5s3.358,7.5,7.5,7.5h64.129c4.142,0,7.5-3.357,7.5-7.5
			S292.207,416.839,288.065,416.839z"/>
	</g>
</g>
<g>
	<g>
		<path d="M403.986,0.974c-2.352-1.331-5.237-1.295-7.554,0.095l-23.039,13.824L347.769,0.916c-2.238-1.221-4.944-1.221-7.183,0
			l-25.801,14.073L288.984,0.916c-2.238-1.221-4.944-1.221-7.183,0L256,14.989L230.199,0.916c-2.238-1.221-4.944-1.221-7.183,0
			l-25.801,14.073L171.414,0.916c-2.238-1.221-4.944-1.221-7.183,0l-25.624,13.977L115.568,1.069
			c-2.317-1.391-5.203-1.426-7.554-0.095c-2.351,1.331-3.805,3.824-3.805,6.526v497c0,2.702,1.454,5.195,3.805,6.526
			c2.352,1.331,5.237,1.295,7.554-0.095l23.039-13.824l25.624,13.977c2.238,1.221,4.944,1.221,7.183,0l25.801-14.073l25.801,14.073
			c2.237,1.22,4.943,1.22,7.183,0L256,497.011l25.801,14.073c2.238,1.221,4.944,1.221,7.183,0l25.801-14.073l25.801,14.073
			c2.238,1.221,4.944,1.221,7.183,0l25.624-13.977l23.039,13.824c1.187,0.712,2.522,1.068,3.859,1.068
			c1.273,0,2.548-0.324,3.695-0.974c2.351-1.331,3.805-3.824,3.805-6.526V7.5C407.791,4.798,406.337,2.305,403.986,0.974z
			 M392.792,491.254L392.792,491.254l-15.363-9.218c-2.281-1.367-5.116-1.426-7.45-0.152l-25.801,14.073l-25.801-14.073
			c-2.239-1.221-4.945-1.221-7.183,0l-25.801,14.073l-25.801-14.073c-1.119-0.61-2.355-0.916-3.591-0.916
			c-1.236,0-2.472,0.306-3.591,0.916l-25.801,14.073l-25.801-14.073c-2.238-1.222-4.944-1.222-7.183,0l-25.801,14.073
			l-25.801-14.073c-2.334-1.274-5.169-1.216-7.45,0.152l-15.362,9.218V20.746l15.362,9.218c2.281,1.367,5.116,1.426,7.45,0.152
			l25.801-14.073l25.801,14.073c2.239,1.222,4.945,1.22,7.183,0l25.801-14.073l25.801,14.073c2.238,1.221,4.944,1.221,7.183,0
			l25.801-14.073l25.801,14.073c2.237,1.22,4.943,1.221,7.183,0l25.801-14.073l25.801,14.073c2.333,1.272,5.168,1.215,7.45-0.152
			l15.362-9.218V491.254z"/>
	</g>
</g>
<g>
</g>
<g>
</g>
<g>
</g>
<g>
</g>
<g>
</g>
<g>
</g>
<g>
</g>
<g>
</g>
<g>
</g>
<g>
</g>
<g>
</g>
<g>
</g>
<g>
</g>
<g>
</g>
<g>
</g>
</svg>
