<?xml version="1.0" encoding="UTF-8"?>
<svg width="34px" height="38px" viewBox="0 0 34 38" version="1.1" xmlns="http://www.w3.org/2000/svg" xmlns:xlink="http://www.w3.org/1999/xlink">
    <!-- Generator: Sketch 50.2 (55047) - http://www.bohemiancoding.com/sketch -->
    <title>enter-card-alt</title>
    <desc>Created with Sketch.</desc>
    <defs></defs>
    <g id="Page-1" stroke="none" stroke-width="1" fill="none" fill-rule="evenodd">
        <g id="enter-card-alt" fill="#0E3A63" fill-rule="nonzero">
            <path d="M4.1,22.9 C4.1,22.47 4.45,22.12 4.89,22.12 L9.4,22.12 C9.78823639,22.181968 10.0739048,22.5168492 10.0739048,22.91 C10.0739048,23.3031508 9.78823639,23.638032 9.4,23.7 L4.89,23.7 C4.67782681,23.7 4.47434368,23.6157145 4.32431458,23.4656854 C4.17428547,23.3156563 4.09,23.1121732 4.09,22.9 L4.1,22.9 Z M33.74,7.2 L33.74,30.76 C33.7346074,31.1940517 33.3840517,31.5446074 32.95,31.55 L7.65,31.55 L7.65,33.7 C7.65,35.765545 5.97554496,37.44 3.91,37.44 C1.84445504,37.44 0.17,35.765545 0.17,33.7 L0.17,4.26 C0.272887294,2.27225006 1.91458908,0.713326149 3.905,0.713326149 C5.89541092,0.713326149 7.53711271,2.27225006 7.64,4.26 L7.64,6.42 L32.95,6.42 C33.39,6.42 33.75,6.77 33.75,7.21 L33.74,7.2 Z M1.76,6.42 L6.06,6.42 L6.06,4.26 C6.06,3.07258779 5.09741221,2.11 3.91,2.11 C2.72258779,2.11 1.76,3.07258779 1.76,4.26 L1.76,6.42 Z M6.06,31.55 L1.76,31.55 L1.76,33.7 C1.76,34.8874122 2.72258779,35.85 3.91,35.85 C5.09741221,35.85 6.06,34.8874122 6.06,33.7 L6.06,31.55 Z M32.16,17.86 L1.76,17.86 L1.76,29.96 L32.16,29.96 L32.16,17.86 Z M32.16,13.22 L1.76,13.22 L1.76,16.28 L32.16,16.28 L32.16,13.22 Z M32.16,8 L1.76,8 L1.76,11.64 L32.16,11.64 L32.16,8 Z M4.1,26.83 C4.1,26.4 4.45,26.04 4.89,26.04 L13.33,26.04 C13.7347259,26.0854631 14.0406971,26.4277287 14.0406971,26.835 C14.0406971,27.2422713 13.7347259,27.5845369 13.33,27.63 L4.89,27.63 C4.4481722,27.63 4.09,27.2718278 4.09,26.83 L4.1,26.83 Z M12.53,22.91 C12.53,22.4681722 12.8881722,22.11 13.33,22.11 C13.7718278,22.11 14.13,22.4681722 14.13,22.91 C14.13,23.3518278 13.7718278,23.71 13.33,23.71 C12.8881722,23.71 12.53,23.3518278 12.53,22.91 Z" id="eib4a"></path>
        </g>
    </g>
</svg>