<?xml version="1.0" encoding="UTF-8"?>
<svg width="39px" height="39px" viewBox="0 0 39 39" version="1.1" xmlns="http://www.w3.org/2000/svg" xmlns:xlink="http://www.w3.org/1999/xlink">
    <!-- Generator: Sketch 50.2 (55047) - http://www.bohemiancoding.com/sketch -->
    <title>enter-card</title>
    <desc>Created with Sketch.</desc>
    <defs></defs>
    <g id="Page-1" stroke="none" stroke-width="1" fill="none" fill-rule="evenodd">
        <g id="enter-card" fill="#0F3860" fill-rule="nonzero">
            <path d="M11.69,11.32 C11.5855894,11.5401173 11.3636249,11.6803054 11.12,11.68 L9.22,11.68 L9.22,18.64 C9.22,18.99 8.93,19.27 8.58,19.27 L3.52,19.27 C3.35118775,19.2726799 3.18836374,19.20749 3.06804412,19.0890504 C2.94772449,18.9706108 2.87997873,18.8088335 2.88,18.64 L2.88,11.68 L0.98,11.68 C0.733926989,11.6852325 0.507339662,11.5466835 0.399854784,11.3252647 C0.292369905,11.1038458 0.323672224,10.8401077 0.48,10.65 L5.55,4.32 C5.8,4.02 6.3,4.02 6.55,4.32 L11.61,10.65 C11.76,10.84 11.79,11.1 11.69,11.32 Z M9.79,10.42 L6.05,5.73 L2.3,10.41 L3.52,10.41 C3.87,10.41 4.15,10.7 4.15,11.05 L4.15,18.01 L7.95,18.01 L7.95,11.05 C7.95,10.7 8.23,10.41 8.58,10.41 L9.79,10.42 Z M9.22,31.3 L9.22,33.83 C9.22,34.18 8.93,34.46 8.58,34.46 L3.52,34.46 C3.35118775,34.4626799 3.18836374,34.39749 3.06804412,34.2790504 C2.94772449,34.1606108 2.87997873,33.9988335 2.88,33.83 L2.88,31.3 C2.88,30.95 3.17,30.66 3.52,30.66 L8.58,30.66 C8.93,30.66 9.22,30.95 9.22,31.3 Z M7.95,31.93 L4.15,31.93 L4.15,33.19 L7.95,33.19 L7.95,31.93 Z M9.22,26.23 L9.22,28.76 C9.22,29.11 8.93,29.4 8.58,29.4 L3.52,29.4 C3.34943933,29.4027295 3.18506212,29.336178 3.06444207,29.2155579 C2.94382202,29.0949379 2.8772705,28.9305607 2.88,28.76 L2.88,26.23 C2.88,25.88 3.17,25.6 3.52,25.6 L8.58,25.6 C8.93,25.6 9.22,25.88 9.22,26.23 Z M7.95,26.87 L4.15,26.87 L4.15,28.13 L7.95,28.13 L7.95,26.87 Z M9.22,21.17 L9.22,23.7 C9.22,24.05 8.93,24.33 8.58,24.33 L3.52,24.33 C3.35118775,24.3326799 3.18836374,24.26749 3.06804412,24.1490504 C2.94772449,24.0306108 2.87997873,23.8688335 2.88,23.7 L2.88,21.17 C2.88,20.82 3.17,20.54 3.52,20.54 L8.58,20.54 C8.93,20.54 9.22,20.82 9.22,21.17 Z M7.95,21.8 L4.15,21.8 L4.15,23.07 L7.95,23.07 L7.95,21.8 Z M38.35,24.12 L38.35,38.26 L37.09,38.26 L37.09,24.12 C37.09,23.62 36.89,23.12 36.53,22.78 L32.65,18.9 L32.65,22.44 C32.65,22.74 32.57,23.04 32.43,23.3 L33.72,24.5 L32.86,25.43 L24.97,18.08 C24.6830152,17.807889 24.2943295,17.6698511 23.9,17.7 C23.5,17.73 23.15,17.92 22.9,18.23 C22.44,18.8 22.49,19.61 23,20.13 L26.14,23.25 L27.4,24.52 C27.6,24.72 27.64,25.02 27.51,25.27 C27.18,25.87 26.67,27.11 26.94,28.65 C27.3,30.65 28.76,31.75 29.2,32.03 L28.5,33.09 C27.0456232,32.1131868 26.0385272,30.598946 25.7,28.88 C25.4704226,27.5972608 25.6378851,26.2750051 26.18,25.09 L25.42,24.33 L18.09,24.33 C17.040659,24.33 16.19,23.479341 16.19,22.43 L16.19,9.15 C13.8587209,8.99326992 12.0478255,7.05654156 12.0478255,4.72 C12.0478255,2.38345844 13.8587209,0.446730078 16.19,0.29 L32.65,0.29 C34.9812791,0.446730078 36.7921745,2.38345844 36.7921745,4.72 C36.7921745,7.05654156 34.9812791,8.99326992 32.65,9.15 L32.65,17.11 L37.43,21.88 C38.03,22.48 38.36,23.28 38.36,24.12 L38.35,24.12 Z M31.39,5.35 L17.45,5.35 L17.45,22.44 C17.45,22.78 17.74,23.07 18.09,23.07 L24.16,23.07 L22.1,21.02 C21.3498086,20.2782025 21.1046233,19.1652869 21.4736435,18.1769171 C21.8426636,17.1885473 22.7572229,16.5086367 23.81,16.44 C24.5557909,16.385341 25.2908505,16.6424308 25.84,17.15 L31.39,22.33 L31.39,5.35 Z M32.65,4.72 L32.65,7.88 C34.3289479,7.78558917 35.6420253,6.39660029 35.6420253,4.715 C35.6420253,3.03339971 34.3289479,1.64441083 32.65,1.55 L16.19,1.55 C14.5110521,1.64441083 13.1979747,3.03339971 13.1979747,4.715 C13.1979747,6.39660029 14.5110521,7.78558917 16.19,7.88 L16.19,4.72 C16.19,4.37 16.47,4.08 16.82,4.08 L32.02,4.08 C32.37,4.08 32.65,4.37 32.65,4.72 Z M27.29,35.82 L26.61,36.89 C24.2587644,35.3825235 22.7460665,32.8638262 22.52,30.08 L23.78,29.98 C23.975178,32.3675441 25.2732374,34.5272782 27.29,35.82 Z M29.49,8.52 L29.49,11.05 C29.49,12.099341 28.639341,12.95 27.59,12.95 L26.32,12.95 C25.270659,12.95 24.42,12.099341 24.42,11.05 L24.42,8.51 C24.42,7.47 25.27,6.61 26.32,6.61 L27.59,6.61 C28.63,6.61 29.49,7.47 29.49,8.51 L29.49,8.52 Z M28.22,8.52 C28.2226799,8.35118775 28.15749,8.18836374 28.0390504,8.06804412 C27.9206108,7.94772449 27.7588335,7.87997873 27.59,7.88 L26.32,7.88 C25.9720606,7.88 25.69,8.16206061 25.69,8.51 L25.69,11.05 C25.69,11.39 25.97,11.68 26.32,11.68 L27.59,11.68 C27.94,11.68 28.22,11.39 28.22,11.05 L28.22,8.52 Z M19.35,6.62 L20.62,6.62 L20.62,9.78 L19.35,9.78 L19.35,6.62 Z M19.35,12.32 L20.62,12.32 L20.62,15.48 L19.35,15.48 L19.35,12.32 Z M19.35,18.01 L20.62,18.01 L20.62,21.81 L19.35,21.81 L19.35,18.01 Z" id="nuzla"></path>
        </g>
    </g>
</svg>