<?xml version="1.0" encoding="UTF-8"?>
<svg width="47px" height="41px" viewBox="0 0 47 41" version="1.1" xmlns="http://www.w3.org/2000/svg" xmlns:xlink="http://www.w3.org/1999/xlink">
    <!-- Generator: Sketch 50.2 (55047) - http://www.bohemiancoding.com/sketch -->
    <title>exclamation-triangle</title>
    <desc>Created with Sketch.</desc>
    <defs></defs>
    <g id="Page-1" stroke="none" stroke-width="1" fill="none" fill-rule="evenodd">
        <g id="exclamation-triangle" fill="#EF3636" fill-rule="nonzero">
            <path d="M46.43,38.85 C45.93,39.75 44.98,40.3 43.95,40.3 L3.05,40.3 C2.0223061,40.2952261 1.07618682,39.7394257 0.57165584,38.84409 C0.0671248611,37.9487543 0.0817629205,36.8515572 0.61,35.97 L21.05,2.08 C21.5674211,1.22084601 22.4970692,0.695499915 23.5,0.695499915 C24.5029308,0.695499915 25.4325789,1.22084601 25.95,2.08 L46.39,35.98 C46.93,36.85 46.94,37.95 46.43,38.85 Z M21.32,14.25 C21.32,17.84 21.74,22.99 21.74,26.57 C21.74,27.5 22.55,27.89 23.52,27.89 C24.24,27.89 25.26,27.5 25.26,26.57 C25.26,22.99 25.68,17.84 25.68,14.26 C25.68,13.09 24.69,12.42 23.52,12.42 C22.28,12.42 21.32,13.09 21.32,14.26 L21.32,14.25 Z M25.83,32.29 C25.8300003,31.468289 25.3916228,30.7089965 24.6800002,30.2981409 C23.9683776,29.8872853 23.0916224,29.8872853 22.3799998,30.2981409 C21.6683772,30.7089965 21.2299997,31.468289 21.23,32.29 C21.23,33.52 22.22,34.6 23.55,34.6 C24.8050847,34.5627707 25.8091795,33.5454642 25.83,32.29 Z" id="6rxaa"></path>
        </g>
    </g>
</svg>