<svg xmlns="http://www.w3.org/2000/svg" width="82" height="82" viewBox="0 0 82 82">
  <defs>
    <style>
      .cls-1 {
        fill: #022258;
        fill-rule: evenodd;
      }
    </style>
  </defs>
  <path class="cls-1" d="M6.161,42.29H39.71V24.226H6.161V42.29ZM8.742,26.807H37.129v12.9H8.742v-12.9Zm0,27.1h7.742V46.161H8.742V53.9Zm2.581-5.161H13.9v2.581H11.323V48.742ZM19.065,53.9h7.742V46.161H19.065V53.9Zm2.581-5.161h2.581v2.581H21.645V48.742ZM29.387,53.9h7.742V46.161H29.387V53.9Zm2.581-5.161h2.581v2.581H31.968V48.742ZM8.742,64.226h7.742V56.484H8.742v7.742Zm2.581-5.161H13.9v2.581H11.323V59.065Zm7.742,5.161h7.742V56.484H19.065v7.742Zm2.581-5.161h2.581v2.581H21.645V59.065Zm7.742,5.161h7.742V56.484H29.387v7.742Zm2.581-5.161h2.581v2.581H31.968V59.065ZM8.742,74.548h7.742V66.807H8.742v7.742Zm2.581-5.161H13.9v2.581H11.323V69.387Zm7.742,5.161h7.742V66.807H19.065v7.742Zm2.581-5.161h2.581v2.581H21.645V69.387Zm7.742,5.161h7.742V66.807H29.387v7.742Zm2.581-5.161h2.581v2.581H31.968V69.387Zm0-34.839h2.581v2.581H31.968V34.548Zm-10.323,0h7.742v2.581H21.645V34.548ZM13.9,8.742H31.968v2.581H13.9V8.742ZM29.387,13.9h2.581v2.581H29.387V13.9ZM65.516,24.911V19.065a3.876,3.876,0,0,0-3.871-3.871H44.871V13.9A5.167,5.167,0,0,0,39.71,8.742H37.129V1H8.742V8.742H6.161A5.166,5.166,0,0,0,1,13.9L1.006,54.032,3.237,76.354A5.146,5.146,0,0,0,8.374,81H37.5a5.146,5.146,0,0,0,5.136-4.648l1.853-18.578h7.206A25.4,25.4,0,0,0,55.61,76.21l0.874,1.31V81h2.581V76.738l-1.307-1.961a22.958,22.958,0,0,1-3.17-18.294l1.857-7.427,0.04-11.685a2.821,2.821,0,0,1,5.621-.351l2.272,18.174h3.584L69.427,42l-3.911-6.519V28.272l12.9,10.752V51.156L72.01,75.51,71.968,81h2.581V76.005l6.409-24.354L81,37.814ZM11.323,3.581H13.9V6.161h2.581V3.581h2.581V6.161h2.581V3.581h2.581V6.161h2.581V3.581h2.581V6.161h2.581V3.581h2.581V19.065H11.323V3.581ZM40.065,76.1A2.572,2.572,0,0,1,37.5,78.419H8.374A2.572,2.572,0,0,1,5.806,76.1L3.581,53.9v-40a2.584,2.584,0,0,1,2.581-2.581H8.742v7.742H6.161v2.581H39.71V19.065H37.129V11.323H39.71A2.585,2.585,0,0,1,42.29,13.9L42.3,53.774Zm22.871-42.7A5.385,5.385,0,0,0,53.9,37.37V48.583l-1.654,6.61H44.742l0.129-1.29V17.774H61.645a1.291,1.291,0,0,1,1.29,1.29V33.391Zm3.831,9.19-0.642,5.782-0.608-4.857V40.5Zm-16.734-11.9a5.092,5.092,0,0,0,2.581-.7,5.092,5.092,0,0,0,2.581.7,5.161,5.161,0,0,0,0-10.323,5.092,5.092,0,0,0-2.581.7,5.092,5.092,0,0,0-2.581-.7A5.161,5.161,0,1,0,50.032,30.677Zm0-7.742a2.572,2.572,0,0,1,1.717.672l0.863,0.778,0.863-.778a2.581,2.581,0,1,1,0,3.817l-0.863-.778-0.863.778A2.575,2.575,0,1,1,50.032,22.936ZM47.452,33.258h2.581V47.452H47.452V33.258Zm0,16.774h2.581v2.581H47.452V50.032Z"/>
</svg>
