<svg xmlns="http://www.w3.org/2000/svg" xmlns:xlink="http://www.w3.org/1999/xlink" version="1.1" x="0px" y="0px" viewBox="0 0 100 125" style="enable-background:new 0 0 100 100;" xml:space="preserve"><path d="M77.234375,35.53125C84.2734375,35.53125,90,29.8046875,90,22.765625S84.2734375,10,77.234375,10  S64.46875,15.7265625,64.46875,22.765625S70.1953125,35.53125,77.234375,35.53125z M77.234375,12  C83.1708984,12,88,16.8291016,88,22.765625S83.1708984,33.53125,77.234375,33.53125S66.46875,28.7021484,66.46875,22.765625  S71.2978516,12,77.234375,12z"/><path d="M72.6210938,23.171875h0.8598022c-0.2800293,1.9472046-0.7890015,4.0673218-1.6771851,5.3271484  c-0.2148438,0.3056641-0.2421875,0.7050781-0.0703125,1.0361328c0.171875,0.3320312,0.5146484,0.5400391,0.8876953,0.5400391  h8.1748047c0.5527344,0,1-0.4472656,1-1s-0.4472656-1-1-1h-6.5068359c0.6368408-1.5165405,1.0027466-3.3245239,1.2134399-4.9033203  h2.7494507c0.5527344,0,1-0.4472656,1-1s-0.4472656-1-1-1H75.706604c0.0751953-1.0384521,0.0811157-1.7566528,0.0814819-1.8466797  c0-1.3583984,1.1054688-2.4638672,2.4638672-2.4638672s2.4638672,1.1054688,2.4638672,2.4638672c0,0.5527344,0.4472656,1,1,1  s1-0.4472656,1-1c0-2.4609375-2.0029297-4.4638672-4.4638672-4.4638672s-4.4638672,2.0029297-4.4638672,4.4609375  c-0.0014648,0.4417114-0.0253906,1.09021-0.085144,1.8496094h-1.0818481c-0.5527344,0-1,0.4472656-1,1  S72.0683594,23.171875,72.6210938,23.171875z"/><path d="M11,90h78c0.5527344,0,1-0.4472656,1-1s-0.4472656-1-1-1h-0.7480469V41.5c0-0.5527344-0.4472656-1-1-1H67.0849609  c-0.5527344,0-1,0.4472656-1,1V88h-5.0019531V61.5c0-0.5527344-0.4472656-1-1-1H39.9169922c-0.5527344,0-1,0.4472656-1,1V88  h-5.1337891V41.5c0-0.5527344-0.4472656-1-1-1H12.6162109c-0.5527344,0-1,0.4472656-1,1V88H11c-0.5527344,0-1,0.4472656-1,1  S10.4472656,90,11,90z M68.0849609,42.5h18.1669922V88H68.0849609V42.5z M40.9169922,62.5h18.1660156V88H40.9169922V62.5z   M13.6162109,42.5h18.1669922V88H13.6162109V42.5z"/><path d="M15.3447266,21.8623047h0.7311401c-0.0174561,0.2205811-0.0309448,0.4425049-0.0309448,0.6679688  c0,0.331543,0.0256958,0.6559448,0.0630493,0.9765625h-0.7632446c-0.5527344,0-1,0.4472656-1,1s0.4472656,1,1,1h1.2484131  c1.06604,2.7703247,3.5723267,4.7207031,6.487915,4.7207031c2.1845703,0,4.2089844-1.0839844,5.5537109-2.9755859  c0.3193359-0.4501953,0.2138672-1.0742188-0.2363281-1.3945312c-0.4511719-0.3203125-1.0751953-0.2138672-1.3945312,0.2363281  c-0.9638672,1.3554688-2.3935547,2.1337891-3.9228516,2.1337891c-1.8121948,0-3.3988647-1.0917358-4.2860718-2.7207031h2.9140015  c0.5527344,0,1-0.4472656,1-1s-0.4472656-1-1-1h-3.5845947c-0.0488281-0.3179932-0.0794678-0.6430054-0.0794678-0.9765625  c0-0.2263184,0.0149536-0.4484863,0.0377197-0.6679688h3.6263428c0.5527344,0,1-0.4472656,1-1s-0.4472656-1-1-1h-3.0748291  c0.847168-1.8001099,2.5216064-3.0292969,4.4468994-3.0292969c1.5283203,0,2.9580078,0.7783203,3.9238281,2.1347656  c0.3193359,0.4482422,0.9443359,0.5546875,1.3945312,0.234375c0.4492188-0.3203125,0.5546875-0.9443359,0.234375-1.3945312  c-1.3447266-1.890625-3.3691406-2.9746094-5.5527344-2.9746094c-3.0214844,0-5.5964966,2.0981445-6.5913696,5.0292969h-1.1449585  c-0.5527344,0-1,0.4472656-1,1S14.7919922,21.8623047,15.3447266,21.8623047z"/><path d="M22.765625,35.5c7.0390625,0,12.765625-5.7197266,12.765625-12.75S29.8046875,10,22.765625,10S10,15.7197266,10,22.75  S15.7265625,35.5,22.765625,35.5z M22.765625,12c5.9365234,0,10.765625,4.8222656,10.765625,10.75S28.7021484,33.5,22.765625,33.5  S12,28.6777344,12,22.75S16.8291016,12,22.765625,12z"/><path d="M49.9345703,43.5458984h0.1308594c1.234375,0,2.2392578,0.9990234,2.2392578,2.2275391  s-1.0048828,2.2275391-2.2392578,2.2275391s-2.2382812-0.9990234-2.2382812-2.2275391c0-0.5527344-0.4472656-1-1-1s-1,0.4472656-1,1  c0,1.9378662,1.3215332,3.5579834,3.1074219,4.0552979v0.5755615c0,0.5527344,0.4472656,1,1,1s1-0.4472656,1-1v-0.4942627  c1.921936-0.4011841,3.3701172-2.1027222,3.3701172-4.1365967c0-2.3310547-1.9013672-4.2275391-4.2392578-4.2275391h-0.1308594  c-1.234375,0-2.2392578-0.9990234-2.2392578-2.2275391s1.0048828-2.2275391,2.2392578-2.2275391  s2.2382812,0.9990234,2.2382812,2.2275391c0,0.5527344,0.4472656,1,1,1s1-0.4472656,1-1  c0-1.9858398-1.3847046-3.6446533-3.2382812-4.0958862V34.6875c0-0.5527344-0.4472656-1-1-1s-1,0.4472656-1,1v0.5348511  c-1.8543091,0.4511108-3.2392578,2.1100464-3.2392578,4.0960083C45.6953125,41.6494141,47.5966797,43.5458984,49.9345703,43.5458984  z"/><path d="M50,55.53125c7.0390625,0,12.765625-5.7265625,12.765625-12.765625S57.0390625,30,50,30  s-12.765625,5.7265625-12.765625,12.765625S42.9609375,55.53125,50,55.53125z M50,32  c5.9365234,0,10.765625,4.8291016,10.765625,10.765625S55.9365234,53.53125,50,53.53125s-10.765625-4.8291016-10.765625-10.765625  S44.0634766,32,50,32z"/><text x="0" y="115" fill="#000000" font-size="5px" font-weight="bold" font-family="'Helvetica Neue', Helvetica, Arial-Unicode, Arial, Sans-serif">Created by Made x Made</text><text x="0" y="120" fill="#000000" font-size="5px" font-weight="bold" font-family="'Helvetica Neue', Helvetica, Arial-Unicode, Arial, Sans-serif">from the Noun Project</text></svg>