<svg id="Capa_1" data-name="Capa 1" xmlns="http://www.w3.org/2000/svg" viewBox="0 0 120 67"><defs><style>.cls-1{fill:#022258;}</style></defs><title>ריהוט וציוד</title><path class="cls-1" d="M114.05,18.34h-2.38V9.49A9.51,9.51,0,0,0,102.17,0H67.74A9.48,9.48,0,0,0,60,4a9.48,9.48,0,0,0-7.74-4H30.63a1.76,1.76,0,1,0,0,3.51H52.26a6,6,0,0,1,6,6V27.05l-.11-.11a11.49,11.49,0,0,0-7.76-3.05H21.09a6,6,0,0,0-4-5.22,5.92,5.92,0,0,0-1.95-.33H11.85V9.49a6,6,0,0,1,6-6H23.6A1.76,1.76,0,1,0,23.6,0H17.83a9.51,9.51,0,0,0-9.5,9.49v8.85H6A6,6,0,0,0,0,24.28V42.61A12.4,12.4,0,0,0,12.39,55h.88l-1.93,5.17A5.13,5.13,0,0,0,16.11,67h2.82A5.12,5.12,0,0,0,23,65l7.58-10H89.44L97,65a5.12,5.12,0,0,0,4.06,2h2.82a5.13,5.13,0,0,0,4.77-6.85L106.73,55h.88A12.4,12.4,0,0,0,120,42.61V24.28A6,6,0,0,0,114.05,18.34ZM67.74,3.51h34.43a6,6,0,0,1,6,6v8.85h-3.31A6.08,6.08,0,0,0,99.36,22a5.62,5.62,0,0,0-.45,1.9H69.63a11.52,11.52,0,0,0-7.87,3.16V9.49A6,6,0,0,1,67.74,3.51Zm-9.5,31.75v2.49H21.1V27.4H50.37A7.87,7.87,0,0,1,58.24,35.26ZM20.18,62.87a1.56,1.56,0,0,1-1.25.62H16.11a1.57,1.57,0,0,1-1.47-2.11L17,55h9.14Zm85.18-1.49a1.57,1.57,0,0,1-1.47,2.11h-2.82a1.56,1.56,0,0,1-1.25-.62l-6-7.89H103Zm11.12-18.77a8.87,8.87,0,0,1-8.87,8.86H12.39a8.87,8.87,0,0,1-8.87-8.86V24.28A2.43,2.43,0,0,1,6,21.85h9.21a2.43,2.43,0,0,1,2.43,2.43V39.51a1.76,1.76,0,0,0,1.76,1.76H83.91a1.76,1.76,0,1,0,0-3.52H61.76V35.26a7.87,7.87,0,0,1,7.87-7.86H98.9V37.76h-8a1.76,1.76,0,1,0,0,3.51h9.71a1.76,1.76,0,0,0,1.76-1.76V24.28a2.43,2.43,0,0,1,2.43-2.43h9.21a2.43,2.43,0,0,1,2.43,2.43V42.61Z"/></svg>