<?xml version="1.0" encoding="UTF-8"?>
<svg width="54px" height="54px" viewBox="0 0 54 54" version="1.1" xmlns="http://www.w3.org/2000/svg" xmlns:xlink="http://www.w3.org/1999/xlink">
    <!-- Generator: Sketch 50.2 (55047) - http://www.bohemiancoding.com/sketch -->
    <title>gear</title>
    <desc>Created with Sketch.</desc>
    <defs></defs>
    <g id="Page-1" stroke="none" stroke-width="1" fill="none" fill-rule="evenodd">
        <g id="gear" fill="#45B7EC" fill-rule="nonzero">
            <path d="M42.3,27 C42.29,35.42 35.42,42.29 27,42.3 C18.57,42.3 11.7,35.43 11.7,27 C11.7,18.57 18.57,11.7 27,11.7 C35.43,11.7 42.3,18.57 42.3,27 Z M26.27,28.78 L25.99,28.69 C25.31,28.49 24.72,28.09 24.24,27.51 L23.9,27.19 L23.24,26.59 L23.24,40.33 L23.54,40.4 C24.28,40.6 25.06,40.72 25.84,40.79 L26.27,40.83 L26.27,28.78 Z M27,27.39 C27.81,27.39 28.18,27.03 28.72,26.49 L28.75,26.46 C29,26.16 29.29,25.9 29.62,25.7 L29.92,25.5 L28.23,22.12 L25.77,22.12 L24.07,25.51 L24.37,25.7 C24.71,25.9 25,26.16 25.27,26.49 C25.85,27.06 26.22,27.39 27,27.39 Z M30.75,26.59 L30.1,27.19 L29.73,27.54 C29.28,28.09 28.68,28.48 28,28.69 L27.73,28.78 L27.73,40.82 L28.15,40.79 C28.94,40.72 29.71,40.59 30.45,40.4 L30.75,40.33 L30.75,26.59 Z M40.84,26.99 C40.83,19.38 34.62,13.17 27,13.16 C20.5065282,13.1811596 14.899558,17.7108311 13.5140644,24.054807 C12.1285708,30.398783 15.3365812,36.8536035 21.23,39.58 L21.79,39.84 L21.79,27 C21.79,26.89 21.81,26.77 21.86,26.67 L26.33,17.74 C26.4341129,17.5601401 26.6065074,17.4300014 26.808011,17.3791547 C27.0095145,17.328308 27.2230152,17.3610713 27.4,17.47 C27.5,17.53 27.6,17.63 27.65,17.71 L32.13,26.67 C32.18,26.77 32.21,26.89 32.21,27 L32.21,39.84 L32.77,39.58 C37.6807784,37.3165822 40.8300668,32.4072826 40.84,27 L40.84,26.99 Z M52.96,22.33 C53.31,22.68 53.5,23.14 53.5,23.63 L53.5,30.36 C53.5,31.38 52.67,32.21 51.65,32.21 L47.23,32.21 L47.15,32.5 C46.6849836,34.1957593 46.0062054,35.8254988 45.13,37.35 L44.98,37.61 L48.11,40.75 C48.4574735,41.0953809 48.6528589,41.5650757 48.6528589,42.055 C48.6528589,42.5449243 48.4574735,43.0146191 48.11,43.36 L43.36,48.12 C42.64,48.84 41.46,48.84 40.75,48.12 L37.61,44.98 L37.35,45.13 C35.8255468,46.0063028 34.1957945,46.6850862 32.5,47.15 L32.2,47.23 L32.2,51.65 C32.2,52.67 31.38,53.5 30.36,53.5 L23.64,53.5 C22.6182732,53.5 21.79,52.6717268 21.79,51.65 L21.79,47.23 L21.5,47.15 C19.8007924,46.6857821 18.1676461,46.0069847 16.64,45.13 L16.38,44.98 L13.25,48.12 C12.53,48.84 11.35,48.84 10.64,48.12 L5.88,43.36 C5.53252652,43.0146191 5.33714109,42.5449243 5.33714109,42.055 C5.33714109,41.5650757 5.53252652,41.0953809 5.88,40.75 L9.02,37.61 L8.87,37.35 C7.99340467,35.8256911 7.3146053,34.1959006 6.85,32.5 L6.77,32.2 L2.35,32.2 C1.33216575,32.2000149 0.505501807,31.3778194 0.5,30.36 L0.5,23.64 C0.5,22.62 1.33,21.79 2.35,21.79 L6.77,21.79 L6.85,21.5 C7.3146053,19.8040994 7.99340467,18.1743089 8.87,16.65 L9.02,16.38 L5.88,13.25 C5.53252652,12.9046191 5.33714109,12.4349243 5.33714109,11.945 C5.33714109,11.4550757 5.53252652,10.9853809 5.88,10.64 L10.64,5.88 C11.36,5.16 12.54,5.16 13.25,5.88 L16.38,9.02 L16.64,8.87 C18.167598,7.99291762 19.8007571,7.31411486 21.5,6.85 L21.79,6.77 L21.79,2.35 C21.79,1.33 22.62,0.5 23.64,0.5 L30.36,0.5 C31.38,0.5 32.21,1.33 32.21,2.35 L32.21,6.77 L32.5,6.85 C34.2,7.31 35.83,7.99 37.35,8.87 L37.61,9.02 L40.75,5.88 C41.47,5.16 42.64,5.16 43.36,5.88 L48.11,10.64 C48.4574735,10.9853809 48.6528589,11.4550757 48.6528589,11.945 C48.6528589,12.4349243 48.4574735,12.9046191 48.11,13.25 L44.98,16.38 L45.13,16.65 C46.0064977,18.174357 46.6852918,19.8041348 47.15,21.5 L47.23,21.79 L51.65,21.79 C52.15,21.79 52.61,21.99 52.95,22.33 L52.96,22.33 Z M52.04,23.25 L46.65,23.25 C46.3117399,23.2480248 46.0204663,23.0108448 45.95,22.68 C45.4648032,20.5489792 44.6193221,18.5164429 43.45,16.67 C43.2668962,16.3839621 43.3085734,16.0088679 43.55,15.77 L47.36,11.95 L42.06,6.64 L38.24,10.45 C38.0011321,10.6914266 37.6260379,10.7331038 37.34,10.55 C35.4904951,9.37963298 33.4544925,8.53411696 31.32,8.05 C30.9891552,7.97953371 30.7519752,7.68826009 30.75,7.35 L30.75,1.95 L23.25,1.95 L23.25,7.35 C23.25,7.69 23.01,7.98 22.68,8.05 C20.5455075,8.53411696 18.5095049,9.37963298 16.66,10.55 C16.3739621,10.7331038 15.9988679,10.6914266 15.76,10.45 L11.94,6.64 L6.64,11.94 L10.45,15.76 C10.69,16 10.74,16.38 10.55,16.66 C9.37963298,18.5095049 8.53411696,20.5455075 8.05,22.68 C7.9761908,23.008789 7.68692414,23.2443347 7.35,23.25 L1.95,23.25 L1.95,30.75 L7.35,30.75 C7.69,30.75 7.98,30.99 8.05,31.32 C8.53425833,33.4513203 9.3798038,35.4840116 10.55,37.33 C10.74,37.63 10.69,37.99 10.45,38.23 L6.63,42.05 L11.94,47.36 L15.76,43.55 C16.0022113,43.315579 16.372238,43.2744649 16.66,43.45 C18.5099577,44.6194948 20.5458058,45.4649467 22.68,45.95 C23.01,46.02 23.24,46.31 23.24,46.65 L23.24,52.05 L30.75,52.05 L30.75,46.65 C30.75,46.31 30.99,46.02 31.32,45.95 C33.4510208,45.4648032 35.4835571,44.6193221 37.33,43.45 C37.6160379,43.2668962 37.9911321,43.3085734 38.23,43.55 L42.05,47.36 L47.36,42.06 L43.55,38.24 C43.3085734,38.0011321 43.2668962,37.6260379 43.45,37.34 C44.6208926,35.490768 45.4664473,33.4546722 45.95,31.32 C46.0238092,30.991211 46.3130759,30.7556653 46.65,30.75 L52.05,30.75 L52.04,23.25 Z" id="lftfa"></path>
        </g>
    </g>
</svg>