<?xml version="1.0" encoding="UTF-8"?>
<svg width="34px" height="34px" viewBox="0 0 34 34" version="1.1" xmlns="http://www.w3.org/2000/svg" xmlns:xlink="http://www.w3.org/1999/xlink">
    <!-- Generator: Sketch 50.2 (55047) - http://www.bohemiancoding.com/sketch -->
    <title>globe</title>
    <desc>Created with Sketch.</desc>
    <defs></defs>
    <g id="Page-1" stroke="none" stroke-width="1" fill="none" fill-rule="evenodd">
        <g id="globe" fill="#0F3860" fill-rule="nonzero">
            <path d="M34,17 C34,26.37 26.37,34 17,34 C7.63,34 0,26.37 0,17 C0,7.63 7.63,0 17,0 C26.37,0 34,7.63 34,17 Z M6.41,6.7 C7.24,7.18 8.15,7.6 9.14,7.96 C9.69,6.34 10.44,4.69 11.47,3.29 C9.56621597,4.06095101 7.84319979,5.21870892 6.41,6.69 L6.41,6.7 Z M2.26,15.9 L7.78,15.9 C7.85,13.87 8.11,11.91 8.54,10.1 C7.29130078,9.67008607 6.09401361,9.10330307 4.97,8.41 C3.39630447,10.6068434 2.45862754,13.1949702 2.26,15.89 L2.26,15.9 Z M8.54,23.9 C8.09617263,21.996432 7.84160156,20.0536528 7.78,18.1 L2.26,18.1 C2.45682094,20.798489 3.39458224,23.390309 4.97,25.59 C6.09413082,24.8969128 7.29139347,24.3301414 8.54,23.9 Z M11.47,30.71 C10.4608471,29.2805925 9.67518003,27.7058865 9.14,26.04 C8.15,26.39 7.24,26.82 6.41,27.31 C7.84301261,28.7815155 9.56607891,29.9393071 11.47,30.71 Z M15.89,24.78 C14.3334198,24.8420368 12.7863579,25.0529997 11.27,25.41 C12.06,27.73 13.6,30.74 15.89,31.58 L15.89,24.78 Z M15.89,22.57 L15.89,18.11 L9.99,18.11 C10.06,19.91 10.29,21.66 10.66,23.28 C12.31,22.88 14.07,22.64 15.89,22.57 Z M15.89,11.43 C14.1277806,11.3705172 12.3758362,11.1360313 10.66,10.73 C10.29,12.33 10.06,14.08 10,15.89 L15.9,15.89 L15.89,11.43 Z M15.89,2.43 C13.6,3.26 12.06,6.27 11.27,8.59 C12.72,8.94 14.27,9.15 15.89,9.22 L15.89,2.43 Z M25.46,10.09 C25.89,11.91 26.15,13.87 26.22,15.89 L31.74,15.89 C31.5413725,13.1949702 30.6036955,10.6068434 29.03,8.41 C27.9055033,9.0997685 26.7082402,9.66318646 25.46,10.09 Z M22.53,3.29 C23.5391529,4.71940749 24.32482,6.29411353 24.86,7.96 C25.85,7.61 26.76,7.18 27.59,6.69 C26.1569874,5.21848448 24.4339211,4.0606929 22.53,3.29 Z M18.11,2.42 L18.11,9.22 C19.6665802,9.15796325 21.2136421,8.94700025 22.73,8.59 C21.94,6.27 20.4,3.26 18.11,2.42 Z M18.11,15.89 L24.01,15.89 C23.94,14.09 23.71,12.34 23.34,10.72 C21.69,11.12 19.93,11.36 18.11,11.43 L18.11,15.89 Z M18.11,22.57 C19.93,22.64 21.69,22.87 23.34,23.27 C23.71,21.67 23.94,19.91 24,18.1 L18.1,18.1 L18.11,22.57 Z M22.73,25.41 C21.28,25.06 19.73,24.85 18.11,24.78 L18.11,31.58 C20.4,30.74 21.94,27.73 22.73,25.41 Z M27.59,27.31 C26.7225034,26.8007266 25.8083536,26.3754628 24.86,26.04 C24.32482,27.7058865 23.5391529,29.2805925 22.53,30.71 C24.4339211,29.9393071 26.1569874,28.7815155 27.59,27.31 Z M31.74,18.11 L26.22,18.11 C26.1576843,20.0635948 25.9031224,22.006304 25.46,23.91 C26.76,24.36 27.96,24.92 29.03,25.59 C30.6044935,23.3898228 31.5421577,20.7982712 31.74,18.1 L31.74,18.11 Z" id="qc1ua"></path>
        </g>
    </g>
</svg>