<?xml version="1.0" encoding="UTF-8"?>
<svg width="35px" height="30px" viewBox="0 0 35 30" version="1.1" xmlns="http://www.w3.org/2000/svg" xmlns:xlink="http://www.w3.org/1999/xlink">
    <!-- Generator: Sketch 50.2 (55047) - http://www.bohemiancoding.com/sketch -->
    <title>graph-alt</title>
    <desc>Created with Sketch.</desc>
    <defs></defs>
    <g id="Page-1" stroke="none" stroke-width="1" fill="none" fill-rule="evenodd">
        <g id="graph-alt" fill="#0F3860" fill-rule="nonzero">
            <path d="M34.47,28.96 C34.47,29.33 34.17,29.63 33.8,29.63 L1.47,29.63 C1.09996922,29.63 0.8,29.3300308 0.8,28.96 L0.8,0.97 C0.8,0.599969218 1.09996922,0.3 1.47,0.3 C1.84003078,0.3 2.14,0.599969218 2.14,0.97 L2.14,28.29 L3.66,28.29 L3.66,22.79 C3.66,22.43 3.96,22.13 4.33,22.13 L11.16,22.13 C11.53,22.13 11.83,22.43 11.83,22.8 L11.83,28.3 L13.38,28.3 L13.38,12.18 C13.38,11.81 13.68,11.51 14.05,11.51 L20.89,11.51 C21.26,11.51 21.56,11.81 21.56,12.18 L21.56,28.29 L23.11,28.29 L23.11,2.29 C23.11,1.92 23.41,1.62 23.78,1.62 L30.61,1.62 C30.98,1.62 31.28,1.92 31.28,2.29 L31.28,28.29 L33.8,28.29 C34.17,28.29 34.47,28.59 34.47,28.96 Z M10.49,28.29 L10.49,23.47 L5,23.47 L5,28.29 L10.49,28.29 Z M20.22,12.85 L14.72,12.85 L14.72,28.29 L20.22,28.29 L20.22,12.85 Z M29.94,2.96 L24.45,2.96 L24.45,28.29 L29.95,28.29 L29.94,2.96 Z" id="tebra"></path>
        </g>
    </g>
</svg>