<?xml version="1.0" encoding="UTF-8"?>
<svg width="48px" height="56px" viewBox="0 0 48 56" version="1.1" xmlns="http://www.w3.org/2000/svg" xmlns:xlink="http://www.w3.org/1999/xlink">
    <!-- Generator: Sketch 50.2 (55047) - http://www.bohemiancoding.com/sketch -->
    <title>financialManagement</title>
    <desc>Created with Sketch.</desc>
    <defs></defs>
    <g id="Page-1" stroke="none" stroke-width="1" fill="none" fill-rule="evenodd">
        <g id="financialManagement" fill="#45B7EC" fill-rule="nonzero">
            <path d="M24.78,28.11 L24.78,48.4 C24.78,48.86 24.41,49.23 23.95,49.23 L19.58,49.23 C19.1199582,49.2300326 18.7454767,48.8600092 18.74,48.4 L18.74,28.1 C18.74,27.64 19.12,27.27 19.58,27.27 L23.95,27.27 C24.41,27.27 24.78,27.64 24.78,28.1 L24.78,28.11 Z M23.11,28.95 L20.41,28.95 L20.41,47.56 L23.11,47.56 L23.11,28.95 Z M7.07,40.33 L7.07,48.28 C7.07,48.74 6.7,49.12 6.24,49.12 L1.87,49.12 C1.64639819,49.1227106 1.43116236,49.0350816 1.27304039,48.8769596 C1.11491842,48.7188376 1.02728938,48.5036018 1.03,48.28 L1.03,40.33 C1.03,39.87 1.41,39.49 1.87,39.49 L6.24,39.49 C6.7,39.49 7.07,39.87 7.07,40.33 Z M5.41,41.16 L2.71,41.16 L2.71,47.56 L5.41,47.56 L5.41,41.16 Z M1.55,33.58 C1.39370789,33.7362339 1.18097189,33.8227706 0.96,33.82 C0.73557974,33.8255023 0.518716543,33.738757 0.36,33.58 C0.206822323,33.4298564 0.12035266,33.224491 0.12,33.01 C0.12,32.78 0.21,32.57 0.37,32.41 L21.88,10.91 C22.0383239,10.7590973 22.2515283,10.6795973 22.47,10.69 L22.49,10.69 C22.71,10.69 22.93,10.76 23.07,10.89 L27.53,15.31 L40.38,2.51 L34.7,2.51 C34.4796601,2.50949497 34.2681261,2.42344723 34.11,2.27 C33.9491879,2.11264668 33.8620694,1.89485038 33.87,1.67 C33.87,1.46 33.97,1.25 34.13,1.09 C34.2873533,0.929187938 34.5051496,0.842069418 34.73,0.85 L42.39,0.84 C42.84,0.84 43.22,1.23 43.22,1.68 L43.21,9.38 C43.21,9.85 42.84,10.23 42.38,10.24 C41.9112671,10.2238273 41.5397211,9.83901172 41.54,9.37 L41.55,3.69 L28.13,17.13 C27.9712446,17.2925002 27.7569086,17.3889514 27.53,17.4 C27.3053683,17.3915561 27.0932277,17.2944748 26.94,17.13 L22.49,12.64 L1.55,33.58 Z M47.1,44.84 C47.1076946,49.5256761 44.1038635,53.6858957 39.6537361,55.1528607 C35.2036088,56.6198258 30.3146599,55.0614267 27.5344122,51.2897107 C24.7541644,47.5179946 24.7120444,42.3868491 27.43,38.57 L27.49,38.49 L27.49,21.67 C27.49,21.22 27.85,20.89 28.33,20.89 L32.67,20.89 C33.15,20.89 33.53,21.23 33.53,21.67 L33.53,34.37 L33.88,34.29 C34.53,34.13 35.23,34.04 35.95,34.01 L36.23,34.01 L36.23,15.81 C36.23,15.33 36.68,15.06 37.1,15.06 L41.43,15.06 C41.92,15.06 42.27,15.38 42.27,15.82 L42.27,35.82 L42.39,35.9 C45.3354166,37.9222958 47.0939053,41.2671658 47.09,44.84 L47.1,44.84 Z M37.9,34.14 L38.14,34.18 C38.83,34.28 39.52,34.48 40.21,34.74 L40.6,34.9 L40.6,16.73 L37.9,16.73 L37.9,34.14 Z M29.15,36.64 L29.61,36.29 C30.24,35.8 30.94,35.39 31.69,35.04 L31.86,34.96 L31.86,22.56 L29.16,22.56 L29.15,36.64 Z M44.15,49.49 C45.3953169,47.4062004 45.7553952,44.9108576 45.15,42.56 C44.1977995,38.7625604 40.923509,35.9997518 37.02,35.7 L37,35.7 C35.6973765,35.5905041 34.3865884,35.7680066 33.16,36.22 L33.12,36.25 C33.02,36.31 32.92,36.35 32.85,36.35 L32.81,36.36 L32.78,36.37 C29.0857816,37.884653 26.7982061,41.6176662 27.1258083,45.5968747 C27.4534105,49.5760831 30.320713,52.8847031 34.212909,53.7747781 C38.105105,54.6648531 42.1254579,52.9313155 44.15,49.49 Z M15.93,30.69 L15.93,48.29 C15.93,48.74 15.55,49.12 15.09,49.12 L10.72,49.12 C10.4981267,49.1200161 10.2854832,49.0311985 10.1295374,48.8733738 C9.97359148,48.7155491 9.88732683,48.5018572 9.89,48.28 L9.89,30.68 C9.89,30.23 10.26,29.86 10.72,29.86 L15.09,29.86 C15.55,29.86 15.93,30.23 15.93,30.69 Z M14.26,31.52 L11.56,31.52 L11.56,47.56 L14.26,47.56 L14.26,31.52 Z M41.93,41.1 C42.26,41.44 42.26,41.98 41.93,42.32 L34.57,49.68 L30.64,45.75 C30.3031063,45.4131063 30.3031063,44.8668937 30.64,44.53 C30.9768937,44.1931063 31.5231063,44.1931063 31.86,44.53 L34.57,47.25 L40.71,41.1 C40.8714323,40.9375605 41.0909869,40.8462178 41.32,40.8462178 C41.5490131,40.8462178 41.7685677,40.9375605 41.93,41.1 Z" id="vkr9a"></path>
        </g>
    </g>
</svg>