<svg xmlns="http://www.w3.org/2000/svg" width="66" height="66" viewBox="0 0 66 66">
  <defs>
    <style>
      .cls-1 {
        fill: #229f88;
        fill-rule: evenodd;
      }
    </style>
  </defs>
  <path id="ירוק_copy_2" data-name="ירוק copy 2" class="cls-1" d="M33.3,65.947a32.141,32.141,0,0,1-22.944-9.609,33.15,33.15,0,0,1,0-46.467,32.162,32.162,0,0,1,45.889,0,33.15,33.15,0,0,1,0,46.467A32.141,32.141,0,0,1,33.3,65.947Zm0-63.709a30.088,30.088,0,0,0-21.554,9.041,31.141,31.141,0,0,0,0,43.652,30.249,30.249,0,0,0,43.108,0,31.141,31.141,0,0,0,0-43.651A30.088,30.088,0,0,0,33.3,2.238ZM55.549,56.631a0.981,0.981,0,0,1-.7-0.291L32.6,33.808a1.009,1.009,0,0,1-.287-0.7V1.243a0.983,0.983,0,1,1,1.967,0v31.45L56.245,54.931a1,1,0,0,1,0,1.408A0.976,0.976,0,0,1,55.549,56.631ZM33.3,34.1a0.981,0.981,0,0,1-.7-0.291,1,1,0,0,1,0-1.408L54.849,9.877a0.975,0.975,0,0,1,1.39,0,1,1,0,0,1,0,1.408L34,33.808A0.968,0.968,0,0,1,33.3,34.1Zm7.866,7.966a0.982,0.982,0,0,1-.7-0.291,1,1,0,0,1,0-1.408l20.28-20.535a0.975,0.975,0,0,1,1.39,0,1,1,0,0,1,0,1.408L41.864,41.774A0.976,0.976,0,0,1,41.167,42.066Zm7.974,8.073a0.981,0.981,0,0,1-.7-0.291,1.006,1.006,0,0,1,0-1.408L63.919,32.772a0.975,0.975,0,0,1,1.39,0,1,1,0,0,1,0,1.408L49.836,49.849A0.965,0.965,0,0,1,49.142,50.139ZM33.3,18.193a0.981,0.981,0,0,1-.7-0.291,1,1,0,0,1,0-1.408L45.474,3.463a0.976,0.976,0,0,1,1.39,0,1.006,1.006,0,0,1,0,1.408L34,17.9A0.974,0.974,0,0,1,33.3,18.193Z"/>
</svg>
