<svg id="Layer_1" data-name="Layer 1" xmlns="http://www.w3.org/2000/svg" viewBox="0 0 70 75"><defs><style>.cls-1{fill:#1c2756;}.cls-2{fill:none;}</style></defs><title>מס הכנסה ניכויים</title><path class="cls-1" d="M5.72,44.16A1.25,1.25,0,0,0,7,45.4h7.49a1.25,1.25,0,0,0,0-2.49H7a1.25,1.25,0,0,0-1.25,1.25Zm0,0" transform="translate(0)"/><path class="cls-1" d="M47.44,13.77V7.54a1.25,1.25,0,1,0-2.5,0v6.23A6.25,6.25,0,0,0,51.18,20H62.42V43.67a1.25,1.25,0,1,0,2.49,0V18.75a1.24,1.24,0,0,0-1.24-1.25H51.18a3.74,3.74,0,0,1-3.74-3.73Zm0,0" transform="translate(0)"/><path class="cls-1" d="M7,28a1.25,1.25,0,1,0,0,2.49H17A1.25,1.25,0,1,0,17,28Zm0,0" transform="translate(0)"/><path class="cls-1" d="M20.7,29.2A1.25,1.25,0,0,0,22,30.45h7.49a1.25,1.25,0,0,0,0-2.49H22A1.25,1.25,0,0,0,20.7,29.2Zm0,0" transform="translate(0)"/><path class="cls-1" d="M26.94,35.43a1.25,1.25,0,0,0,0,2.5h2.5a1.25,1.25,0,0,0,0-2.5Zm2.5,0" transform="translate(0)"/><path class="cls-1" d="M29.44,23a1.25,1.25,0,0,0,0-2.49H17A1.25,1.25,0,1,0,17,23Zm0,0" transform="translate(0)"/><path class="cls-1" d="M22,37.93a1.25,1.25,0,0,0,0-2.5H9.46a1.25,1.25,0,0,0,0,2.5Zm0,0" transform="translate(0)"/><path class="cls-1" d="M12,50.39a1.25,1.25,0,1,0,0,2.49h2.5a1.25,1.25,0,0,0,0-2.49Zm2.5,0" transform="translate(0)"/><path class="cls-1" d="M19.45,42.91a1.25,1.25,0,1,0,0,2.49h10a1.25,1.25,0,0,0,0-2.49Zm0,0" transform="translate(0)"/><path class="cls-1" d="M19.45,50.39a1.25,1.25,0,1,0,0,2.49h10a1.25,1.25,0,0,0,0-2.49Zm0,0" transform="translate(0)"/><path class="cls-1" d="M68.42,51.39l-2.5-2.5a4.69,4.69,0,0,0-6.75,0L42.81,65.22a1.26,1.26,0,0,0-.37.88v7.48a1.24,1.24,0,0,0,1.25,1.24h7.49a1.25,1.25,0,0,0,.88-.36L68.42,58.13a4.55,4.55,0,0,0,0-6.74ZM57.55,54l2,2L48.69,66.83l-2-2ZM44.94,72.33V66.62l5.73,5.71Zm7.49-1.76-2-2L61.3,57.77l2,2Zm14.23-14.2L65,58l-5.72-5.71,1.61-1.61a2.13,2.13,0,0,1,3.23,0l2.5,2.49a2.09,2.09,0,0,1,0,3.22Zm0,0" transform="translate(0)"/><rect class="cls-2" width="70" height="75"/><path class="cls-1" d="M38.7,72.33H6.24A3.74,3.74,0,0,1,2.5,68.59V6.29A3.75,3.75,0,0,1,6.24,2.55H45.67l12.12,12.1a1.25,1.25,0,1,0,1.76-1.77L47.07.42a1.25,1.25,0,0,0-.88-.36H6.24A6.24,6.24,0,0,0,0,6.29v62.3a6.24,6.24,0,0,0,6.24,6.23H38.7a1.25,1.25,0,1,0,0-2.49Zm0,0" transform="translate(0)"/><path class="cls-1" d="M19.45,57.86a1.25,1.25,0,0,0,0,2.5h10a1.25,1.25,0,0,0,0-2.5Zm0,0" transform="translate(0)"/><path class="cls-1" d="M35.68,29.2a1.25,1.25,0,0,0,1.25,1.25h7.49a1.24,1.24,0,0,0,1.24-1.25V21.73a1.24,1.24,0,0,0-1.24-1.25H36.93a1.25,1.25,0,0,0-1.25,1.25ZM38.17,23h5v5h-5Zm0,5" transform="translate(0)"/><path class="cls-1" d="M44.42,60.36a1.24,1.24,0,0,0,1.24-1.25V51.63a1.23,1.23,0,0,0-1.24-1.24H36.93a1.24,1.24,0,0,0-1.25,1.24v7.48a1.25,1.25,0,0,0,1.25,1.25Zm-1.25-2.5h-5v-5h5Zm0-5" transform="translate(0)"/><path class="cls-1" d="M38.54,45a1.25,1.25,0,0,0,.88.36h.13a1.26,1.26,0,0,0,.91-.55l5-7.48A1.25,1.25,0,0,0,43.38,36L39.23,42.2l-1.42-1.42A1.25,1.25,0,1,0,36,42.54Zm0,0" transform="translate(0)"/></svg>