<svg xmlns="http://www.w3.org/2000/svg" width="78" height="78" viewBox="0 0 78 78">
  <defs>
    <style>
      .cls-1 {
        fill: #022258;
        fill-rule: evenodd;
      }
    </style>
  </defs>
  <path id="מוסדות" class="cls-1" d="M38.983,11.029a7.052,7.052,0,1,0,7.051,7.052A7.058,7.058,0,0,0,38.983,11.029Zm0,10.579a3.527,3.527,0,1,1,3.528-3.527A3.532,3.532,0,0,1,38.983,21.608Zm37,10.569a1.757,1.757,0,0,0,1.763-1.757V23.372a1.759,1.759,0,0,0-.862-1.514L42.42,1.388c-0.016-.01-0.031-0.019-0.048-0.028a6.831,6.831,0,0,0-6.823.025L1.086,21.859a1.76,1.76,0,0,0-.862,1.514V30.42a1.757,1.757,0,0,0,1.762,1.757H7.272V63.9A7.055,7.055,0,0,0,.224,70.944v5.286a1.761,1.761,0,0,0,1.762,1.762h74a1.761,1.761,0,0,0,1.763-1.762V70.944A7.054,7.054,0,0,0,70.7,63.9V32.177h5.285ZM74.223,70.943v3.525H3.748V70.943a3.529,3.529,0,0,1,3.524-3.524H70.7A3.528,3.528,0,0,1,74.223,70.943ZM10.8,63.895V32.177h7.048V63.895H10.8Zm10.572,0V32.177H31.938V63.895H21.368Zm14.095,0V32.177H42.51V63.895H35.462Zm10.571,0V32.177H56.6V63.895H46.033Zm14.1,0V32.177h7.048V63.895H60.129ZM3.748,28.653V24.37L37.3,4.437a3.352,3.352,0,0,1,3.348-.012L74.223,24.37v4.283H3.748Z"/>
</svg>
