<svg xmlns="http://www.w3.org/2000/svg" width="72" height="74" viewBox="0 0 72 74">
  <defs>
    <style>
      .cls-1 {
        fill: #022258;
        fill-rule: evenodd;
      }
    </style>
  </defs>
  <path id="ביטוחים" class="cls-1" d="M56.46,11.339a1.782,1.782,0,0,0,1.782-1.783V3.929a3.9,3.9,0,0,0-3.9-3.9h-37.7a1.782,1.782,0,0,0-1.26.523L0.617,15.324a1.785,1.785,0,0,0-.522,1.261V70.007a3.9,3.9,0,0,0,3.9,3.9H54.346a3.9,3.9,0,0,0,3.9-3.9V42.782a1.782,1.782,0,1,0-3.564,0V70.007a0.333,0.333,0,0,1-.331.334H3.992a0.334,0.334,0,0,1-.333-0.334V18.368H14.528a3.9,3.9,0,0,0,3.9-3.9V3.6H54.346a0.333,0.333,0,0,1,.331.334V9.555A1.783,1.783,0,0,0,56.46,11.339Zm-41.6,3.131a0.332,0.332,0,0,1-.332.332H6.181L14.86,6.118v8.351Zm55.319,0.046-2.1-2.1a6.036,6.036,0,0,0-8.529,0L42.906,29.073H14.034a1.783,1.783,0,0,0,0,3.567H39.342L28.616,43.371H14.034a1.783,1.783,0,0,0,0,3.566H25.05l-0.028.029a1.771,1.771,0,0,0-.456.784l-2.754,9.92H14.034a1.783,1.783,0,0,0,0,3.566h9.134s0.39-.044.448-0.059l11.249-3.123a1.783,1.783,0,0,0,.783-0.458L70.179,23.048A6.042,6.042,0,0,0,70.179,14.516ZM25.728,56.891l1.455-5.242,3.784,3.786Zm8.66-3.077L28.8,48.228l28.5-28.519L62.893,25.3Zm33.27-33.288-2.245,2.247-5.585-5.587,2.245-2.247a2.468,2.468,0,0,1,3.488,0l2.1,2.1A2.471,2.471,0,0,1,67.658,20.527Z"/>
</svg>
