<?xml version="1.0" encoding="UTF-8"?>
<svg width="59px" height="88px" viewBox="0 0 59 88" version="1.1" xmlns="http://www.w3.org/2000/svg" xmlns:xlink="http://www.w3.org/1999/xlink">
    <!-- Generator: Sketch 51 (57462) - http://www.bohemiancoding.com/sketch -->
    <title>key</title>
    <desc>Created with Sketch.</desc>
    <defs></defs>
    <g id="Page-1" stroke="none" stroke-width="1" fill="none" fill-rule="evenodd">
        <g id="key" fill="#0F3860" fill-rule="nonzero">
            <path d="M43.95,40.38 C43.95,44.14 42.07,46.89 39.62,46.89 C37.16,46.89 35.28,44.14 35.28,40.39 C35.28,36.62 37.16,33.87 39.62,33.87 C42.07,33.87 43.95,36.62 43.95,40.38 Z M41.05,40.38 C41.05,38.07 40.05,36.77 39.62,36.77 C39.18,36.77 38.17,38.07 38.17,40.38 C38.17,42.7 39.18,44 39.62,44 C40.05,44 41.06,42.7 41.06,40.38 L41.05,40.38 Z M52.62,35.32 L52.62,45.45 C52.62,46.31 52.04,46.89 51.17,46.89 C50.31,46.89 49.73,46.31 49.73,45.45 L49.73,38.79 L49.3,39.23 C49,39.52 48.72,39.66 48.28,39.66 C47.85,39.66 47.56,39.52 47.28,39.23 C47.0017769,38.9656884 46.8442484,38.5987561 46.8442484,38.215 C46.8442484,37.8312439 47.0017769,37.4643116 47.28,37.2 L49.92,34.56 C50.15,34.13 50.6,33.87 51.17,33.87 C52.04,33.87 52.62,34.45 52.62,35.32 Z M58.4,17.96 L58.4,45.45 C58.4,51.09 53.92,55.57 48.28,55.57 L39.62,55.57 C36.9311102,55.5860855 34.347692,54.5250405 32.4463258,52.6236742 C30.5449595,50.722308 29.4839145,48.1388898 29.5,45.45 L29.5,38.1 C28.61,38.9 27.64,39.6 26.6,40.21 L26.6,77.27 C26.6,77.56 26.46,77.85 26.32,78.14 L20.89,86.29 C20.6989048,86.955517 20.0821807,87.4077814 19.39,87.39 L13.6,87.39 C13.17,87.39 12.88,87.25 12.6,86.96 L9.7,84.06 C9.42496153,83.7959946 9.2694844,83.4312414 9.2694844,83.05 C9.2694844,82.6687586 9.42496153,82.3040054 9.7,82.04 L11.58,80.16 L9.7,78.28 C9.42496153,78.0159946 9.2694844,77.6512414 9.2694844,77.27 C9.2694844,76.8887586 9.42496153,76.5240054 9.7,76.26 L11.58,74.38 L9.7,72.49 C9.41840597,72.2348149 9.26150299,71.8699243 9.27,71.49 C9.27,71.05 9.41,70.76 9.7,70.47 L11.58,68.59 L9.7,66.71 C9.42177686,66.4456884 9.26424841,66.0787561 9.26424841,65.695 C9.26424841,65.3112439 9.42177686,64.9443116 9.7,64.68 L11.58,62.8 L9.7,60.92 C9.42496153,60.6559946 9.2694844,60.2912414 9.2694844,59.91 C9.2694844,59.5287586 9.42496153,59.1640054 9.7,58.9 L11.58,57.02 L9.7,55.14 C9.41572021,54.8825169 9.25856374,54.513382 9.27,54.13 L9.27,40.21 C3.9161291,37.1047284 0.614765374,31.3892186 0.6,25.2 C0.610555515,20.4844568 2.53457301,15.9751282 5.93152679,12.7044762 C9.32848056,9.43382429 13.9074399,7.68196266 18.62,7.85 C20.92,3.65 25.05,0.61 30.94,0.61 C36.84,0.61 40.96,3.64 43.26,7.84 L48.28,7.84 C53.92,7.84 58.4,12.32 58.4,17.96 Z M21.76,8.26 C25.2,9.05 28.26,10.86 30.59,13.36 C32.3687204,10.0115005 35.8288104,7.89636246 39.62,7.84 L39.82,7.84 C37.7591743,5.01465522 34.4353562,3.39017656 30.94,3.5 C27.2591708,3.38744077 23.7836818,5.19333209 21.76,8.27 L21.76,8.26 Z M15.05,19.41 C15.05,21.01 16.35,22.31 17.94,22.31 C19.2492655,22.2943036 20.3856146,21.4032315 20.7130778,20.1354813 C21.0405409,18.8677312 20.4778824,17.537801 19.34,16.89 C19.2,17.55 18.68,17.96 17.94,17.96 C17.2,17.96 16.68,17.55 16.54,16.89 C15.6208184,17.3966667 15.0471378,18.3604501 15.04,19.41 L15.05,19.41 Z M14.18,84.51 L17.94,84.51 L17.94,42.55 C15.9681346,42.5761675 14.0084587,42.2371232 12.16,41.55 L12.16,53.55 L14.62,56.01 C14.9,56.29 15.05,56.58 15.05,57.01 C15.05,57.45 14.9,57.74 14.62,58.03 L12.74,59.91 L14.62,61.79 C14.8982231,62.0543116 15.0557516,62.4212439 15.0557516,62.805 C15.0557516,63.1887561 14.8982231,63.5556884 14.62,63.82 L12.74,65.7 L14.62,67.58 C14.8950385,67.8440054 15.0505156,68.2087586 15.0505156,68.59 C15.0505156,68.9712414 14.8950385,69.3359946 14.62,69.6 L12.74,71.48 L14.62,73.36 C14.9,73.66 15.05,73.94 15.05,74.38 C15.05,74.81 14.9,75.1 14.62,75.38 L12.74,77.27 L14.62,79.15 C14.8950385,79.4140054 15.0505156,79.7787586 15.0505156,80.16 C15.0505156,80.5412414 14.8950385,80.9059946 14.62,81.17 L12.74,83.05 L14.18,84.51 Z M23.72,41.55 C22.83,41.87 21.92,42.12 20.97,42.29 L20.97,80.96 L23.72,76.83 L23.72,41.55 Z M29.78,33.45 L30.05,33.05 L30.21,32.81 L30.31,32.64 C31.535237,30.6201303 32.2428406,28.3290061 32.37,25.97 L32.37,25.91 C32.401279,25.2230063 32.3845717,24.5346672 32.32,23.85 L32.31,23.65 L32.22,23.02 L32.21,22.92 L32.11,22.37 L32.07,22.18 L31.96,21.69 L31.92,21.54 C31.8,21.11 31.67,20.68 31.52,20.26 L31.49,20.19 L31.27,19.63 L31.23,19.55 L30.96,18.95 L30.96,18.94 L30.65,18.34 L30.58,18.21 C30.4446174,17.9686084 30.301204,17.7318096 30.15,17.5 L30.07,17.37 C29.9322082,17.1562708 29.7888254,16.9461984 29.64,16.74 C27.4300944,13.6753506 24.1112365,11.594337 20.39,10.94 C20.030221,11.8880739 19.7655863,12.869567 19.6,13.87 C22.2977605,14.7381291 23.9731221,17.4286919 23.5619331,20.232704 C23.150744,23.036716 20.773427,25.1329814 17.94,25.19 C14.7523504,25.1790269 12.1709731,22.5976496 12.16,19.41 C12.1643231,16.69954 14.0453117,14.3534946 16.69,13.76 C16.84,12.74 17.07,11.72 17.39,10.75 C9.636437,11.071086 3.51011387,17.4398176 3.49,25.2 C3.50144528,30.4963325 6.39968713,35.3650721 11.05,37.9 C11.18,37.93 11.32,37.99 11.44,38.07 C13.4462565,39.1188571 15.6761181,39.6677461 17.94,39.67 C19.92,39.67 21.81,39.26 23.54,38.53 L24.44,38.07 C24.54,38 24.65,37.96 24.76,37.93 C26.76,36.85 28.49,35.31 29.78,33.45 Z M55.51,45.45 L55.51,17.96 C55.5288964,16.0367541 54.773236,14.1867757 53.4132301,12.8267699 C52.0532243,11.466764 50.2032459,10.7111036 48.28,10.73 L44.5,10.73 C44.81,11.71 45.05,12.73 45.2,13.76 C47.8446883,14.3534946 49.7256769,16.69954 49.73,19.41 C49.7245163,22.6015541 47.1415399,25.1889993 43.95,25.2 C41.1047941,25.1573341 38.7107374,23.0569223 38.2982329,20.2414548 C37.8857285,17.4259874 39.5766185,14.727075 42.29,13.87 C42.1132688,12.7952011 41.8215957,11.7424957 41.42,10.73 L39.62,10.73 C36.4290921,10.7904446 33.6342909,12.884532 32.68,15.93 C34.5215957,18.867599 35.4249976,22.2963403 35.27,25.76 L35.27,25.94 L35.24,26.37 L35.23,26.52 C35.2020462,26.8878809 35.1620247,27.2547451 35.11,27.62 L35.08,27.8 L34.99,28.33 L34.98,28.43 C34.5470254,30.6914851 33.666447,32.8436324 32.39,34.76 L32.39,45.45 C32.3711036,47.3732459 33.126764,49.2232243 34.4867699,50.5832301 C35.8467757,51.943236 37.6967541,52.6988964 39.62,52.68 L48.28,52.68 C50.2032459,52.6988964 52.0532243,51.943236 53.4132301,50.5832301 C54.773236,49.2232243 55.5288964,47.3732459 55.51,45.45 Z M45.36,16.89 C45.21,17.55 44.69,17.96 43.95,17.96 C43.21,17.96 42.69,17.55 42.55,16.89 C41.4223968,17.542071 40.8679045,18.8659621 41.1942336,20.1269913 C41.5205628,21.3880205 42.6476386,22.2767553 43.95,22.3 C45.2523614,22.2767553 46.3794372,21.3880205 46.7057664,20.1269913 C47.0320955,18.8659621 46.4776032,17.542071 45.35,16.89 L45.36,16.89 Z" id="myzca"></path>
        </g>
    </g>
</svg>