<?xml version="1.0" encoding="iso-8859-1"?>
<!-- Generator: Adobe Illustrator 19.0.0, SVG Export Plug-In . SVG Version: 6.00 Build 0)  -->
<svg version="1.1" id="Layer_1" xmlns="http://www.w3.org/2000/svg" xmlns:xlink="http://www.w3.org/1999/xlink" x="0px" y="0px"
	 viewBox="0 0 512 512" style="enable-background:new 0 0 512 512;" xml:space="preserve">
<g>
	<g>
		<path d="M503.983,384.802h-43.29v-18.944c19.459-3.757,34.205-20.909,34.205-41.448c0-30.383-3.822-65.024-10.225-92.665
			c-2.989-12.904-12.085-52.171-31.996-52.171c-11.752,0-18.32,13.081-20.479,17.38c-4.261,8.487-8.136,20.192-11.517,34.79
			c-5.936,25.625-9.648,57.258-10.159,85.945c-9.964,3.334-17.169,12.749-17.169,23.821v0.534h-18.171v-18.171h0.534
			c9.136,0,16.568-7.432,16.568-16.568v-17.102c0-9.136-7.432-16.568-16.568-16.568H289.67v-18.661
			c33.659-3.981,59.858-32.673,59.858-67.385c0-37.426-30.448-67.875-67.875-67.875c-37.426,0-67.875,30.448-67.875,67.875
			c0,34.712,26.199,63.405,59.858,67.385v18.661h-34.739c-9.136,0-16.568,7.432-16.568,16.568v17.102
			c0,9.136,7.432,16.568,16.568,16.568h0.534v18.171h-18.171v-0.534c0-13.851-11.268-25.119-25.119-25.119
			c-4.427,0-8.017,3.589-8.017,8.017s3.589,8.017,8.017,8.017c5.01,0,9.086,4.076,9.086,9.086v43.29h-78.029v-35.763
			c33.659-3.981,59.858-32.673,59.858-67.385c0-38.948-6.553-80.04-17.981-112.74c-13.202-37.779-30.455-57.748-49.894-57.748
			s-36.692,19.969-49.894,57.748c-0.416,1.19-0.81,2.413-1.213,3.624c-2.872-1.003-5.796-1.514-8.751-1.514
			c-17.06,0-32.199,16.208-43.78,46.871C5.812,243.667,0,277.092,0,307.307c0,29.991,22.375,54.84,51.307,58.767v18.728H8.017
			c-4.427,0-8.017,3.589-8.017,8.017c0,4.427,3.589,8.017,8.017,8.017h495.967c4.427,0,8.017-3.589,8.017-8.017
			C512,388.391,508.411,384.802,503.983,384.802z M59.324,333.495c-4.427,0-8.017,3.589-8.017,8.017v8.329
			c-20.051-3.771-35.273-21.404-35.273-42.533c0-28.382,5.425-59.69,14.51-83.748c8.503-22.516,19.531-36.503,28.78-36.503
			c1.329,0,2.705,0.297,4.116,0.872c-7.785,28.871-12.133,62.008-12.133,93.725c0,25.552,14.198,47.843,35.114,59.421
			c-5.54,4.459-12.076,7.462-19.081,8.77v-8.333C67.34,337.084,63.751,333.495,59.324,333.495z M111.165,384.802H67.34v-18.729
			c13.64-1.839,26.154-8.33,35.558-18.532c2.696,0.667,5.456,1.166,8.267,1.499V384.802z M119.182,299.29
			c-4.427,0-8.017,3.589-8.017,8.017v25.566c-24.792-3.865-43.825-25.359-43.825-51.219c0-36.672,6.387-76.841,17.083-107.452
			c10.132-28.993,23.45-47.004,34.758-47.004c11.308,0,24.626,18.011,34.758,47.004c10.696,30.611,17.083,70.78,17.083,107.452
			c0,25.86-19.033,47.354-43.825,51.219v-25.566C127.198,302.88,123.609,299.29,119.182,299.29z M229.812,187.591
			c0-28.585,23.256-51.841,51.841-51.841s51.841,23.256,51.841,51.841c0,25.86-19.033,47.354-43.825,51.219v-8.464
			c0-4.427-3.589-8.017-8.017-8.017s-8.017,3.589-8.017,8.017v8.464C248.845,234.945,229.812,213.451,229.812,187.591z
			 M238.898,307.841c-0.295,0-0.534-0.239-0.534-0.534v-17.102c0-0.295,0.239-0.534,0.534-0.534h136.818
			c0.295,0,0.534,0.239,0.534,0.534v17.102c0,0.295-0.239,0.534-0.534,0.534H238.898z M359.148,323.875v18.171H289.67v-18.171
			H359.148z M273.637,384.802h-52.376v-26.722h52.376V384.802z M273.637,342.046h-18.171v-18.171h18.171V342.046z M393.353,384.802
			H289.67v-26.722h103.683V384.802z M444.66,384.802h-35.273v-43.29c0-2.415,0.952-4.606,2.494-6.235
			c4.132,15.499,16.88,27.511,32.78,30.58V384.802z M452.676,333.495c-4.427,0-8.017,3.589-8.017,8.017v7.825
			c-10.53-3.395-18.171-13.283-18.171-24.928c0-27.883,3.409-60.023,9.118-85.973c6.998-31.807,14.616-41.57,17.07-42.765
			c2.454,1.196,10.072,10.958,17.07,42.765c5.709,25.951,9.118,58.09,9.118,85.973c0,11.645-7.642,21.534-18.171,24.928v-7.825
			C460.693,337.084,457.104,333.495,452.676,333.495z"/>
	</g>
</g>
<g>
</g>
<g>
</g>
<g>
</g>
<g>
</g>
<g>
</g>
<g>
</g>
<g>
</g>
<g>
</g>
<g>
</g>
<g>
</g>
<g>
</g>
<g>
</g>
<g>
</g>
<g>
</g>
<g>
</g>
</svg>
