<svg id="Layer_1" data-name="Layer 1" xmlns="http://www.w3.org/2000/svg" xmlns:xlink="http://www.w3.org/1999/xlink" viewBox="0 0 72.82 86"><defs><style>.cls-1{fill:none;}.cls-2{fill:#1c2756;}.cls-3{clip-path:url(#clip-path);}</style><clipPath id="clip-path" transform="translate(-0.16 -0.56)"><rect class="cls-1" y="0.56" width="73" height="86"/></clipPath></defs><title>החזר הלוואה</title><path class="cls-2" d="M39.13,77.34l19-19,2,2-19,19Z" transform="translate(-0.16 -0.56)"/><path class="cls-2" d="M43.49,67.48a4.8,4.8,0,1,1,4.77-4.8,4.79,4.79,0,0,1-4.77,4.8Zm0-6.72a1.93,1.93,0,1,0,1.92,1.92,1.92,1.92,0,0,0-1.92-1.92Z" transform="translate(-0.16 -0.56)"/><g class="cls-3"><path class="cls-2" d="M55.76,79.79A4.79,4.79,0,1,1,60.53,75a4.79,4.79,0,0,1-4.77,4.79Zm0-6.72A1.93,1.93,0,1,0,57.67,75a1.93,1.93,0,0,0-1.91-1.93Z" transform="translate(-0.16 -0.56)"/><path class="cls-2" d="M60.13,49.29H34.43a1.42,1.42,0,0,1-1-.42L29.56,45H18.73a1.43,1.43,0,0,1-1.43-1.43V26.36a1.43,1.43,0,0,1,1.43-1.43h9.76l3.45-1.16,3.92-9.17V7.9L34.48,2.34A1.43,1.43,0,0,1,34.83,1,1.41,1.41,0,0,1,36.14.59L43.28,2a1.42,1.42,0,0,1,1.07,1l1.43,4.3a1.44,1.44,0,0,1,.08.46v9.84l9.81-1.23a1.42,1.42,0,0,1,.46,0l7.14,1.44a1.44,1.44,0,0,1,1.15,1.31L65.84,42a1.48,1.48,0,0,1-.28,1l-4.28,5.73a1.44,1.44,0,0,1-1.15.57ZM35,46.43h24.4L63,41.69,61.63,20.38,55.8,19.21l-11.2,1.4a1.4,1.4,0,0,1-1.12-.34A1.47,1.47,0,0,1,43,19.19V8L41.91,4.67l-4.12-.83.88,3.54a1.34,1.34,0,0,1,0,.35v7.16a1.39,1.39,0,0,1-.12.57l-4.28,10a1.44,1.44,0,0,1-.86.8l-4.29,1.43a1.37,1.37,0,0,1-.45.07H20.15V42.13h10a1.42,1.42,0,0,1,1,.42Z" transform="translate(-0.16 -0.56)"/></g><path class="cls-2" d="M18.73,50.73H1.59A1.44,1.44,0,0,1,.16,49.29V26.36a1.43,1.43,0,0,1,1.43-1.43H18.73a1.43,1.43,0,0,1,1.42,1.43V49.29a1.44,1.44,0,0,1-1.42,1.44ZM3,47.86H17.3V27.79H3Z" transform="translate(-0.16 -0.56)"/><g class="cls-3"><path class="cls-2" d="M14.44,42.84a2.14,2.14,0,1,1-2.14-2.15,2.14,2.14,0,0,1,2.14,2.15Z" transform="translate(-0.16 -0.56)"/><path class="cls-2" d="M56.11,86.56H44.17A16.95,16.95,0,0,1,31.68,58.23L41.94,46.89A1.46,1.46,0,0,1,43,46.43H57.28a1.48,1.48,0,0,1,1.06.46L68.6,58.23A16.95,16.95,0,0,1,56.11,86.56ZM43.63,49.29,33.79,60.15A14.09,14.09,0,0,0,44.17,83.69H56.11A14.08,14.08,0,0,0,66.48,60.15L56.65,49.29Z" transform="translate(-0.16 -0.56)"/></g><path class="cls-2" d="M44.43,20.63A1.43,1.43,0,0,1,43,19.19v-10a1.43,1.43,0,0,1,1.43-1.43h7.14a1.39,1.39,0,0,1,.53.1l7.14,2.86a1.45,1.45,0,0,1,.84,1,1.43,1.43,0,0,1-.23,1.25l-4.29,5.73a1.44,1.44,0,0,1-.93.56l-10,1.43-.2,0Zm1.43-10v7l7.77-1.12,2.82-3.76-5.16-2.07Z" transform="translate(-0.16 -0.56)"/><path class="cls-2" d="M48.76,14.54l1.42-5.73,2.77.7-1.43,5.73Z" transform="translate(-0.16 -0.56)"/></svg>