<svg xmlns="http://www.w3.org/2000/svg" width="81" height="72" viewBox="0 0 81 72">
  <defs>
    <style>
      .cls-1 {
        fill: #022258;
        fill-rule: evenodd;
      }
    </style>
  </defs>
  <path id="Forma_1" data-name="Forma 1" class="cls-1" d="M9.178,42.7a1.49,1.49,0,1,0,1.543,1.489A1.517,1.517,0,0,0,9.178,42.7ZM77.47,47.635a6.135,6.135,0,0,0-5.439-.7l-0.04.014L57.411,52.471a5.743,5.743,0,0,0,.062-0.832A6.074,6.074,0,0,0,51.3,45.681H41.309a1.587,1.587,0,0,1-.757-0.191L32.4,41.064a11.115,11.115,0,0,0-5.3-1.34H16.893V38.234a1.517,1.517,0,0,0-1.543-1.489H2.543A1.517,1.517,0,0,0,1,38.234V65.043a1.517,1.517,0,0,0,1.543,1.489H15.35a1.517,1.517,0,0,0,1.543-1.489V63.553h1.161l14.721,5.752a24.84,24.84,0,0,0,18.976-.389l0.023-.01,24.535-11.26A5.651,5.651,0,0,0,77.47,47.635ZM13.807,63.553H4.086V39.723h9.721v23.83ZM75.114,54.9c-0.03.012-.06,0.024-0.089,0.038L50.461,66.21a21.651,21.651,0,0,1-16.529.334l-15-5.861a1.6,1.6,0,0,0-.579-0.109H16.893V42.7H27.1a7.938,7.938,0,0,1,3.783.957l8.152,4.426a4.767,4.767,0,0,0,2.271.575H51.3a3.037,3.037,0,0,1,3.086,2.979,2.963,2.963,0,0,1-1.47,2.534l-0.011,0a1.551,1.551,0,0,0-.322.169,3.164,3.164,0,0,1-1.283.271H35.615a4.556,4.556,0,0,0-4.629,4.468,1.544,1.544,0,0,0,3.086,0A1.519,1.519,0,0,1,35.615,57.6H51.3a6.321,6.321,0,0,0,2.949-.728L73.1,49.73a2.914,2.914,0,0,1,2.6.344,2.7,2.7,0,0,1,1.217,2.261A2.754,2.754,0,0,1,75.114,54.9ZM9.178,48.66a1.517,1.517,0,0,0-1.543,1.489v8.936a1.544,1.544,0,0,0,3.086,0V50.149A1.517,1.517,0,0,0,9.178,48.66ZM62.1,24.83a9.112,9.112,0,0,0-9.258,8.936,9.264,9.264,0,0,0,18.516,0A9.112,9.112,0,0,0,62.1,24.83Zm0,14.894a5.961,5.961,0,1,1,6.172-5.957A6.074,6.074,0,0,1,62.1,39.723ZM55.93,1a9.112,9.112,0,0,0-9.258,8.936,9.264,9.264,0,0,0,18.516,0A9.112,9.112,0,0,0,55.93,1Zm0,14.894a6.074,6.074,0,0,1-6.172-5.957,6.176,6.176,0,0,1,12.344,0A6.074,6.074,0,0,1,55.93,15.894ZM37.414,18.872a9.112,9.112,0,0,0-9.258,8.936,9.264,9.264,0,0,0,18.516,0A9.112,9.112,0,0,0,37.414,18.872Zm0,14.894a5.961,5.961,0,1,1,6.172-5.957A6.074,6.074,0,0,1,37.414,33.766Z"/>
</svg>
