<?xml version="1.0" encoding="UTF-8"?>
<svg width="40px" height="35px" viewBox="0 0 40 35" version="1.1" xmlns="http://www.w3.org/2000/svg" xmlns:xlink="http://www.w3.org/1999/xlink">
    <!-- Generator: Sketch 50.2 (55047) - http://www.bohemiancoding.com/sketch -->
    <title>money</title>
    <desc>Created with Sketch.</desc>
    <defs></defs>
    <g id="Page-1" stroke="none" stroke-width="1" fill="none" fill-rule="evenodd">
        <g id="money" fill="#FFFFFF" fill-rule="nonzero">
            <path d="M30.23,14.84 L30.23,25.45 C30.23,25.75 30.07,26.03 29.82,26.2 L25.22,29.09 C24.9488308,29.2572973 24.6084107,29.2649472 24.33,29.11 C24.0475536,28.9565996 23.8712082,28.6614127 23.87,28.34 L23.87,18.26 L10.49,10.65 L3,15.37 L15.55,22.5 L21.64,18.67 C22.0542136,18.4104262 22.6004261,18.5357865 22.8599999,18.95 C23.1195738,19.3642136 22.9942135,19.9104262 22.58,20.17 L16.05,24.27 C15.7758137,24.4483395 15.4253368,24.4598937 15.14,24.3 L0.85,16.17 C0.581309639,16.0163982 0.413061815,15.7329404 0.406914093,15.423505 C0.40076637,15.1140697 0.557622646,14.8241528 0.82,14.66 L10,8.87 L14.59,5.98 L23.77,0.2 C24.0436281,0.02877806 24.389036,0.021102329 24.67,0.18 L38.97,8.31 C39.2386904,8.46360183 39.4069382,8.74705963 39.4130859,9.05649498 C39.4192336,9.36593033 39.2623774,9.65584716 39,9.82 L32.46,13.94 C32.1920508,14.1079151 31.8548739,14.1201257 31.5754806,13.9720323 C31.2960874,13.8239389 31.1169243,13.5380404 31.1054805,13.222032 C31.0940366,12.9060237 31.2520506,12.6079147 31.52,12.44 L36.81,9.11 L24.26,1.98 L16.77,6.69 L29.77,14.09 C29.871947,14.147312 29.9632781,14.22173 30.04,14.31 L30.05,14.33 L30.09,14.39 L30.1,14.4 L30.12,14.43 C30.1392693,14.4619672 30.1559878,14.4954042 30.17,14.53 L30.2,14.63 L30.22,14.73 L30.22,14.85 L30.23,14.84 Z M28.46,24.96 L28.46,16.46 L27.47,17.08 C27.2020508,17.2479149 26.864874,17.2601254 26.5854809,17.112032 C26.3060878,16.9639386 26.1269248,16.6780402 26.1154809,16.362032 C26.104037,16.0460237 26.2620508,15.7479148 26.53,15.58 L27.63,14.89 L15.08,7.76 L12.18,9.58 L25.19,16.98 C25.47,17.14 25.64,17.43 25.64,17.75 L25.64,26.75 L28.46,24.96 Z M39.27,12.13 C39.53,12.55 39.41,13.09 39,13.35 L32.47,17.47 C32.2714606,17.5960308 32.0307369,17.6373534 31.801533,17.5847493 C31.572329,17.5321451 31.3737148,17.3899908 31.25,17.19 C31.1230685,16.9926791 31.0801889,16.7528402 31.1308865,16.5237618 C31.1815842,16.2946834 31.3216611,16.0953349 31.52,15.97 L38.06,11.86 C38.4690324,11.6023906 39.0092818,11.7229422 39.27,12.13 Z M22.86,22.48 C23.12,22.88 22.99,23.43 22.58,23.69 L16.05,27.81 C15.7739374,27.985206 15.4234937,27.9929081 15.14,27.83 L0.85,19.7 C0.427502398,19.459756 0.279756535,18.9224979 0.520000328,18.5000002 C0.760244122,18.0775025 1.29750219,17.9297564 1.72,18.17 L15.55,26.03 L21.64,22.2 C21.8385394,22.0739692 22.0792631,22.0326466 22.308467,22.0852507 C22.537671,22.1378549 22.7362852,22.2800092 22.86,22.48 Z M39.27,15.67 C39.53,16.07 39.41,16.62 39,16.88 L32.47,21 C32.2714606,21.1260308 32.0307369,21.1673534 31.801533,21.1147493 C31.572329,21.0621451 31.3737148,20.9199908 31.25,20.72 C31.1230685,20.5226791 31.0801889,20.2828402 31.1308865,20.0537618 C31.1815842,19.8246834 31.3216611,19.6253349 31.52,19.5 L38.06,15.39 C38.4716272,15.1342402 39.0125679,15.2594166 39.27,15.67 Z M22.86,26.01 C23.12,26.41 22.99,26.96 22.58,27.22 L16.05,31.34 C15.7739374,31.515206 15.4234937,31.5229081 15.14,31.36 L0.85,23.23 C0.427502166,22.9897561 0.279756134,22.4524978 0.52,22.03 C0.760243866,21.6075022 1.29750217,21.4597561 1.72,21.7 L15.55,29.56 L21.64,25.73 C21.8385394,25.6039692 22.0792631,25.5626466 22.308467,25.6152507 C22.537671,25.6678549 22.7362852,25.8100092 22.86,26.01 Z M39.27,19.2 C39.53,19.6 39.41,20.15 39,20.41 L32.47,24.53 C32.2714606,24.6560308 32.0307369,24.6973534 31.801533,24.6447493 C31.572329,24.5921451 31.3737148,24.4499908 31.25,24.25 C31.1230685,24.0526791 31.0801889,23.8128402 31.1308865,23.5837618 C31.1815842,23.3546834 31.3216611,23.1553349 31.52,23.03 L38.06,18.92 C38.4716272,18.6642402 39.0125679,18.7894166 39.27,19.2 Z M22.86,29.54 C23.12,29.95 22.99,30.5 22.58,30.76 L16.05,34.87 C15.7739374,35.045206 15.4234937,35.0529081 15.14,34.89 L0.85,26.77 C0.424740743,26.5297561 0.274756134,25.9902593 0.515,25.565 C0.755243866,25.1397407 1.29474074,24.9897561 1.72,25.23 L15.55,33.09 L21.64,29.26 C21.8385394,29.1339692 22.0792631,29.0926466 22.308467,29.1452507 C22.537671,29.1978549 22.7362852,29.3400092 22.86,29.54 Z" id="da1ba"></path>
        </g>
    </g>
</svg>