<svg xmlns="http://www.w3.org/2000/svg" width="59" height="88" viewBox="0 0 59 88">
  <defs>
    <style>
      .cls-1 {
        fill: #022258;
        fill-rule: evenodd;
      }
    </style>
  </defs>
  <path id="משכנתא" class="cls-1" d="M39.613,33.874c-2.457,0-4.335,2.748-4.335,6.509s1.878,6.509,4.335,6.509,4.336-2.748,4.336-6.509S42.069,33.874,39.613,33.874Zm0,10.125c-0.434,0-1.445-1.3-1.445-3.616s1.011-3.616,1.445-3.616,1.444,1.3,1.444,3.616S40.047,44,39.613,44Zm11.56-10.125a1.375,1.375,0,0,0-1.259.682L47.272,37.2a1.4,1.4,0,0,0,0,2.025,1.4,1.4,0,0,0,2.023,0l0.433-.434v6.654a1.445,1.445,0,1,0,2.89,0V35.321A1.365,1.365,0,0,0,51.173,33.874ZM48.283,7.838H43.255A13.488,13.488,0,0,0,30.943.606,13.484,13.484,0,0,0,18.624,7.853c-0.229-.009-0.457-0.015-0.686-0.015A17.351,17.351,0,0,0,9.267,40.211V54.125A1.315,1.315,0,0,0,9.7,55.137l1.878,1.88L9.7,58.9a1.4,1.4,0,0,0,0,2.025l1.878,1.88L9.7,64.683a1.4,1.4,0,0,0,0,2.025l1.878,1.88L9.7,70.469a1.4,1.4,0,0,0,0,2.025l1.878,1.88L9.7,76.255a1.4,1.4,0,0,0,0,2.025l1.878,1.88L9.7,82.041a1.4,1.4,0,0,0,0,2.025l2.89,2.893a1.31,1.31,0,0,0,1.011.434h5.779c0.029,0,.058,0,0.086,0a1.517,1.517,0,0,0,1.417-1.095l5.434-8.159a2.061,2.061,0,0,0,.288-0.868V40.211A17.53,17.53,0,0,0,29.5,38.1v7.342A10.057,10.057,0,0,0,39.613,55.571h8.67A10.058,10.058,0,0,0,58.4,45.446V17.963A10.058,10.058,0,0,0,48.283,7.838ZM30.943,3.5a10.584,10.584,0,0,1,8.883,4.339H39.613a10.39,10.39,0,0,0-9.025,5.518,17.375,17.375,0,0,0-8.829-5.09A10.593,10.593,0,0,1,30.943,3.5ZM16.533,16.886a1.456,1.456,0,0,0,2.811,0A2.891,2.891,0,1,1,16.533,16.886Zm-3.8,66.167,1.878-1.88a1.4,1.4,0,0,0,0-2.025l-1.878-1.88,1.878-1.88a1.4,1.4,0,0,0,0-2.025l-1.878-1.88,1.878-1.88a1.4,1.4,0,0,0,0-2.025L12.736,65.7l1.878-1.88a1.4,1.4,0,0,0,0-2.026l-1.878-1.88,1.878-1.88a1.4,1.4,0,0,0,0-2.025l-2.456-2.459V41.554c0.213,0.076.429,0.149,0.646,0.217a15.966,15.966,0,0,0,5.134.781V84.5H14.18Zm10.983-6.22-2.746,4.122V42.285a17.153,17.153,0,0,0,2.746-.73v35.28Zm1.043-38.9a0.955,0.955,0,0,0-.32.136q-0.447.244-.91,0.457a14.312,14.312,0,0,1-5.593,1.134c-0.439,0-.873-0.023-1.3-0.062a14.057,14.057,0,0,1-5.2-1.529,1.3,1.3,0,0,0-.388-0.172,14.457,14.457,0,0,1,6.34-27.152,18.4,18.4,0,0,0-.7,3.017,5.781,5.781,0,1,0,2.909.109,15.243,15.243,0,0,1,.784-2.926,14.5,14.5,0,0,1,9.256,5.8,0.763,0.763,0,0,0,.147.209c0.1,0.136.189,0.275,0.279,0.414,0.027,0.043.057,0.086,0.083,0.13q0.1,0.162.2,0.326,0.114,0.19.222,0.384c0.024,0.044.05,0.087,0.074,0.131q0.161,0.3.308,0.6a0.043,0.043,0,0,1,0,.009q0.143,0.295.271,0.6c0.013,0.027.024,0.055,0.035,0.082,0.077,0.186.153,0.373,0.223,0.563,0.009,0.024.019,0.047,0.027,0.071q0.231,0.628.4,1.282c0.012,0.049.023,0.1,0.036,0.149,0.041,0.162.078,0.325,0.114,0.489,0.013,0.064.027,0.128,0.04,0.191q0.053,0.27.1,0.543c0.005,0.035.013,0.07,0.018,0.1,0.033,0.21.059,0.423,0.081,0.636,0.007,0.066.012,0.132,0.018,0.2,0.014,0.159.027,0.319,0.037,0.479,0,0.067.008,0.135,0.012,0.2,0.01,0.22.017,0.44,0.017,0.661q0,0.359-.019.713c0,0.022,0,.044,0,0.065a14.351,14.351,0,0,1-2.053,6.663c-0.035.058-.072,0.115-0.109,0.173-0.05.082-.1,0.162-0.155,0.243-0.086.13-.172,0.259-0.263,0.388l-0.005.009A14.609,14.609,0,0,1,24.761,37.933Zm30.747,7.512a7.158,7.158,0,0,1-7.225,7.232h-8.67a7.158,7.158,0,0,1-7.225-7.232V34.759a17.267,17.267,0,0,0,2.585-6.331c0.006-.033.013-0.066,0.019-0.1,0.033-.177.063-0.355,0.089-0.533,0.009-.06.018-0.121,0.026-0.182,0.018-.122.033-0.244,0.048-0.366,0.01-.072.017-0.143,0.025-0.216q0.028-.255.048-0.513c0-.049.006-0.1,0.009-0.148,0.009-.144.019-0.288,0.025-0.433,0-.058,0-0.116.007-0.174,0.006-.189.01-0.378,0.01-0.568,0-.174,0-0.346-0.008-0.519,0-.1-0.007-0.206-0.012-0.309,0-.037,0-0.073,0-0.109a17.085,17.085,0,0,0-2.575-8.321,7.419,7.419,0,0,1,6.935-5.207h1.805a15.161,15.161,0,0,1,.866,3.14,5.78,5.78,0,1,0,2.909-.109,18.387,18.387,0,0,0-.7-3.031h3.789a7.158,7.158,0,0,1,7.225,7.232V45.446h0ZM46.839,19.41a2.891,2.891,0,1,1-4.3-2.524,1.456,1.456,0,0,0,2.811,0A2.9,2.9,0,0,1,46.839,19.41Z"/>
</svg>
