<?xml version="1.0" encoding="iso-8859-1"?>
<!-- Generator: Adobe Illustrator 19.0.0, SVG Export Plug-In . SVG Version: 6.00 Build 0)  -->
<svg version="1.1" id="Capa_1" xmlns="http://www.w3.org/2000/svg" xmlns:xlink="http://www.w3.org/1999/xlink" x="0px" y="0px"
	 viewBox="0 0 479.992 479.992" style="enable-background:new 0 0 479.992 479.992;" xml:space="preserve">
<g>
	<g>
		<path d="M475.84,229.238l-160-176c-4.448-4.864-11.424-6.528-17.632-4.192C292.064,51.446,288,57.366,288,63.99v80H16
			c-8.832,0-16,7.168-16,16v160c0,8.832,7.168,16,16,16h272v80c0,6.624,4.064,12.544,10.208,14.944
			c1.888,0.704,3.84,1.056,5.792,1.056c4.416,0,8.736-1.856,11.84-5.248l160-176C481.376,244.662,481.376,235.35,475.84,229.238z
			 M320,374.614V319.99c0-8.832-7.168-16-16-16H32v-128h272c8.832,0,16-7.168,16-16v-54.624L442.368,239.99L320,374.614z"/>
	</g>
</g>
<g>
</g>
<g>
</g>
<g>
</g>
<g>
</g>
<g>
</g>
<g>
</g>
<g>
</g>
<g>
</g>
<g>
</g>
<g>
</g>
<g>
</g>
<g>
</g>
<g>
</g>
<g>
</g>
<g>
</g>
</svg>
