<svg xmlns="http://www.w3.org/2000/svg" width="89" height="78" viewBox="0 0 89 78">
  <defs>
    <style>
      .cls-1 {
        fill: #022258;
        fill-rule: evenodd;
      }
    </style>
  </defs>
  <path id="ללא_קטגוריה" data-name="ללא קטגוריה" class="cls-1" d="M86.556,73.537H79.974V5.622a1.753,1.753,0,0,0-1.753-1.753H60.373a1.752,1.752,0,0,0-1.752,1.753V73.536H54.576V31.46a1.753,1.753,0,0,0-1.755-1.752H34.974a1.752,1.752,0,0,0-1.752,1.752V73.537H29.175V59.184a1.753,1.753,0,0,0-1.753-1.753H9.575a1.752,1.752,0,0,0-1.751,1.753V73.537H3.857V2.182a1.751,1.751,0,1,0-3.5,0V75.288a1.751,1.751,0,0,0,1.752,1.753H86.556A1.752,1.752,0,0,0,86.556,73.537Zm-60.885,0H11.327v-12.6H25.673v12.6h0Zm25.4,0H36.727V33.214h14.34V73.537Zm25.4,0H62.125V7.375H76.47V73.536Z"/>
</svg>
