<?xml version="1.0" encoding="UTF-8"?>
<svg width="111px" height="138px" viewBox="0 0 111 138" version="1.1" xmlns="http://www.w3.org/2000/svg" xmlns:xlink="http://www.w3.org/1999/xlink">
    <!-- Generator: Sketch 50.2 (55047) - http://www.bohemiancoding.com/sketch -->
    <title>no-data</title>
    <desc>Created with Sketch.</desc>
    <defs></defs>
    <g id="Page-1" stroke="none" stroke-width="1" fill="none" fill-rule="evenodd">
        <g id="no-data" fill="#E5E5E5" fill-rule="nonzero">
            <path d="M109.38,137.33 C108.950085,137.762972 108.365157,138.006471 107.755,138.006471 C107.144843,138.006471 106.559915,137.762972 106.13,137.33 L99.93,131.11 L11.46,131.11 L11.46,119.62 L0,119.62 L0,0.16 L91.7,0.16 L91.7,35.96 L102.03,46.31 L103.17,47.46 L103.17,127.86 L109.37,134.08 C110.27,134.98 110.27,136.43 109.37,137.33 L109.38,137.33 Z M91.71,42.47 L68.78,19.49 L68.78,46.11 L95.34,46.11 L91.71,42.47 Z M11.46,115.03 L11.46,11.65 L67.43,11.65 L68.57,12.79 L87.12,31.37 L87.12,4.76 L4.58,4.76 L4.58,115.03 L11.46,115.03 Z M95.34,126.51 L78.11,109.25 C73.2364868,113.394537 67.0475246,115.670204 60.65,115.67 C45.9314549,115.27063 34.2072245,103.223962 34.2072245,88.5 C34.2072245,73.7760377 45.9314549,61.7293696 60.65,61.33 C71.1984874,61.3707243 80.7707922,67.511114 85.2059239,77.0819997 C89.6410556,86.6528853 88.1379528,97.9255996 81.35,106 L98.58,123.27 L98.58,50.7 L64.19,50.7 L64.19,16.25 L16.04,16.25 L16.04,126.51 L95.34,126.51 Z M83.18,88.51 C83.1855465,76.0550072 73.1049635,65.9475785 60.65,65.92 C48.1794103,65.92 38.07,76.0294103 38.07,88.5 C38.07,100.97059 48.1794103,111.08 60.65,111.08 C73.101059,111.052429 83.1800305,100.95109 83.18,88.5 L83.18,88.51 Z M71.9,76.51 C72.8,77.41 72.8,78.86 71.9,79.76 L63.8,87.86 L71.9,95.96 C72.7974624,96.8602242 72.7952236,98.3175371 71.8949996,99.2149996 C70.9947756,100.112462 69.5374628,100.110224 68.64,99.21 L60.54,91.11 L52.45,99.21 C51.5427626,100.04627 50.1372737,100.017677 49.2647982,99.1452018 C48.3923227,98.2727263 48.3637301,96.8672374 49.2,95.96 L57.3,87.86 L49.19,79.76 C48.3537301,78.8527626 48.3823227,77.4472737 49.2547982,76.5747982 C50.1272737,75.7023227 51.5327626,75.6737301 52.44,76.51 L60.54,84.61 L68.66,76.51 C69.56,75.61 71,75.61 71.9,76.51 Z" id="8t1ra"></path>
        </g>
    </g>
</svg>