<svg xmlns="http://www.w3.org/2000/svg" width="84" height="70" viewBox="0 0 84 70">
  <defs>
    <style>
      .cls-1 {
        fill: #022258;
        fill-rule: evenodd;
      }
    </style>
  </defs>
  <path id="קטגוריה_חדשה" data-name="קטגוריה חדשה" class="cls-1" d="M55.068,19.993a1.638,1.638,0,1,0-1.638-1.638A1.639,1.639,0,0,0,55.068,19.993ZM75.713,0.332H8.208a8.192,8.192,0,0,0,0,16.385h9.175v39.65H9.192a1.64,1.64,0,0,0-1.641,1.639v3.277a8.2,8.2,0,0,0,8.194,8.192h42.6a8.2,8.2,0,0,0,8.191-8.192V16.716h9.176A8.192,8.192,0,1,0,75.713.332ZM15.745,66.2a4.921,4.921,0,0,1-4.915-4.915V59.644H50.153v1.639A8.155,8.155,0,0,0,51.795,66.2H15.745Zm47.516-4.915a4.915,4.915,0,1,1-9.83,0V58.006a1.639,1.639,0,0,0-1.639-1.639H20.66v-46.2h42.6v51.12ZM75.713,13.44H66.536V10.162h5.9a1.638,1.638,0,0,0,0-3.277H11.485a1.638,1.638,0,1,0,0,3.277h5.9V13.44H8.208a4.916,4.916,0,0,1,0-9.831h67.5A4.916,4.916,0,0,1,75.713,13.44ZM28.851,19.993H48.514a1.638,1.638,0,1,0,0-3.277H28.851A1.638,1.638,0,0,0,28.851,19.993Zm0,9.831H55.068a1.639,1.639,0,1,0,0-3.277H28.851A1.639,1.639,0,0,0,28.851,29.824Z"/>
</svg>
