<svg xmlns="http://www.w3.org/2000/svg" width="65" height="74" viewBox="0 0 65 74">
  <defs>
    <style>
      .cls-1 {
        fill: #022258;
        fill-rule: evenodd;
      }
    </style>
  </defs>
  <path id="הוצאות_משרד" data-name="הוצאות משרד" class="cls-1" d="M60.221,0.463H4.815A4.348,4.348,0,0,0,.474,4.809V69.527a4.348,4.348,0,0,0,4.342,4.346H60.221a4.349,4.349,0,0,0,4.342-4.346V4.809A4.349,4.349,0,0,0,60.221.463ZM3.947,4.809A0.87,0.87,0,0,1,4.815,3.94H60.221a0.869,0.869,0,0,1,.868.869V19.878H3.947V4.809ZM20.679,70.4H4.815a0.87,0.87,0,0,1-.869-0.869V48.609H20.679V70.4Zm0-25.263H3.947V23.355H20.679V45.133ZM40.884,70.4H24.152V48.609H40.884V70.4Zm0-25.263H24.152V23.355H40.884V45.133ZM61.089,69.527a0.869,0.869,0,0,1-.868.869H44.358V23.355H61.089V69.527ZM16.606,32.505H14.049V29.946a1.736,1.736,0,1,0-3.473,0v2.559H8.019a1.738,1.738,0,0,0,0,3.477h2.557v2.559a1.736,1.736,0,1,0,3.473,0V35.982h2.557A1.738,1.738,0,0,0,16.606,32.505Zm20.292,0H28.139a1.738,1.738,0,0,0,0,3.477H36.9A1.738,1.738,0,0,0,36.9,32.505Zm-22.128,27,2.1-2.1a1.738,1.738,0,0,0-2.457-2.459l-2.1,2.1-2.1-2.1A1.738,1.738,0,0,0,7.76,57.409l2.1,2.1-2.1,2.1a1.738,1.738,0,1,0,2.456,2.459l2.1-2.1,2.1,2.1a1.738,1.738,0,1,0,2.456-2.459Zm22.3-4.556a1.736,1.736,0,0,0-2.456,0l-6.649,6.655a1.738,1.738,0,1,0,2.456,2.459l6.649-6.655A1.74,1.74,0,0,0,37.07,54.951ZM29.193,54.7a1.483,1.483,0,1,1-1.482,1.483A1.482,1.482,0,0,1,29.193,54.7Zm6.65,6.655a1.483,1.483,0,1,1-1.482,1.483A1.481,1.481,0,0,1,35.843,61.352ZM57.112,42.1H48.235a1.738,1.738,0,0,0,0,3.477h8.877A1.738,1.738,0,0,0,57.112,42.1Zm0,6.067H48.235a1.739,1.739,0,0,0,0,3.477h8.877A1.739,1.739,0,0,0,57.112,48.17Z"/>
</svg>
