<?xml version="1.0" encoding="UTF-8"?>
<svg width="19px" height="15px" viewBox="0 0 19 15" version="1.1" xmlns="http://www.w3.org/2000/svg" xmlns:xlink="http://www.w3.org/1999/xlink">
    <!-- Generator: Sketch 51 (57462) - http://www.bohemiancoding.com/sketch -->
    <title>forma-1-copy-11</title>
    <desc>Created with Sketch.</desc>
    <defs></defs>
    <g id="Page-1" stroke="none" stroke-width="1" fill="none" fill-rule="evenodd">
        <g id="forma-1-copy-11" fill="#FFFFFF" fill-rule="nonzero">
            <path d="M0.26,8.17 C0.127234085,8.03635862 0.0488320861,7.85817226 0.04,7.67 C0.04,7.53 0.11,7.32 0.26,7.17 L1.25,6.19 C1.37849376,6.05357862 1.55759285,5.97623492 1.745,5.97623492 C1.93240715,5.97623492 2.11150624,6.05357862 2.24,6.19 L2.31,6.26 L6.21,10.44 C6.34,10.58 6.56,10.58 6.7,10.44 L16.19,0.59 L16.26,0.59 C16.3884938,0.453578617 16.5675928,0.376234919 16.755,0.376234919 C16.9424072,0.376234919 17.1215062,0.453578617 17.25,0.59 L18.24,1.59 C18.52,1.87 18.52,2.29 18.24,2.57 L6.91,14.33 C6.78269352,14.4706436 6.59955306,14.5475626 6.41,14.54 C6.2238983,14.5445952 6.04501847,14.4679324 5.92,14.33 L0.4,8.38 L0.26,8.17 Z" id="jlr7a"></path>
        </g>
    </g>
</svg>