<svg xmlns="http://www.w3.org/2000/svg" height="511pt" version="1.1" viewBox="0 -33 511.99921 511" width="511pt">
<g id="surface1">
<path d="M 476.859375 147.617188 L 476.859375 120.507812 C 476.859375 89.542969 452.085938 64.769531 421.121094 64.769531 L 274.933594 64.769531 C 263.484375 64.769531 252.734375 58.460938 246.890625 48.644531 L 234.738281 27.960938 C 224.570312 11.25 206.226562 0.5 186.59375 0.5 L 90.890625 0.5 C 75.464844 0.5 60.976562 6.808594 50.34375 18.027344 C 39.707031 29.246094 34.214844 44.085938 34.917969 59.511719 L 38.890625 147.734375 L 35.148438 147.734375 C 24.984375 147.734375 15.402344 152.058594 8.742188 159.65625 C 2.082031 167.25 -1.074219 177.417969 0.328125 187.464844 L 29.308594 396.050781 C 33.164062 423.628906 57 444.542969 84.8125 444.542969 L 427.542969 444.542969 C 455.472656 444.542969 479.308594 423.511719 483.167969 395.816406 L 511.679688 187.464844 C 513.082031 177.417969 509.808594 167.25 503.148438 159.65625 C 496.609375 152.058594 487.375 147.617188 476.859375 147.617188 Z M 58.171875 58.574219 C 57.820312 49.578125 60.976562 40.8125 67.167969 34.269531 C 73.363281 27.726562 81.777344 23.871094 90.773438 23.871094 L 186.476562 23.871094 C 197.929688 23.871094 208.679688 30.179688 214.523438 39.996094 L 226.675781 60.679688 C 236.722656 77.507812 255.1875 88.257812 274.820312 88.257812 L 421.003906 88.257812 C 439 88.257812 453.371094 102.511719 453.371094 120.625 L 453.371094 147.734375 L 62.261719 147.734375 Z M 488.542969 184.195312 L 460.03125 392.660156 C 457.8125 408.785156 443.90625 421.171875 427.664062 421.171875 L 84.929688 421.171875 C 68.6875 421.171875 54.78125 408.785156 52.5625 392.777344 L 23.464844 184.3125 C 23 180.921875 23.933594 177.652344 26.269531 175.082031 C 28.605469 172.507812 31.644531 171.105469 35.035156 171.105469 L 476.976562 171.105469 C 480.363281 171.105469 483.519531 172.394531 485.738281 175.082031 C 488.078125 177.652344 489.011719 180.804688 488.542969 184.195312 Z M 488.542969 184.195312 " style=" stroke:none;fill-rule:nonzero;fill:rgb(0%,0%,0%);fill-opacity:1;" />
<path d="M 306.136719 271.015625 C 328.921875 271.015625 347.5 252.4375 347.5 229.652344 C 347.5 206.863281 328.921875 188.285156 306.136719 188.285156 C 283.347656 188.285156 264.769531 206.863281 264.769531 229.652344 C 264.769531 232.921875 265.121094 236.078125 265.820312 239 L 205.640625 267.863281 C 198.046875 259.800781 187.410156 254.773438 175.492188 254.773438 C 152.707031 254.773438 134.128906 273.355469 134.128906 296.140625 C 134.128906 318.925781 152.707031 337.503906 175.492188 337.503906 C 186.007812 337.503906 195.589844 333.53125 202.835938 327.105469 L 265.355469 355.734375 C 265.003906 357.957031 264.769531 360.292969 264.769531 362.628906 C 264.769531 385.417969 283.347656 403.996094 306.136719 403.996094 C 328.921875 403.996094 347.5 385.417969 347.5 362.628906 C 347.5 339.84375 328.921875 321.265625 306.136719 321.265625 C 294.101562 321.265625 283.230469 326.40625 275.636719 334.703125 L 215.457031 307.125 C 216.390625 303.617188 216.976562 299.878906 216.976562 296.140625 C 216.976562 293.570312 216.742188 291.113281 216.273438 288.777344 L 277.503906 259.449219 C 284.867188 266.578125 294.917969 271.015625 306.136719 271.015625 Z M 306.136719 344.632812 C 316.066406 344.632812 324.128906 352.699219 324.128906 362.628906 C 324.128906 372.5625 316.066406 380.625 306.136719 380.625 C 296.203125 380.625 288.140625 372.5625 288.140625 362.628906 C 288.140625 352.699219 296.203125 344.632812 306.136719 344.632812 Z M 175.492188 314.136719 C 165.558594 314.136719 157.496094 306.074219 157.496094 296.140625 C 157.496094 286.207031 165.558594 278.144531 175.492188 278.144531 C 185.425781 278.144531 193.488281 286.207031 193.488281 296.140625 C 193.488281 306.074219 185.425781 314.136719 175.492188 314.136719 Z M 306.136719 211.652344 C 316.066406 211.652344 324.128906 219.71875 324.128906 229.648438 C 324.128906 239.582031 316.066406 247.644531 306.136719 247.644531 C 296.203125 247.644531 288.140625 239.582031 288.140625 229.648438 C 288.140625 219.71875 296.203125 211.652344 306.136719 211.652344 Z M 306.136719 211.652344 " style=" stroke:none;fill-rule:nonzero;fill:rgb(0%,0%,0%);fill-opacity:1;" />
</g>
</svg>