<svg xmlns="http://www.w3.org/2000/svg" width="86" height="82" viewBox="0 0 86 82">
  <defs>
    <style>
      .cls-1 {
        fill: #022258;
        fill-rule: evenodd;
      }
    </style>
  </defs>
  <path id="Forma_1" data-name="Forma 1" class="cls-1" d="M25.811,14.558a3.932,3.932,0,0,0,3.7,2.659H39.58a3.932,3.932,0,0,0,3.7-2.659c0.526-1.52,2.178-4.92,3.459-6a4.027,4.027,0,0,0,1.374-3.836A3.846,3.846,0,0,0,45.5,1.777C41.433,0.434,37.826.886,35.069,3.083a1.3,1.3,0,0,1-1.653,0c-2.757-2.195-6.362-2.647-10.431-1.3a3.846,3.846,0,0,0-2.614,2.945A4.027,4.027,0,0,0,21.745,8.56,21.251,21.251,0,0,1,25.811,14.558Zm-2.779-9.32a1.148,1.148,0,0,1,.8-0.9,11.285,11.285,0,0,1,3.522-.622,6.805,6.805,0,0,1,4.365,1.473,4.021,4.021,0,0,0,5.038,0c2.034-1.62,4.686-1.906,7.886-.85a1.148,1.148,0,0,1,.8.9A1.312,1.312,0,0,1,44.986,6.5c-2.07,1.747-3.921,6.176-4.268,7.179a1.22,1.22,0,0,1-1.137.84H29.512a1.219,1.219,0,0,1-1.137-.84A23.325,23.325,0,0,0,23.5,6.5,1.309,1.309,0,0,1,23.032,5.238ZM46.063,19.916a1.353,1.353,0,0,0-1.355-1.35,1.328,1.328,0,0,0-.677.206,1.315,1.315,0,0,0-.678-0.206H27.093a1.35,1.35,0,1,0,0,2.7h16.26v1.35H28.448a1.35,1.35,0,1,0,0,2.7H44.607a6.725,6.725,0,0,0,9.1-.4,1.352,1.352,0,0,0-1.916-1.908,4.17,4.17,0,0,1-5.726.019V19.916Zm-13.55,16.2c-8.687,0-18.97,10.975-18.97,20.246a1.355,1.355,0,0,0,2.71,0c0-7.707,9.118-17.547,16.26-17.547A1.35,1.35,0,1,0,32.513,36.113Zm37.94,8.1a43.106,43.106,0,0,0-4.738.271,26.739,26.739,0,0,0-7.27-8.509l-9.759-6.607a12.072,12.072,0,0,0-7.108-2.7H31.04a11.725,11.725,0,0,0-7.181,2.459l-9.591,6.961a26.393,26.393,0,0,0-7.522,32.62c2.051,4.029,5.478,8.9,10.164,9.213,0.367,0.024.738,0.038,1.112,0.038H44.39A10.834,10.834,0,0,0,62.1,76.783a29.128,29.128,0,0,0,8.349,1.173c6.516,0,13.55-2.064,13.55-5.4V65.134H83.9A2.356,2.356,0,0,0,84,64.459V48.937C84,45.206,75.486,44.212,70.453,44.212ZM81.19,48.924a0.953,0.953,0,0,1-.091.088,2.3,2.3,0,0,1-.188.132c-0.089.057-.2,0.116-0.316,0.175-0.1.049-.2,0.1-0.312,0.148-0.142.064-.31,0.127-0.482,0.192-0.138.051-.278,0.1-0.435,0.155-0.2.065-.425,0.13-0.654,0.193-0.179.05-.355,0.1-0.553,0.15-0.257.063-.547,0.121-0.836,0.18-0.218.044-.425,0.09-0.661,0.132-0.325.057-.688,0.105-1.047,0.154-0.245.034-.474,0.072-0.736,0.1-0.427.049-.9,0.082-1.366,0.116-0.238.018-.455,0.042-0.7,0.057-0.74.041-1.523,0.065-2.359,0.065S68.83,50.937,68.09,50.9c-0.249-.014-0.466-0.038-0.7-0.057-0.469-.035-0.939-0.069-1.366-0.116-0.261-.03-0.49-0.067-0.736-0.1-0.359-.049-0.722-0.1-1.047-0.154-0.236-.042-0.443-0.088-0.661-0.132-0.289-.059-0.579-0.117-0.836-0.18-0.2-.048-0.373-0.1-0.553-0.15-0.229-.063-0.455-0.128-0.654-0.193-0.157-.051-0.3-0.1-0.435-0.155-0.172-.065-0.34-0.128-0.482-0.192-0.115-.05-0.216-0.1-0.312-0.148-0.118-.061-0.226-0.12-0.316-0.175a2.021,2.021,0,0,1-.188-0.132,0.8,0.8,0,0,1-.084-0.081c0.016-.014.027-0.027,0.046-0.042a2.211,2.211,0,0,1,.192-0.135,4.3,4.3,0,0,1,.408-0.228c0.088-.044.175-0.088,0.278-0.132s0.23-.094.354-0.143c0.146-.057.306-0.113,0.476-0.17,0.122-.041.24-0.082,0.375-0.123,0.3-.092.636-0.182,1-0.27,0.168-.041.363-0.077,0.546-0.115,0.221-.047.447-0.093,0.687-0.136,0.264-.047.545-0.092,0.835-0.135a37.153,37.153,0,0,1,5.535-.389C76.85,46.911,80.432,48.227,81.19,48.924Zm-20.662,11.1c0.122,0.051.248,0.1,0.375,0.15,0.236,0.092.477,0.178,0.726,0.263,0.131,0.044.26,0.088,0.394,0.13,0.286,0.089.58,0.171,0.881,0.251,0.106,0.028.207,0.059,0.314,0.085,0.41,0.1.831,0.2,1.262,0.281,0.089,0.018.183,0.031,0.274,0.049q0.518,0.1,1.05.177c0.152,0.023.3,0.042,0.458,0.062,0.3,0.041.611,0.077,0.921,0.109l0.488,0.047c0.32,0.028.641,0.05,0.963,0.069,0.144,0.008.287,0.019,0.431,0.026,0.463,0.02.925,0.034,1.386,0.034s0.923-.014,1.386-0.034c0.146-.007.293-0.018,0.439-0.026,0.318-.019.637-0.041,0.954-0.068,0.167-.015.333-0.031,0.5-0.049q0.457-.047.908-0.108c0.157-.02.314-0.041,0.47-0.063,0.35-.051.694-0.111,1.034-0.174,0.1-.018.194-0.032,0.29-0.051q0.642-.128,1.255-0.279c0.114-.028.222-0.061,0.335-0.09,0.294-.078.583-0.159,0.862-0.247,0.137-.043.268-0.088,0.4-0.132q0.372-.126.724-0.262c0.126-.049.252-0.1,0.374-0.15,0.244-.1.476-0.211,0.7-0.321,0.07-.035.15-0.065,0.218-0.1l0.008,4.756c-0.318.768-3.82,2.48-9.344,2.754-0.5.017-.976,0.042-1.511,0.042A25.392,25.392,0,0,1,62.266,65.9l-0.026-.041c-0.16-.278-0.329-0.549-0.512-0.811-0.027-.039-0.058-0.076-0.087-0.115-0.169-.236-0.344-0.467-0.533-0.688-0.057-.066-0.118-0.127-0.176-0.193-0.167-.188-0.335-0.372-0.514-0.548-0.092-.09-0.191-0.171-0.286-0.259-0.157-.143-0.312-0.286-0.476-0.42-0.016-.014-0.03-0.028-0.046-0.04,0-.528,0-1.7,0-3.176,0.069,0.036.152,0.068,0.222,0.1C60.06,59.82,60.288,59.927,60.528,60.028Zm-17.9,15.228h-24.6c-0.313,0-.625-0.011-0.932-0.031-2.663-.18-5.478-2.929-7.928-7.741A23.682,23.682,0,0,1,15.9,38.236l9.591-6.961a9.04,9.04,0,0,1,5.546-1.911H41.577A9.524,9.524,0,0,1,47.1,31.555l9.759,6.606a23.914,23.914,0,0,1,6.023,6.75,12.752,12.752,0,0,0-4.514,1.678l-0.093.065a4.41,4.41,0,0,0-.473.393c-0.061.058-.115,0.117-0.171,0.178a3.054,3.054,0,0,0-.294.363,2.615,2.615,0,0,0-.176.327,2.506,2.506,0,0,0-.138.3,2.3,2.3,0,0,0-.121.721V61.2a10.667,10.667,0,0,0-1.415-.455c-0.064-.016-0.127-0.034-0.191-0.049a10.742,10.742,0,0,0-1.453-.24c-0.056-.005-0.111,0-0.167-0.008-0.278-.022-0.557-0.042-0.84-0.042-0.149,0-.293.016-0.44,0.022-0.115,0-.23.01-0.346,0.018a10.967,10.967,0,0,0-1.423.186,0.2,0.2,0,0,0-.027,0c-0.037.008-.071,0.023-0.107,0.031a10.409,10.409,0,0,0-1.241.359c-0.146.051-.293,0.1-0.436,0.159a10.77,10.77,0,0,0-1.173.545c-0.142.077-.275,0.166-0.413,0.25-0.264.161-.522,0.329-0.77,0.512-0.146.107-.294,0.21-0.435,0.324a10.671,10.671,0,0,0-.909.822c-0.126.127-.241,0.262-0.36,0.4-0.2.227-.4,0.463-0.58,0.706-0.1.132-.2,0.258-0.3,0.394a10.678,10.678,0,0,0-.648,1.085c-0.076.146-.145,0.294-0.215,0.444a10.558,10.558,0,0,0-.413,1.016c-0.035.1-.079,0.2-0.11,0.3a10.666,10.666,0,0,0-.322,1.366c-0.011.059-.032,0.116-0.042,0.175s-0.011.151-.02,0.224c-0.043.317-.07,0.638-0.085,0.964-0.005.116-.016,0.231-0.018,0.348,0,0.05-.008.1-0.008,0.148,0,0.215.02,0.424,0.032,0.634A12.892,12.892,0,0,0,42.627,75.255ZM52.838,79.3a8.12,8.12,0,0,1-8.125-8c0-.105,0-0.209.007-0.314,0-.148.011-0.3,0.023-0.443,0.009-.124.024-0.247,0.039-0.37s0.035-.25.057-0.373a7.825,7.825,0,0,1,.247-1.034c0.011-.036.027-0.07,0.039-0.105a7.888,7.888,0,0,1,.409-0.989l0.045-.092a8.34,8.34,0,0,1,3.281-3.43l0.015-.009a8.058,8.058,0,0,1,.989-0.466c0.088-.035.178-0.066,0.266-0.1a7.641,7.641,0,0,1,.923-0.269c0.043-.009.084-0.024,0.127-0.032a8.316,8.316,0,0,1,1.176-.146c0.075,0,.149-0.009.225-0.011a8.132,8.132,0,0,1,1.191.044c0.023,0,.045.007,0.066,0.011a8,8,0,0,1,1.229.25l0.018,0a8.591,8.591,0,0,1,2.278,1.051l0.054,0.038c0.047,0.032.091,0.069,0.137,0.1a8.2,8.2,0,0,1,.648.513c0.05,0.043.1,0.089,0.148,0.134a8.28,8.28,0,0,1,.591.6L59,65.933a8.075,8.075,0,0,1,1.1,1.644c0.069,0.135.138,0.271,0.2,0.41,0.1,0.236.192,0.475,0.272,0.717,0.005,0.018.014,0.035,0.019,0.053,0.079,0.244.142,0.493,0.2,0.742,0,0.02.011,0.039,0.015,0.058,0.051,0.248.09,0.5,0.118,0.752,0,0.023.008,0.043,0.011,0.066a7.98,7.98,0,0,1,0,1.686c0,0.042-.014.081-0.019,0.123-0.03.244-.066,0.487-0.119,0.726-0.005.027-.015,0.053-0.02,0.08a7.887,7.887,0,0,1-.211.761l-0.012.032q-0.134.393-.309,0.775A8.146,8.146,0,0,1,52.838,79.3Zm17.615-4.049a26.673,26.673,0,0,1-7.234-.953,0.018,0.018,0,0,0,0-.008,10.785,10.785,0,0,0,.3-1.347c0.018-.109.035-0.217,0.05-0.328a10.8,10.8,0,0,0,.1-1.413c0-.349-0.019-0.7-0.053-1.041-0.012-.124-0.034-0.244-0.05-0.367-0.023-.174-0.039-0.35-0.07-0.521a39.146,39.146,0,0,0,6.948.579c3.239,0,7.92-.412,10.846-1.7l0.008,4.3C80.96,73.3,76.848,75.255,70.453,75.255Zm0-16.2c-6.373,0-10.475-1.945-10.833-2.691,0-1.539,0-3.1,0-4.4,0.034,0.015.075,0.027,0.11,0.042,0.324,0.138.663,0.267,1.023,0.386,0.019,0.007.038,0.014,0.058,0.019,0.368,0.119.757,0.225,1.154,0.324,0.13,0.032.264,0.062,0.4,0.092,0.29,0.066.583,0.13,0.882,0.186,0.145,0.028.289,0.055,0.435,0.081,0.329,0.058.66,0.109,0.995,0.158L64.993,53.3c0.438,0.058.875,0.109,1.31,0.151,0.11,0.011.217,0.019,0.327,0.028,0.335,0.03.665,0.057,0.993,0.078l0.42,0.026c0.3,0.018.6,0.031,0.892,0.042L69.3,53.64c0.4,0.011.784,0.017,1.15,0.017S71.2,53.65,71.6,53.64l0.373-.014c0.29-.011.584-0.024,0.886-0.042l0.425-.026q0.492-.032.995-0.08c0.108-.009.214-0.017,0.323-0.028,0.436-.043.874-0.093,1.312-0.152l0.32-.047q0.5-.071.992-0.158c0.148-.026.291-0.054,0.436-0.081,0.3-.058.593-0.12,0.885-0.188,0.133-.031.266-0.059,0.4-0.092,0.405-.1.8-0.209,1.176-0.331,0.019-.007.035-0.014,0.054-0.019,0.354-.116.688-0.244,1.007-0.379,0.038-.016.083-0.03,0.121-0.046l0.008,4.3C80.96,57.1,76.848,59.059,70.453,59.059Z"/>
</svg>
