<?xml version="1.0" encoding="UTF-8"?>
<svg width="67px" height="80px" viewBox="0 0 67 80" version="1.1" xmlns="http://www.w3.org/2000/svg" xmlns:xlink="http://www.w3.org/1999/xlink">
    <!-- Generator: Sketch 51 (57462) - http://www.bohemiancoding.com/sketch -->
    <title>paper-roll</title>
    <desc>Created with Sketch.</desc>
    <defs></defs>
    <g id="Page-1" stroke="none" stroke-width="1" fill="none" fill-rule="evenodd">
        <g id="paper-roll" fill="#0F3860" fill-rule="nonzero">
            <path d="M66.29,78.25 C66.29,79.1 65.59,79.79 64.74,79.79 L22.34,79.79 C21.49,79.79 20.8,79.1 20.8,78.25 L20.8,68.43 L5.05,68.43 C2.4269342,68.474688 0.260118127,66.3927575 0.2,63.77 L0.2,20.42 C0.2,19.57 0.89,18.88 1.74,18.88 L6.81,18.88 L6.81,7.82 C6.81,7.72 6.81,7.62 6.84,7.52 C7.58,3.62 11.15,0.79 15.33,0.79 L15.44,0.79 C15.44,0.79 54.64,0.73 54.7,0.74 C57.94,1.17 60.61,2.54 62.65,4.83 C64.5663231,7.09070842 65.8162185,9.83978591 66.26,12.77 C66.28,12.87 66.29,78.25 66.29,78.25 Z M6.81,21.97 L3.28,21.97 L3.28,63.77 C3.28,64.63 4.08,65.34 5.05,65.34 C5.97,65.34 6.73,64.71 6.81,63.9 L6.81,21.97 Z M20.8,8.18 C20.43,6.03 17.84,3.88 15.33,3.88 C12.7844105,3.81022663 10.5298396,5.51257295 9.9,7.98 L9.9,63.61 L9.62,65.34 L20.8,65.34 L20.8,8.18 Z M63.2,76.71 L63.2,13.19 C62.48,9.33 60.36,4.64 54.4,3.82 L22.05,3.86 C22.12,3.94 23.89,5.13 23.89,8.06 L23.89,76.71 L63.2,76.71 Z M55.16,15.91 C55.1131675,15.3283513 55.3969742,14.7696896 55.8943328,14.4644964 C56.3916914,14.1593031 57.0183086,14.1593031 57.5156672,14.4644964 C58.0130258,14.7696896 58.2968325,15.3283513 58.25,15.91 C58.2499996,16.7660411 57.5560411,17.4599993 56.7,17.4599993 C55.8439589,17.4599993 55.1500004,16.7660411 55.15,15.91 L55.16,15.91 Z M29.38,15.91 C29.38,15.05 30.08,14.36 30.93,14.36 L50.53,14.36 C51.3351974,14.424832 51.9556014,15.0971968 51.9556014,15.905 C51.9556014,16.7128032 51.3351974,17.385168 50.53,17.45 L30.93,17.45 C30.07,17.45 29.38,16.75 29.38,15.9 L29.38,15.91 Z M29.38,24.14 C29.38,23.29 30.08,22.59 30.93,22.59 L50.53,22.59 C51.3860411,22.5900004 52.0799993,23.2839589 52.0799993,24.14 C52.0799993,24.9960411 51.3860411,25.6899996 50.53,25.69 L30.93,25.69 C30.08,25.69 29.38,24.99 29.38,24.14 Z M55.16,24.14 C55.1131675,23.5583513 55.3969742,22.9996896 55.8943328,22.6944964 C56.3916914,22.3893031 57.0183086,22.3893031 57.5156672,22.6944964 C58.0130258,22.9996896 58.2968325,23.5583513 58.25,24.14 C58.2499996,24.9960411 57.5560411,25.6899993 56.7,25.6899993 C55.8439589,25.6899993 55.1500004,24.9960411 55.15,24.14 L55.16,24.14 Z M55.16,32.37 C55.16,31.5167201 55.8517201,30.825 56.705,30.825 C57.5582799,30.825 58.25,31.5167201 58.25,32.37 C58.25,33.2260414 57.5560414,33.92 56.7,33.92 C55.8439586,33.92 55.15,33.2260414 55.15,32.37 L55.16,32.37 Z M29.38,32.37 C29.38,31.52 30.08,30.83 30.93,30.83 L50.53,30.83 C51.3351974,30.894832 51.9556014,31.5671968 51.9556014,32.375 C51.9556014,33.1828032 51.3351974,33.855168 50.53,33.92 L30.93,33.92 C30.07,33.92 29.38,33.22 29.38,32.37 Z M55.16,40.61 C55.1131675,40.0283513 55.3969742,39.4696896 55.8943328,39.1644964 C56.3916914,38.8593031 57.0183086,38.8593031 57.5156672,39.1644964 C58.0130258,39.4696896 58.2968325,40.0283513 58.25,40.61 C58.2499996,41.4660411 57.5560411,42.1599993 56.7,42.1599993 C55.8439589,42.1599993 55.1500004,41.4660411 55.15,40.61 L55.16,40.61 Z M29.38,40.61 C29.38,39.76 30.08,39.06 30.93,39.06 L50.53,39.06 C51.3860411,39.0600004 52.0799993,39.7539589 52.0799993,40.61 C52.0799993,41.4660411 51.3860411,42.1599996 50.53,42.16 L30.93,42.16 C30.08,42.16 29.38,41.46 29.38,40.61 Z M59.02,48.84 C59.02,49.7 58.32,50.39 57.47,50.39 L30.93,50.39 C30.0767201,50.39 29.385,49.6982799 29.385,48.845 C29.385,47.9917201 30.0767201,47.3 30.93,47.3 L57.47,47.3 C58.33,47.3 59.02,48 59.02,48.84 Z M59.02,57.08 C59.02,57.93 58.32,58.62 57.47,58.62 L30.93,58.62 C30.3798108,58.6200003 29.8714149,58.326478 29.5963203,57.8500002 C29.3212256,57.3735224 29.3212256,56.7864776 29.5963203,56.3099998 C29.8714149,55.833522 30.3798108,55.5399997 30.93,55.54 L57.47,55.54 C58.33,55.54 59.02,56.23 59.02,57.08 Z M59.02,65.32 C59.02,66.17 58.32,66.86 57.47,66.86 L30.93,66.86 C30.0767201,66.86 29.385,66.1682799 29.385,65.315 C29.385,64.4617201 30.0767201,63.77 30.93,63.77 L57.47,63.77 C58.33,63.77 59.02,64.47 59.02,65.32 Z" id="5ay4a"></path>
        </g>
    </g>
</svg>