<svg id="Layer_1" data-name="Layer 1" xmlns="http://www.w3.org/2000/svg" viewBox="0 0 512 512"><path d="M330.7,512H288a10.7,10.7,0,0,1-10.7-10.7V458.7a11.1,11.1,0,0,1,3.1-7.6L451.1,280.4a10.8,10.8,0,0,1,15.1,0l42.7,42.7a10.8,10.8,0,0,1,0,15.1L338.2,508.9A10.6,10.6,0,0,1,330.7,512Zm-32-21.3h27.6l160-160-27.6-27.6-160,160Z"/><path d="M458.7,384a10.6,10.6,0,0,1-7.6-3.1l-42.7-42.7a10.7,10.7,0,1,1,15.1-15.1l42.7,42.7a10.7,10.7,0,0,1-7.5,18.2Z"/><path d="M234.7,469.3H10.7A10.6,10.6,0,0,1,0,458.7v-320a10.7,10.7,0,0,1,3.1-7.6l128-128A10.7,10.7,0,0,1,138.7,0H373.3A10.7,10.7,0,0,1,384,10.7V309.3a10.7,10.7,0,1,1-21.3,0V21.3H143.1L21.3,143.1V448H234.7a10.7,10.7,0,0,1,0,21.3Z"/><path d="M138.7,149.3H10.7a10.7,10.7,0,1,1,0-21.3H128V10.7a10.7,10.7,0,1,1,21.3,0v128A10.5,10.5,0,0,1,138.7,149.3Z"/><path d="M254.4,234.7H61.9c-10.6,0-19.2-4.8-19.2-10.7s8.6-10.7,19.2-10.7H254.4c10.7,0,19.3,4.8,19.3,10.7S265.1,234.7,254.4,234.7Z"/><path d="M288,320H53.3a10.7,10.7,0,0,1,0-21.3H288a10.7,10.7,0,1,1,0,21.3Z"/><path d="M138.7,405.3H53.3a10.7,10.7,0,0,1,0-21.3h85.4a10.7,10.7,0,0,1,0,21.3Z"/></svg>