<?xml version="1.0" encoding="UTF-8"?>
<svg width="40px" height="40px" viewBox="0 0 40 40" version="1.1" xmlns="http://www.w3.org/2000/svg" xmlns:xlink="http://www.w3.org/1999/xlink">
    <!-- Generator: Sketch 51 (57462) - http://www.bohemiancoding.com/sketch -->
    <title>pencil</title>
    <desc>Created with Sketch.</desc>
    <defs></defs>
    <g id="Page-1" stroke="none" stroke-width="1" fill="none" fill-rule="evenodd">
        <g id="pencil" fill="#45B7EC" fill-rule="nonzero">
            <path d="M39.44,9.23 C39.44,11.53 38.54,13.7 36.91,15.33 L14.55,37.67 C14.3428015,37.8838464 14.0577608,38.004559 13.76,38.004559 C13.4622392,38.004559 13.1771985,37.8838464 12.97,37.67 L3.97,28.67 L2.8,37.22 L8.73,36.42 C9.13013746,36.3664102 9.52846956,36.5303619 9.77494845,36.8500962 C10.0214273,37.1698305 10.078607,37.5967721 9.92494845,37.9700962 C9.77128988,38.3434203 9.43013746,38.6064102 9.03,38.66 L1.63,39.66 L1.49,39.66 C1.16740972,39.6604627 0.860576281,39.520564 0.649374945,39.2767225 C0.43817361,39.0328809 0.343500121,38.7092217 0.39,38.39 L2.04,26.12 C2.07,25.88 2.18,25.66 2.35,25.48 L24.71,3.14 C27.1745103,0.66350892 30.890143,-0.0804134756 34.118123,1.25636031 C37.346103,2.59313409 39.4479187,5.74618315 39.44,9.24 L39.44,9.23 Z M4.74,26.28 L8.5,30.04 L28.9,9.64 L25.15,5.89 L4.74,26.28 Z M34.17,14.9 L30.5,11.23 L10.1,31.63 L13.77,35.29 L34.17,14.9 Z M37.19,9.23 C37.2060709,6.7527817 35.7822837,4.49164768 33.5413872,3.43559299 C31.3004907,2.3795383 28.6503081,2.72075552 26.75,4.31 L35.73,13.29 C36.6763508,12.1489718 37.1929497,10.7124022 37.19,9.23 Z" id="x1lea"></path>
        </g>
    </g>
</svg>