<?xml version="1.0" encoding="UTF-8"?>
<svg width="91px" height="75px" viewBox="0 0 91 75" version="1.1" xmlns="http://www.w3.org/2000/svg" xmlns:xlink="http://www.w3.org/1999/xlink">
    <!-- Generator: Sketch 51 (57462) - http://www.bohemiancoding.com/sketch -->
    <title>people</title>
    <desc>Created with Sketch.</desc>
    <defs></defs>
    <g id="Page-1" stroke="none" stroke-width="1" fill="none" fill-rule="evenodd">
        <g id="people" fill="#0F3860" fill-rule="nonzero">
            <path d="M41.8,47.68 L41.61,47.67 C40.2574252,47.6298537 38.9216054,47.3593079 37.66,46.87 L37.3,46.73 L27.57,60.77 C27.01,61.58 25.66,61.58 25.09,60.77 L15.37,46.73 L15,46.87 C13.6811796,47.3777737 12.2830335,47.6486011 10.87,47.67 C8.87118601,47.6699982 6.95438402,48.4647078 5.54194728,49.8790203 C4.12951054,51.2933328 3.33734553,53.2111878 3.34,55.21 L3.34,65.59 L37.3,65.59 C37.77,65.59 38.2,65.8 38.47,66.15 L38.47,61.17 C38.4530515,55.8034024 42.4856574,51.2877464 47.82,50.7 C46.3972972,48.8004395 44.1632701,47.6815735 41.79,47.68 L41.8,47.68 Z M37.3,68.6 L1.84,68.6 C1.01157288,68.6 0.34,67.9284271 0.34,67.1 L0.34,55.2 C0.317346811,49.4511936 4.92190174,44.753032 10.67,44.66 C15.2417324,44.6595597 19.0867906,41.2316945 19.61,36.69 L19.64,36.4 L19.41,36.23 C15.63,33.48 13.03,28.7 12.27,23.12 L12.25,22.97 L12.15,22.85 C12.04,22.72 11.95,22.58 11.89,22.43 C11.58,21.67 11.31,20.88 11.11,20.06 C9.06,12.06 12.81,3.97 19.46,2.05 C20.11,1.86 20.8,1.73 21.5,1.67 L21.68,1.63 C23.57,0.7 25.57,0.23 27.62,0.23 C35.6,0.23 42.1,7.24 42.1,15.86 C42.1,18.1 41.67,20.26 40.81,22.3 C40.75,22.46 40.65,22.6 40.53,22.73 L40.43,22.85 L40.41,23.01 C39.9859838,26.5733821 38.6685508,29.9718777 36.58,32.89 C35.6501031,34.1689782 34.5305618,35.2986359 33.26,36.24 L33.02,36.41 L33.05,36.71 C33.585676,41.3246009 37.5455594,44.7732521 42.19,44.67 C45.469598,44.805328 48.5014826,46.4523689 50.4,49.13 C50.6698039,49.5102925 50.7474135,49.9944284 50.61,50.44 C54.4211688,49.6620841 57.3013046,46.5237848 57.75,42.66 L57.78,42.36 L57.54,42.19 C56.72,41.59 55.94,40.89 55.24,40.11 C53.4801855,38.1020632 52.152626,35.7533042 51.34,33.21 L51.04,32.26 L50.46,33.06 C50.22,33.4 50.01,33.74 49.84,34.01 C49.5529546,34.4917974 49.0211176,34.773225 48.4613051,34.7395521 C47.9014927,34.7058791 47.4072242,34.3627309 47.18,33.85 C45.852707,30.9385892 45.1281726,27.7887354 45.05,24.59 C44.8131004,19.3149935 46.4024309,14.1196489 49.55,9.88 C52.68,5.79 56.98,3.45 61.65,3.31 C63.9,3.23 66.1,3.67 68.17,4.61 L68.29,4.67 L68.41,4.66 C68.5,4.66 69.01,4.63 69.24,4.64 C73.27,4.68 77.08,6.55 79.97,9.91 C82.8817146,13.3993444 84.5182245,17.7763029 84.61,22.32 C84.8141702,26.9446621 83.3996678,31.4958237 80.61,35.19 C80.8092199,35.8689974 80.506819,36.5948716 79.8844485,36.9315925 C79.262078,37.2683134 78.4890346,37.1242863 78.0296831,36.5860279 C77.5703316,36.0477694 77.5496243,35.2616963 77.98,34.7 L77.58,33.36 L77.04,34.66 C75.8889273,37.6440147 73.933178,40.2505265 71.39,42.19 L71.16,42.36 L71.19,42.65 C71.7147914,47.25701 75.6539095,50.7113136 80.29,50.63 L80.31,50.63 C85.991349,50.8140106 90.4946337,55.4857253 90.47,61.17 L90.47,73.06 C90.47,73.89 89.79,74.56 88.97,74.56 L39.97,74.56 C39.1415729,74.56 38.47,73.8884271 38.47,73.06 L38.47,68.04 C38.19,68.38 37.77,68.6 37.3,68.6 Z M14.67,18.46 C16.0221504,16.8428911 17.0019755,14.9481073 17.54,12.91 C17.7487249,12.1439606 18.4206899,11.5948686 19.2129571,11.5429537 C20.0052243,11.4910387 20.7430965,11.9477482 21.05,12.68 C21.4923478,13.7823595 22.5622055,14.5035229 23.75,14.5 L34.24,14.5 C35.71,14.5 37.1,14.97 38.27,15.85 L39.1,16.48 L39.07,15.44 C38.87,8.6 33.84,3.24 27.62,3.24 C25.92,3.24 24.26,3.67 22.7,4.49 C22.5,4.59 22.29,4.65 22.07,4.66 C21.46,4.69 20.87,4.78 20.29,4.95 C15.49,6.34 12.69,12.05 13.79,18.23 L13.99,19.28 L14.67,18.46 Z M26.33,35.56 C29.25,35.56 32.03,33.96 34.16,31.09 C36.36,28.1 37.59,24.09 37.61,19.82 L37.61,19.7 L37.56,19.6 C36.9441507,18.3256909 35.6553145,17.5143452 34.24,17.51 L23.74,17.51 C22.4542807,17.5085801 21.2042169,17.0872103 20.18,16.31 L19.68,15.97 L19.43,16.52 C18.47,18.6 17.08,20.52 15.39,22.07 L15.19,22.24 L15.23,22.5 C15.5954771,25.8329633 16.8760575,28.9998041 18.93,31.65 C21,34.17 23.63,35.55 26.33,35.55 L26.33,35.56 Z M34.68,45.2 L34.33,44.91 C32.33,43.25 30.9,40.94 30.3,38.42 L30.18,37.9 L29.67,38.06 C27.5,38.73 25.18,38.74 23,38.06 L22.48,37.9 L22.36,38.42 C21.7527505,40.961761 20.3389249,43.2386168 18.33,44.91 L17.98,45.21 L26.33,57.26 L34.68,45.2 Z M55.34,25.63 C57.2284366,24.9280628 59.2367141,24.6052432 61.25,24.68 C63.6816551,24.8356874 65.9940306,23.6098964 67.23,21.51 C67.61,20.81 67.95,20.09 68.23,19.34 C68.376868,18.9573096 68.672074,18.650159 69.0486411,18.4882352 C69.4252082,18.3263113 69.8512121,18.3233417 70.23,18.48 C74.1830655,20.1932533 77.3610073,23.3106291 79.15,27.23 C79.38,27.7 79.58,28.19 79.77,28.68 L80.27,30.01 L80.71,28.66 C81.37,26.69 81.66,24.59 81.59,22.42 C81.5248538,18.5656849 80.149388,14.8484002 77.69,11.88 C75.36,9.18 72.34,7.68 69.17,7.66 L68.49,7.69 L68.06,7.71 C67.81,7.73 67.55,7.66 67.33,7.56 C65.5928378,6.70502242 63.6757428,6.2797634 61.74,6.32 C57.99,6.44 54.51,8.36 51.94,11.72 C49.2188211,15.4082564 47.8520649,19.9217303 48.07,24.5 C48.1048253,26.0871361 48.3263494,27.6646564 48.73,29.2 L48.96,30.1 L49.58,29.42 C51.225028,27.7814769 53.1842512,26.4923353 55.34,25.63 Z M64.46,41.52 C67.16,41.52 69.79,40.13 71.86,37.62 C73.99,35 75.35,31.4 75.66,27.49 L75.68,27.36 L75.71,27.17 L75.61,27.01 C74.4316303,25.0584834 72.8114806,23.4109315 70.88,22.2 L70.42,21.91 L70.17,22.4 L69.87,22.98 C68.090874,26.0757335 64.7144029,27.8994926 61.15,27.69 L60.32,27.69 C58.0223347,27.7661389 55.7917141,28.4831241 53.88,29.76 L53.59,29.95 L53.67,30.28 C55.1,36.9 59.54,41.52 64.46,41.52 Z M54.41,52.25 L54.51,52.63 C55.7568103,57.1013293 59.8280927,60.1956674 64.47,60.2 C69.09,60.2 73.19,57.09 74.42,52.63 L74.52,52.25 L74.19,52.06 C71.2953419,50.4035087 69.2143185,47.6239852 68.44,44.38 L68.31,43.86 L67.81,44.02 C65.63,44.7 63.35,44.71 61.13,44.02 L60.63,43.86 L60.5,44.38 C59.7256815,47.6239852 57.6446581,50.4035087 54.75,52.06 L54.41,52.25 Z M87.46,61.17 C87.4632767,59.1396041 86.6464645,57.193929 85.1948415,55.7743133 C83.7432185,54.3546975 81.7798183,53.5814619 79.75,53.63 C79.09,53.61 78.43,53.53 77.8,53.41 L77.36,53.33 L77.23,53.76 C75.494424,59.3583075 70.3310695,63.1863117 64.47,63.22 C58.6078666,63.1895037 53.4428309,59.3602531 51.71,53.76 L51.58,53.33 L51.13,53.41 C50.4313624,53.548145 49.7220088,53.6251031 49.01,53.64 C47.0129198,53.64 45.0976349,54.433337 43.6854859,55.8454859 C42.273337,57.2576349 41.48,59.1729198 41.48,61.17 L41.48,71.55 L87.4600098,71.55 L87.46,61.17 Z" id="ztxxa"></path>
        </g>
    </g>
</svg>