<?xml version="1.0" encoding="UTF-8"?>
<svg width="59px" height="59px" viewBox="0 0 59 59" version="1.1" xmlns="http://www.w3.org/2000/svg" xmlns:xlink="http://www.w3.org/1999/xlink">
    <!-- Generator: Sketch 50.2 (55047) - http://www.bohemiancoding.com/sketch -->
    <title>plus</title>
    <desc>Created with Sketch.</desc>
    <defs></defs>
    <g id="Page-1" stroke="none" stroke-width="1" fill="none" fill-rule="evenodd">
        <g id="plus" fill="#F6F7F8" fill-rule="nonzero">
            <path d="M1.88,27.75 L27.25,27.75 L27.25,2.37 C27.3218004,1.38748688 28.1398668,0.627021896 29.125,0.627021896 C30.1101332,0.627021896 30.9281996,1.38748688 31,2.37 L31,27.75 L56.38,27.75 C57.3625131,27.8218004 58.1229781,28.6398668 58.1229781,29.625 C58.1229781,30.6101332 57.3625131,31.4281996 56.38,31.5 L31,31.5 L31,56.88 C30.9281996,57.8625131 30.1101332,58.6229781 29.125,58.6229781 C28.1398668,58.6229781 27.3218004,57.8625131 27.25,56.88 L27.25,31.5 L1.87,31.5 C0.887486876,31.4281996 0.127021896,30.6101332 0.127021896,29.625 C0.127021896,28.6398668 0.887486876,27.8218004 1.87,27.75 L1.88,27.75 Z" id="h0hwa"></path>
        </g>
    </g>
</svg>