<?xml version="1.0" encoding="UTF-8"?>
<svg width="38px" height="39px" viewBox="0 0 38 39" version="1.1" xmlns="http://www.w3.org/2000/svg" xmlns:xlink="http://www.w3.org/1999/xlink">
    <!-- Generator: Sketch 50.2 (55047) - http://www.bohemiancoding.com/sketch -->
    <title>portfolio</title>
    <desc>Created with Sketch.</desc>
    <defs></defs>
    <g id="Page-1" stroke="none" stroke-width="1" fill="none" fill-rule="evenodd">
        <g id="portfolio" fill="#0E3A63" fill-rule="nonzero">
            <path d="M37.71,10.66 L37.71,36.01 C37.71,36.5934763 37.478215,37.1530549 37.0656349,37.5656349 C36.6530549,37.978215 36.0934763,38.21 35.51,38.21 L2.41,38.21 C1.19497355,38.21 0.21,37.2250264 0.21,36.01 L0.21,10.66 C0.21,9.45 1.19,8.46 2.41,8.46 L10.9,8.46 L10.9,5.83 C10.9,3 13.2,0.7 16.03,0.7 L21.89,0.7 C24.72,0.7 27.02,3 27.02,5.83 L27.02,8.46 L35.52,8.46 C36.72,8.46 37.72,9.45 37.72,10.66 L37.71,10.66 Z M12.36,8.46 L13.83,8.46 L13.83,5.83 C13.83,4.62 14.82,3.63 16.03,3.63 L21.89,3.63 C23.09,3.63 24.09,4.62 24.09,5.83 L24.09,8.46 L25.55,8.46 L25.55,5.83 C25.5500075,3.8070138 23.9129787,2.16551222 21.89,2.16 L16.03,2.16 C14.003115,2.16 12.36,3.80311497 12.36,5.83 L12.36,8.46 Z M22.62,8.46 L22.62,5.83 C22.62,5.43 22.29,5.09 21.89,5.09 L16.03,5.09 C15.63,5.09 15.29,5.42 15.29,5.83 L15.29,8.46 L22.62,8.46 Z M1.67,10.66 L1.67,15.79 L6.5,15.79 L6.5,13.59 C6.5,13.19 6.83,12.86 7.24,12.86 L11.64,12.86 C12.04,12.86 12.36,13.19 12.36,13.59 L12.36,15.79 L25.55,15.79 L25.55,13.59 C25.55,13.19 25.88,12.86 26.28,12.86 L30.68,12.86 C31.08,12.86 31.41,13.19 31.41,13.59 L31.41,15.79 L36.25,15.79 L36.25,10.66 C36.25,10.26 35.92,9.93 35.51,9.93 L2.41,9.93 C2,9.93 1.67,10.26 1.67,10.66 Z M29.95,14.32 L27.02,14.32 L27.02,20.19 L29.95,20.19 L29.95,14.32 Z M27.02,23.47 L28.41,24.43 L29.95,23.45 L29.95,21.65 L27.02,21.65 L27.02,23.47 Z M10.9,14.32 L7.97,14.32 L7.97,20.19 L10.9,20.19 L10.9,14.32 Z M7.97,23.47 L9.36,24.43 L10.9,23.45 L10.9,21.65 L7.97,21.65 L7.97,23.47 Z M36.25,36.01 L36.25,35.28 L21.89,35.28 C21.4840707,35.28 21.155,34.9509293 21.155,34.545 C21.155,34.1390707 21.4840707,33.81 21.89,33.81 L36.25,33.81 L36.25,17.26 L31.41,17.26 L31.41,20.19 L32.14,20.19 C32.5431679,20.19 32.87,20.5168321 32.87,20.92 C32.87,21.3231679 32.5431679,21.65 32.14,21.65 L31.41,21.65 L31.41,23.85 C31.41,24.1 31.28,24.33 31.07,24.47 L28.78,25.93 C28.53311,26.0831128 28.2189307,26.0752584 27.98,25.91 L25.86,24.45 C25.6648032,24.312696 25.5490455,24.0886489 25.55,23.85 L25.55,21.65 L24.82,21.65 C24.4168321,21.65 24.09,21.3231679 24.09,20.92 C24.09,20.5168321 24.4168321,20.19 24.82,20.19 L25.55,20.19 L25.55,17.26 L12.36,17.26 L12.36,20.19 L13.1,20.19 C13.5031679,20.19 13.83,20.5168321 13.83,20.92 C13.83,21.3231679 13.5031679,21.65 13.1,21.65 L12.36,21.65 L12.36,23.85 C12.36,24.1 12.24,24.33 12.03,24.47 L9.73,25.93 C9.48310999,26.0831128 9.16893073,26.0752584 8.93,25.91 L6.82,24.45 C6.62100788,24.3149249 6.50131592,24.0905024 6.5,23.85 L6.5,21.65 L5.77,21.65 C5.36683213,21.65 5.04,21.3231679 5.04,20.92 C5.04,20.5168321 5.36683213,20.19 5.77,20.19 L6.5,20.19 L6.5,17.26 L1.67,17.26 L1.67,33.81 L22.25,33.81 C22.6559293,33.81 22.985,34.1390707 22.985,34.545 C22.985,34.9509293 22.6559293,35.28 22.25,35.28 L1.67,35.28 L1.67,36.01 C1.67,36.41 2,36.74 2.4,36.74 L35.51,36.74 C35.91,36.74 36.25,36.41 36.25,36.01 Z" id="ywuba"></path>
        </g>
    </g>
</svg>