<?xml version="1.0" encoding="UTF-8"?>
<svg width="35px" height="38px" viewBox="0 0 35 38" version="1.1" xmlns="http://www.w3.org/2000/svg" xmlns:xlink="http://www.w3.org/1999/xlink">
    <!-- Generator: Sketch 50.2 (55047) - http://www.bohemiancoding.com/sketch -->
    <title>power-off</title>
    <desc>Created with Sketch.</desc>
    <defs></defs>
    <g id="Page-1" stroke="none" stroke-width="1" fill="none" fill-rule="evenodd">
        <g id="power-off" fill="#45B7EC" fill-rule="nonzero">
            <path d="M34.88,20.1 C34.88,29.63 27.12,37.39 17.58,37.39 C8.04,37.39 0.28,29.63 0.28,20.09 C0.294051096,14.4164896 3.08906479,9.11044753 7.76,5.89 C7.87460362,5.80968601 8.01012871,5.76451098 8.15,5.76 L8.17,5.76 C8.41,5.76 8.63,5.87 8.76,6.06 C8.87151641,6.2173326 8.91525665,6.41282482 8.88142124,6.60267903 C8.84758584,6.79253325 8.73900323,6.96087882 8.58,7.07 C4.3000933,10.0244292 1.74056066,14.8894095 1.73,20.09 C1.73,28.83 8.84,35.94 17.58,35.94 C26.32,35.94 33.43,28.84 33.43,20.09 C33.43,14.91 30.87,10.04 26.59,7.07 C26.2649186,6.84307158 26.1844532,6.39604149 26.41,6.07 C26.633755,5.74151202 27.081361,5.65646687 27.41,5.88 C32.0800415,9.10468871 34.8714963,14.4148055 34.88,20.09 L34.88,20.1 Z M16.69,16.03 L16.69,1.03 C16.69,0.48 17.02,0.03 17.42,0.03 C17.82,0.03 18.14,0.48 18.14,1.03 L18.14,16.03 C18.14,16.58 17.81,17.04 17.42,17.04 C17.02,17.04 16.69,16.58 16.69,16.03 Z" id="clj9a"></path>
        </g>
    </g>
</svg>