<svg xmlns="http://www.w3.org/2000/svg" width="89" height="85" viewBox="0 0 89 85">
  <defs>
    <style>
      .cls-1 {
        fill: #022258;
        fill-rule: evenodd;
      }
    </style>
  </defs>
  <path id="Forma_1" data-name="Forma 1" class="cls-1" d="M2.184,64.171a14.54,14.54,0,0,1,3.735-6.1A14.807,14.807,0,0,1,16.38,53.8a15.063,15.063,0,0,1,5.837,1.179L36.768,40.639l-19.321-18.9-4.576-.127a1.621,1.621,0,0,1-1.342-.781L4.981,9.985a1.576,1.576,0,0,1,.243-1.944l5.659-5.576a1.635,1.635,0,0,1,1.973-.239L23.866,8.678A1.59,1.59,0,0,1,24.658,10l0.129,4.493L44.06,33.453,57.285,20.421A14.6,14.6,0,0,1,69.35,3.577,14.97,14.97,0,0,1,80.066,5.811,1.579,1.579,0,0,1,80.5,8.023a1.609,1.609,0,0,1-.547.5l-7.34,4.031c-1.617.908-1.94,3.617-.631,5.911s3.816,3.473,5.449,2.581l6.807-3.633a1.629,1.629,0,0,1,2.2.628,1.571,1.571,0,0,1,.2.87A14.72,14.72,0,0,1,70.939,32.544,14.977,14.977,0,0,1,66.048,31.4L54.019,43.252l5.206,5.13,1.18-1.147a3.415,3.415,0,0,1,4.673,0l1.617,1.593a3.153,3.153,0,0,1,.178,4.381L86,72.026a3.154,3.154,0,0,1,.1,4.505q-0.049.051-.1,0.1l-5.465,5.385a3.268,3.268,0,0,1-4.572.1q-0.051-.048-0.1-0.1L56.719,63.167a3.268,3.268,0,0,1-4.446-.175L50.656,61.4a3.154,3.154,0,0,1-.1-4.505q0.049-.051.1-0.1l1.18-1.163-5.174-5.21L30.98,65.876A14.6,14.6,0,0,1,18.844,82.669,14.93,14.93,0,0,1,5.822,78.494a1.577,1.577,0,0,1,.132-2.249,1.621,1.621,0,0,1,.6-0.332l9.1-2.406a2.971,2.971,0,0,0,1.908-1.832,5.768,5.768,0,0,0,.162-3.76c-0.679-2.5-2.829-4.286-4.64-3.808L4.076,66.5a1.542,1.542,0,0,1-.437,0A1.606,1.606,0,0,1,2,64.923,1.575,1.575,0,0,1,2.184,64.171Zm19.9-47.909a1.581,1.581,0,0,1-.469-1.083l-0.129-4.254L12.322,5.556,8.441,9.379,13.777,18.4l4.4,0.159a1.628,1.628,0,0,1,1.1.462L39,38.44,41.78,35.7ZM78.158,79.753L83.7,74.32,64.48,55.424,61.7,58.164l-2.651,2.709ZM54.5,60.634l2.134-2.119,0.825-.812,6.791-6.739L62.637,49.37l-9.7,9.687ZM54.2,53.369l2.781-2.74L51.772,45.5l-2.781,2.74ZM12.289,61.032a5.737,5.737,0,0,1,1.471-.191,7.883,7.883,0,0,1,7.13,6.246,8.91,8.91,0,0,1-.307,5.815,6.127,6.127,0,0,1-4.058,3.664l-6.015,1.593a11.657,11.657,0,0,0,15.848-3.954,11.248,11.248,0,0,0,1.322-8.441,1.578,1.578,0,0,1,.437-1.482L64.561,28.339a1.636,1.636,0,0,1,1.908-.223,11.747,11.747,0,0,0,5.416,1.322,11.537,11.537,0,0,0,10.865-7.5l-3.686,2.023a5.773,5.773,0,0,1-2.813.717,8.447,8.447,0,0,1-7.033-4.525c-2.2-3.872-1.342-8.476,1.892-10.26l4.7-2.629a11.606,11.606,0,0,0-14.775,6.9,11.235,11.235,0,0,0-.374,6.408,1.578,1.578,0,0,1-.437,1.482L23.7,58.021a1.635,1.635,0,0,1-1.892.287A11.765,11.765,0,0,0,16.4,56.985a11.579,11.579,0,0,0-9.96,5.608Z"/>
</svg>
