<svg xmlns="http://www.w3.org/2000/svg" width="78" height="84" viewBox="0 0 78 84">
  <defs>
    <style>
      .cls-1 {
        fill: #022258;
        fill-rule: evenodd;
      }
    </style>
  </defs>
  <path id="העמדת_הלוואה" data-name="העמדת הלוואה" class="cls-1" d="M73.431,18.73H55.76V12.7c0-6.462-4.784-11.72-10.664-11.72H32.91c-5.879,0-10.664,5.258-10.664,11.72V18.73H4.578A4.818,4.818,0,0,0,.007,23.753V78.979A4.817,4.817,0,0,0,4.578,84H73.431A4.819,4.819,0,0,0,78,78.979V23.753A4.819,4.819,0,0,0,73.431,18.73ZM25.293,12.7c0-4.617,3.418-8.372,7.618-8.372H45.1c4.2,0,7.617,3.755,7.617,8.372V18.73H49.665V12.7A4.816,4.816,0,0,0,45.1,7.68H32.91a4.817,4.817,0,0,0-4.57,5.022V18.73H25.293V12.7Zm6.093,6.028V12.7a1.607,1.607,0,0,1,1.524-1.675H45.1A1.608,1.608,0,0,1,46.621,12.7V18.73H31.386ZM4.578,22.078H73.431a1.606,1.606,0,0,1,1.522,1.675V34.572H64.9V29.548a1.606,1.606,0,0,0-1.525-1.674h-9.14a1.6,1.6,0,0,0-1.523,1.674v5.023H25.293V29.548a1.6,1.6,0,0,0-1.521-1.674h-9.14a1.6,1.6,0,0,0-1.524,1.674v5.023H3.053V23.753A1.608,1.608,0,0,1,4.578,22.078ZM61.852,44.617H55.76V31.223h6.093V44.617ZM55.76,47.966h6.093v4.107l-3.2,2.253-2.89-2.212V47.966ZM22.247,44.617H16.153V31.223h6.093V44.617Zm-6.093,3.349h6.093v4.107l-3.2,2.253-2.892-2.212V47.966ZM73.431,80.653H4.578a1.607,1.607,0,0,1-1.525-1.674V77.305h42.8a1.682,1.682,0,0,0,0-3.35H3.053V37.921H13.107v6.7H11.584a1.682,1.682,0,0,0,0,3.349h1.524V52.99a1.726,1.726,0,0,0,.654,1.374l4.379,3.349a1.409,1.409,0,0,0,1.691.036L24.59,54.4a1.72,1.72,0,0,0,.7-1.41V47.966h1.525a1.682,1.682,0,0,0,0-3.349H25.293v-6.7h27.42v6.7H51.19a1.682,1.682,0,0,0,0,3.349h1.523V52.99a1.728,1.728,0,0,0,.653,1.374l4.379,3.349a1.41,1.41,0,0,0,1.691.036L64.2,54.4a1.725,1.725,0,0,0,.7-1.41V47.966h1.521a1.682,1.682,0,0,0,0-3.349H64.9v-6.7H74.953V73.956H45.1a1.682,1.682,0,0,0,0,3.35H74.953v1.673A1.605,1.605,0,0,1,73.431,80.653Z"/>
</svg>
