<svg xmlns="http://www.w3.org/2000/svg" width="66" height="82" viewBox="0 0 66 82">
  <defs>
    <style>
      .cls-1 {
        fill: #022258;
        fill-rule: evenodd;
      }
    </style>
  </defs>
  <path id="הכנסות_ממכירות" data-name="הכנסות ממכירות" class="cls-1" d="M62.434,19.087H57.34V14.544A13.9,13.9,0,0,0,35.968,2.809,13.9,13.9,0,0,0,14.595,14.544v4.543H3.564A2.838,2.838,0,0,0,.728,21.923V78.53a2.838,2.838,0,0,0,2.836,2.836h58.87A2.839,2.839,0,0,0,65.27,78.53V21.923A2.839,2.839,0,0,0,62.434,19.087Zm-0.061,3.067V78.3a0.382,0.382,0,0,1-.343.216H57.762V21.938h4.268A0.38,0.38,0,0,1,62.373,22.154ZM17.445,19.087V14.544a11.054,11.054,0,0,1,16.142-9.82,13.783,13.783,0,0,0-4.068,9.82v4.543H17.445Zm37.045,0H42.416V14.544a13.778,13.778,0,0,0-4.067-9.82,11.053,11.053,0,0,1,16.14,9.821v4.542Zm-39.9,5.244h-0.86a1.425,1.425,0,1,0,0,2.851h4.571a1.425,1.425,0,0,0,0-2.851H17.445V21.938H39.566V24.33h-0.86a1.425,1.425,0,1,0,0,2.851h4.571a1.425,1.425,0,0,0,0-2.851H42.416V21.938h12.5V78.516L3.578,78.53,3.563,21.938H14.595V24.33Zm17.775-9.787a11.065,11.065,0,0,1,3.6-8.153,11.068,11.068,0,0,1,3.6,8.153v4.543h-7.2V14.544Zm1.517,37.9a4.282,4.282,0,0,0-3.038.975,3.522,3.522,0,0,0-.992,2.678v3.579c0,2.39,1.393,3.653,4.031,3.653,2.6,0,4.031-1.3,4.031-3.653V56.1c0-2.356-1.432-3.653-4.031-3.653h0ZM34.9,59.677a0.86,0.86,0,0,1-1.01.959,0.841,0.841,0,0,1-.985-0.959V56.1a0.835,0.835,0,0,1,.985-0.96,0.86,0.86,0,0,1,1.01.96v3.579ZM28.505,71.484A18.166,18.166,0,0,0,30.894,35.31a1.425,1.425,0,1,0-.372,2.827A15.308,15.308,0,1,1,25.5,38.3a1.425,1.425,0,1,0-.556-2.8A18.166,18.166,0,0,0,28.505,71.484ZM26.349,51.56V47.981c0-2.356-1.432-3.653-4.031-3.653-3.332,0-4.031,1.986-4.031,3.653V51.56c0,2.355,1.432,3.653,4.031,3.653S26.349,53.915,26.349,51.56Zm-4.031-4.539a0.859,0.859,0,0,1,1.01.96V51.56a0.859,0.859,0,0,1-1.01.96,0.835,0.835,0,0,1-.985-0.96V47.981A0.835,0.835,0,0,1,22.318,47.021Zm9.707-3.682a1.3,1.3,0,0,0-.882.726L22.3,62.237a1.438,1.438,0,0,0,.289,1.664,1.57,1.57,0,0,0,1.188.513,1.74,1.74,0,0,0,.267-0.02,1.447,1.447,0,0,0,1.124-.75l8.871-18.173a1.464,1.464,0,0,0-.45-1.76A1.87,1.87,0,0,0,32.025,43.339Z"/>
</svg>
