<?xml version="1.0" encoding="UTF-8"?>
<svg width="84px" height="84px" viewBox="0 0 84 84" version="1.1" xmlns="http://www.w3.org/2000/svg" xmlns:xlink="http://www.w3.org/1999/xlink">
    <!-- Generator: Sketch 51 (57462) - http://www.bohemiancoding.com/sketch -->
    <title>safe</title>
    <desc>Created with Sketch.</desc>
    <defs></defs>
    <g id="Page-1" stroke="none" stroke-width="1" fill="none" fill-rule="evenodd">
        <g id="safe" fill="#0F3860" fill-rule="nonzero">
            <path d="M83.5,6.43 L83.5,77.57 C83.4944949,80.8427656 80.8427656,83.4944949 77.57,83.5 L6.43,83.5 C3.15723443,83.4944949 0.505505084,80.8427656 0.5,77.57 L0.5,6.43 C0.505505084,3.15723443 3.15723443,0.505505084 6.43,0.5 L77.57,0.5 C80.8427656,0.505505084 83.4944949,3.15723443 83.5,6.43 Z M4.45,27.6 L13.82,27.6 L13.82,23.78 L4.45,23.78 L4.45,27.6 Z M4.45,52.45 L10.08,52.45 L10.08,31.55 L4.45,31.55 L4.45,52.45 Z M4.45,60.22 L13.82,60.22 L13.82,56.4 L4.45,56.4 L4.45,60.22 Z M79.55,77.57 L79.55,6.43 C79.55,5.33 78.66,4.45 77.57,4.45 L6.43,4.45 C5.33,4.45 4.45,5.34 4.45,6.43 L4.45,19.83 L10.08,19.83 L10.08,12.95 C10.08,11.3649428 11.3649428,10.08 12.95,10.08 L71.05,10.08 C72.6350572,10.08 73.92,11.3649428 73.92,12.95 L73.92,71.05 C73.92,72.6350572 72.6350572,73.92 71.05,73.92 L12.95,73.92 C11.3649428,73.92 10.08,72.6350572 10.08,71.05 L10.08,64.18 L4.45,64.18 L4.45,77.58 C4.45,78.66 5.34,79.55 6.43,79.55 L77.57,79.55 C78.67,79.55 79.55,78.66 79.55,77.57 Z M17.77,54.43 L17.77,62.2 C17.77,63.3 16.89,64.18 15.8,64.18 L13.84,64.18 L13.84,70.16 L70.16,70.16 L70.16,13.84 L13.84,13.84 L13.84,19.82 L15.8,19.82 C16.89,19.82 17.77,20.71 17.77,21.8 L17.77,29.57 C17.77,30.67 16.89,31.55 15.8,31.55 L13.84,31.55 L13.84,52.45 L15.8,52.45 C16.89,52.45 17.77,53.34 17.77,54.43 Z M55.69,55.69 C52.0622489,59.3253239 47.1357692,61.3657286 42,61.36 C36.8605473,61.3694979 31.9295695,59.3287209 28.3,55.69 C20.755426,48.122517 20.755426,35.877483 28.3,28.31 C35.8697886,20.7521233 48.1302114,20.7521233 55.7,28.31 C63.244574,35.877483 63.244574,48.122517 55.7,55.69 L55.69,55.69 Z M54.36,32.15 L50.86,35.66 C51.83,37.02 52.46,38.57 52.74,40.22 L57.7,40.22 C57.3702189,37.2687889 56.2123037,34.4710716 54.36,32.15 Z M43.78,26.3 L43.78,31.26 C45.43,31.53 46.98,32.17 48.34,33.15 L51.84,29.64 C49.5217297,27.7894276 46.727716,26.6316106 43.78,26.3 Z M32.15,29.64 L35.66,33.14 C37.02,32.17 38.57,31.54 40.22,31.26 L40.22,26.3 C37.2686517,26.6292478 34.4707918,27.787222 32.15,29.64 Z M26.3,40.22 L31.26,40.22 C31.53,38.57 32.17,37.02 33.15,35.66 L29.64,32.16 C27.7894276,34.4782703 26.6316106,37.272284 26.3,40.22 Z M29.64,51.85 L33.14,48.34 C32.1690269,46.9858946 31.5254855,45.4249643 31.26,43.78 L26.3,43.78 C26.6297811,46.7312111 27.7876963,49.5289284 29.64,51.85 Z M40.22,57.7 L40.22,52.74 C38.57,52.47 37.02,51.83 35.66,50.85 L32.16,54.36 C34.477991,56.2110455 37.2721468,57.3689214 40.22,57.7 Z M42,49.33 C43.96,49.33 45.8,48.57 47.18,47.18 C48.5597041,45.8097628 49.3338921,43.9445098 49.33,42 C49.33,40.04 48.56,38.2 47.18,36.82 C45.8097628,35.4402959 43.9445098,34.6661079 42,34.67 C40.04,34.67 38.2,35.43 36.82,36.82 C35.4402959,38.1902372 34.6661079,40.0554902 34.67,42 C34.67,43.96 35.43,45.8 36.82,47.18 C38.1902372,48.5597041 40.0554902,49.3338921 42,49.33 Z M51.85,54.36 L48.34,50.86 C46.98,51.83 45.43,52.46 43.78,52.74 L43.78,57.7 C46.7313483,57.3707522 49.5292082,56.212778 51.85,54.36 Z M57.7,43.78 L52.74,43.78 C52.47,45.43 51.83,46.98 50.85,48.34 L54.36,51.84 C56.2110455,49.522009 57.3689214,46.7278532 57.7,43.78 Z" id="lah7a"></path>
        </g>
    </g>
</svg>