<svg xmlns="http://www.w3.org/2000/svg" width="91" height="75" viewBox="0 0 91 75">
  <defs>
    <style>
      .cls-1 {
        fill: #022258;
        fill-rule: evenodd;
      }
    </style>
  </defs>
  <path id="משכורות" class="cls-1" d="M47.942,50.866a1.543,1.543,0,0,0,2.1.36,1.505,1.505,0,0,0,.361-2.1,10.6,10.6,0,0,0-8.212-4.451,1.892,1.892,0,0,0-.2-0.013,9,9,0,0,1-8.937-7.96l-0.033-.29,0.235-.172a15.519,15.519,0,0,0,3.327-3.353A21.293,21.293,0,0,0,40.4,23.007l0.021-.156,0.108-.117a1.48,1.48,0,0,0,.28-0.434A16.554,16.554,0,0,0,42.1,15.857C42.1,7.242,35.6.233,27.622,0.233a13.435,13.435,0,0,0-5.946,1.391L21.5,1.674a10.6,10.6,0,0,0-2.042.376c-6.647,1.921-10.392,10-8.35,18.014a17.977,17.977,0,0,0,.779,2.365,1.523,1.523,0,0,0,.267.425l0.1,0.113,0.02,0.149c0.76,5.588,3.361,10.367,7.134,13.113L19.642,36.4l-0.033.289a9,9,0,0,1-8.939,7.973,1.377,1.377,0,0,0-.147.007A10.508,10.508,0,0,0,.329,55.2V67.094A1.509,1.509,0,0,0,1.836,68.6H37.295a1.508,1.508,0,0,0,0-3.016H3.343V55.2a7.534,7.534,0,0,1,7.524-7.528c0.048,0,.1,0,0.147-0.007a12.007,12.007,0,0,0,3.983-.8l0.368-.142L25.09,60.771a1.563,1.563,0,0,0,2.477,0l9.727-14.047,0.367,0.142a11.911,11.911,0,0,0,3.948.8c0.084,0.008.133,0.01,0.182,0.01A7.54,7.54,0,0,1,47.942,50.866ZM13.979,19.283L13.79,18.228c-1.1-6.181,1.691-11.891,6.5-13.282h0a7.609,7.609,0,0,1,1.771-.286A1.52,1.52,0,0,0,22.7,4.487,10.487,10.487,0,0,1,27.62,3.249c6.218,0,11.248,5.354,11.452,12.189L39.1,16.482l-0.833-.631A6.63,6.63,0,0,0,34.238,14.5h-10.5a2.873,2.873,0,0,1-1.734-.574,2.908,2.908,0,0,1-.96-1.245,1.834,1.834,0,0,0-1.834-1.157,1.856,1.856,0,0,0-1.681,1.389,14.373,14.373,0,0,1-2.867,5.553Zm4.957,12.366A18.168,18.168,0,0,1,15.228,22.5L15.2,22.24l0.19-.175a17.552,17.552,0,0,0,4.046-5.549l0.253-.548,0.492,0.351a5.894,5.894,0,0,0,3.565,1.194h10.5A3.707,3.707,0,0,1,37.553,19.6L37.6,19.7v0.117a19.166,19.166,0,0,1-3.447,11.275c-2.124,2.876-4.9,4.46-7.827,4.46A9.661,9.661,0,0,1,18.936,31.649Zm7.393,25.615L17.977,45.2l0.352-.293a12.105,12.105,0,0,0,4.03-6.491l0.124-.523L23,38.055a11.194,11.194,0,0,0,6.67.006l0.511-.159L30.3,38.424a12.127,12.127,0,0,0,4.029,6.485L34.681,45.2Zm53.978-6.628-0.027,0c-0.051,0-.1-0.008-0.154-0.008a8.993,8.993,0,0,1-8.939-7.979l-0.033-.289,0.235-.172a17.3,17.3,0,0,0,5.651-7.526l0.533-1.3L77.982,34.7a1.506,1.506,0,0,0,2.63.486,19.894,19.894,0,0,0,3.994-12.865,20,20,0,0,0-4.641-12.41,14.321,14.321,0,0,0-10.73-5.269c-0.224-.01-0.74.009-0.823,0.015l-0.125.008-0.115-.052A14.455,14.455,0,0,0,61.648,3.3,15.861,15.861,0,0,0,49.54,9.88a22.949,22.949,0,0,0-4.489,14.714,22.594,22.594,0,0,0,.222,2.6,23.737,23.737,0,0,0,1.913,6.66,1.506,1.506,0,0,0,2.655.159c0.166-.272.381-0.612,0.616-0.944l0.574-.809,0.31,0.941a19.442,19.442,0,0,0,3.9,6.914,14.628,14.628,0,0,0,2.3,2.079l0.238,0.172-0.035.29a8.993,8.993,0,0,1-8.938,7.969,1.426,1.426,0,0,0-.146.008A10.509,10.509,0,0,0,38.466,61.17V73.057a1.509,1.509,0,0,0,1.507,1.508H88.96a1.509,1.509,0,0,0,1.507-1.508V61.17A10.5,10.5,0,0,0,80.308,50.636ZM49.583,29.42l-0.623.672L48.733,29.2a21.623,21.623,0,0,1-.475-2.433,20.409,20.409,0,0,1-.194-2.274,19.926,19.926,0,0,1,3.868-12.78,12.9,12.9,0,0,1,9.812-5.4,12.089,12.089,0,0,1,5.589,1.236,1.435,1.435,0,0,0,.727.154l0.431-.019,0.682-.03a11.35,11.35,0,0,1,8.509,4.222,16.97,16.97,0,0,1,3.911,10.54,17.9,17.9,0,0,1-.884,6.244L80.262,30l-0.5-1.323c-0.183-.49-0.391-0.979-0.616-1.454a17.424,17.424,0,0,0-8.927-8.752,1.507,1.507,0,0,0-2,.868,15.533,15.533,0,0,1-.994,2.161,6.462,6.462,0,0,1-5.98,3.172c-0.342-.012-0.689-0.015-1.031,0a15.327,15.327,0,0,0-4.88.956A17.238,17.238,0,0,0,49.583,29.42Zm4.083,0.859-0.072-.332,0.282-.189a12.476,12.476,0,0,1,2.52-1.3,12.329,12.329,0,0,1,3.92-.766c0.276-.008.555-0.008,0.831,0a9.417,9.417,0,0,0,8.714-4.714c0.106-.191.21-0.385,0.311-0.581l0.246-.483L70.878,22.2a14.556,14.556,0,0,1,4.736,4.815l0.1,0.162-0.033.186a1.174,1.174,0,0,0-.017.132,18.4,18.4,0,0,1-3.811,10.122,9.661,9.661,0,0,1-7.394,3.9C59.538,41.517,55.1,36.9,53.665,30.278Zm1.085,21.783A12.083,12.083,0,0,0,60.5,44.38l0.123-.523,0.513,0.16a11.048,11.048,0,0,0,6.666,0l0.513-.16,0.123,0.523a12.081,12.081,0,0,0,5.749,7.682l0.337,0.193-0.1.375a10.325,10.325,0,0,1-19.9,0l-0.1-.374Zm32.7,19.488H41.48V61.17A7.534,7.534,0,0,1,49,53.642c0.051,0,.1,0,0.154-0.008a12.264,12.264,0,0,0,1.975-.22l0.443-.088,0.132,0.433a13.335,13.335,0,0,0,25.517,0l0.132-.433L77.8,53.414a12.06,12.06,0,0,0,1.947.218c0.079,0.007.131,0.01,0.183,0.01a7.535,7.535,0,0,1,7.525,7.528V71.55Z"/>
</svg>
