<?xml version="1.0" encoding="UTF-8"?>
<svg width="41px" height="37px" viewBox="0 0 41 37" version="1.1" xmlns="http://www.w3.org/2000/svg" xmlns:xlink="http://www.w3.org/1999/xlink">
    <!-- Generator: Sketch 51 (57462) - http://www.bohemiancoding.com/sketch -->
    <title>shekel-negative</title>
    <desc>Created with Sketch.</desc>
    <defs></defs>
    <g id="Page-1" stroke="none" stroke-width="1" fill="none" fill-rule="evenodd">
        <g id="shekel-negative" fill="#0F3861" fill-rule="nonzero">
            <path d="M39.95,21.93 C38.8938044,27.7342895 35.0348919,32.6403514 29.6427757,35.0341788 C24.2506596,37.4280061 18.0235294,36.9996381 13.01,33.89 L12.97,33.87 C12.621666,33.6556407 12.4141515,33.2717305 12.4256252,32.8628847 C12.4370989,32.454039 12.6658176,32.0823711 13.0256252,31.8878847 C13.3854328,31.6933984 13.821666,31.7056406 14.17,31.92 L14.22,31.95 C18.5886945,34.6698488 24.0210204,35.0489377 28.7251356,32.962225 C33.4292508,30.8755124 36.794177,26.5940238 37.71,21.53 C39.2195977,13.0918902 33.6068871,5.02641612 25.17,3.51 C20.2345897,2.63136156 15.1785629,4.18912189 11.5933892,7.69294972 C8.00821538,11.1967775 6.33484519,16.2157272 7.1,21.17 L11.1,20.88 L6.2,26.49 L0.6,21.59 L4.8,21.33 C3.81447737,14.658712 6.70768982,8.00742601 12.26,4.18 C16.1309113,1.46468781 20.9281694,0.413036633 25.58,1.26 C35.2498789,3.00927357 41.6785779,12.2564002 39.95,21.93 Z M15.41,11.73 L22.13,11.73 C23.58,11.73 24.64,12.17 25.33,13.07 C26.03,13.97 26.37,15.35 26.37,17.23 L26.37,21.47 L24.66,21.47 L24.66,17.14 C24.66,15.86 24.46,14.91 24.08,14.31 C23.7,13.71 23.02,13.4 22.08,13.4 L17.53,13.4 L17.53,27 L15.41,27 L15.41,11.73 Z M20.11,16.98 L21.82,16.98 L21.82,25.13 C24.02,25.05 25.72,24.67 26.92,23.98 C28.0858359,23.3222563 28.9633701,22.2520926 29.38,20.98 C29.83,19.68 30.04,17.92 30.03,15.74 L29.97,11.72 L32.09,11.72 L32.12,15.74 C32.14,18.44 31.76,20.6 30.98,22.24 C30.2062704,23.8657627 28.8552823,25.1454586 27.19,25.83 C25.45,26.59 23.09,26.98 20.12,27 L20.11,16.98 Z" id="9u2va"></path>
        </g>
    </g>
</svg>