<svg height="445pt" viewBox="0 0 445 445.70578" width="445pt" xmlns="http://www.w3.org/2000/svg"><path d="m145.179688 180.359375c-2.007813-2.089844-4.984376-2.929687-7.785157-2.199219-2.804687.730469-4.992187 2.917969-5.722656 5.722656-.730469 2.800782.109375 5.777344 2.195313 7.785157l120.5 120.5c2.007812 2.089843 4.984374 2.929687 7.789062 2.199219 2.800781-.730469 4.988281-2.921876 5.71875-5.722657s-.109375-5.78125-2.195312-7.785156zm0 0"/><path d="m104.320312 221.214844c-2.019531-2.039063-4.972656-2.84375-7.746093-2.109375-2.773438.738281-4.941407 2.902343-5.679688 5.675781-.734375 2.773438.070313 5.730469 2.109375 7.746094l120.5 120.5c2.015625 2.042968 4.972656 2.847656 7.746094 2.109375 2.773438-.734375 4.941406-2.902344 5.675781-5.675781.738281-2.773438-.066406-5.726563-2.105469-7.746094zm0 0"/><path d="m432.347656 2.375-29.480468 29.484375c-4.804688-2.890625-10.28125-4.476563-15.886719-4.601563l-153.765625-3.898437c-12.304688-.339844-24.207032 4.414063-32.894532 13.136719l-186.828124 186.734375c-.53125.53125-1.1875 1.1875-1.878907 2-15.726562 17.535156-14.867187 45.125 1.878907 61.507812l145.835937 145.835938c8.402344 8.414062 19.808594 13.140625 31.695313 13.132812 11.890624-.007812 23.289062-4.746093 31.679687-13.171875l186.792969-186.777344c8.703125-8.703124 13.464844-20.59375 13.179687-32.898437l-3.902343-153.84375c-.160157-5.582031-1.75-11.027344-4.609376-15.824219l29.5-29.5c2.039063-2.015625 2.84375-4.972656 2.105469-7.746094-.734375-2.773437-2.902343-4.941406-5.675781-5.675781-2.773438-.738281-5.726562.066407-7.746094 2.109375zm-29.566406 57.082031 3.898438 153.753907c.195312 7.921874-2.859376 15.578124-8.460938 21.1875l-186.789062 186.789062c-5.410157 5.421875-12.753907 8.472656-20.414063 8.476562-7.660156.003907-15.007813-3.035156-20.425781-8.453124l-145.847656-145.84375c-10.792969-10.789063-11.296876-28.121094-1.15625-39.519532.070312-.078125.140624-.15625.207031-.238281.269531-.324219.601562-.652344 1.011719-1.066406l186.789062-186.683594c5.582031-5.640625 13.25-8.71875 21.179688-8.5l153.820312 3.898437c1.425781.035157 2.839844.261719 4.207031.664063l-51.660156 51.660156c-20.96875-15.074219-49.996094-11.527343-66.71875 8.152344s-15.535156 48.898437 2.722656 67.15625c18.261719 18.261719 47.480469 19.445313 67.160157 2.722656 19.675781-16.71875 23.222656-45.746093 8.148437-66.714843l51.644531-51.648438c.402344 1.367188.632813 2.78125.683594 4.207031zm-59 76.300781c0 18.5-15 33.5-33.5 33.5-18.503906 0-33.5-15-33.5-33.5s14.996094-33.5 33.5-33.5c18.488281.023438 33.472656 15.007813 33.496094 33.5zm0 0"/></svg>