<svg id="Layer_1" data-name="Layer 1" xmlns="http://www.w3.org/2000/svg" viewBox="0 0 81 74"><defs><style>.cls-1{fill:#1c2756;}</style></defs><title>ביטוח לאומי</title><path class="cls-1" d="M44.66,36.19a3.55,3.55,0,1,0,3.55,3.55,3.55,3.55,0,0,0-3.55-3.55Zm0,5.67a2.12,2.12,0,1,1,2.11-2.12,2.12,2.12,0,0,1-2.11,2.12Zm0,0"/><path class="cls-1" d="M35.88,36.19a3.55,3.55,0,1,0,3.55,3.55,3.55,3.55,0,0,0-3.55-3.55Zm0,5.67A2.12,2.12,0,1,1,38,39.74a2.12,2.12,0,0,1-2.12,2.12Zm0,0"/><path class="cls-1" d="M27.11,36.19a3.55,3.55,0,1,0,3.55,3.55,3.55,3.55,0,0,0-3.55-3.55Zm0,5.67a2.12,2.12,0,1,1,2.11-2.12,2.12,2.12,0,0,1-2.11,2.12Zm0,0"/><path class="cls-1" d="M44.66,44.86a3.56,3.56,0,1,0,3.55,3.56,3.56,3.56,0,0,0-3.55-3.56Zm0,5.67a2.12,2.12,0,1,1,2.11-2.11,2.12,2.12,0,0,1-2.11,2.11Zm0,0"/><path class="cls-1" d="M35.88,44.86a3.56,3.56,0,1,0,3.55,3.56,3.56,3.56,0,0,0-3.55-3.56Zm0,5.67A2.12,2.12,0,1,1,38,48.42a2.12,2.12,0,0,1-2.12,2.11Zm0,0"/><path class="cls-1" d="M27.11,44.86a3.56,3.56,0,1,0,3.55,3.56,3.56,3.56,0,0,0-3.55-3.56Zm0,5.67a2.12,2.12,0,1,1,2.11-2.11,2.12,2.12,0,0,1-2.11,2.11Zm0,0"/><path class="cls-1" d="M74.75,48.53V40.19a.72.72,0,0,0-.72-.72H52.88a.72.72,0,0,0-.72.72v8.34a.72.72,0,0,0,.72.72H74a.72.72,0,0,0,.72-.72Zm-1.44-.71H53.59V40.91H73.31Zm0,0"/><path class="cls-1" d="M34.91,67.27h8.24a.72.72,0,0,0,0-1.44H34.91a.72.72,0,0,0,0,1.44Zm0,0"/><path class="cls-1" d="M74.93,20.93H73V15.3A6.07,6.07,0,0,0,66.9,9.23H66V.72A.72.72,0,0,0,65.24,0H27.33a.72.72,0,0,0-.72.72V9.23h-.94A6.07,6.07,0,0,0,19.6,15.3v5.63h-.93a4.76,4.76,0,0,0-4.47-3.16H4.74A4.74,4.74,0,0,0,0,22.5V60.57a4.75,4.75,0,0,0,4.74,4.74H14.2a4.75,4.75,0,0,0,4.47-3.17h7.94V73.28a.72.72,0,0,0,.72.72H65.24a.72.72,0,0,0,.72-.72V62.14h9A6.07,6.07,0,0,0,81,56.07V27a6.07,6.07,0,0,0-6.07-6.07ZM17.5,60.57a3.3,3.3,0,0,1-3.3,3.3H4.73a3.31,3.31,0,0,1-3.29-3.3V22.5a3.3,3.3,0,0,1,3.3-3.3h.77V39.35a.72.72,0,0,0,1.44,0V19.2H14.2a3.31,3.31,0,0,1,3.3,3.3Zm49.41-49.9a4.63,4.63,0,0,1,4.63,4.63v.59H69a.72.72,0,1,0,0,1.43h2.52v3.61H68.42a.71.71,0,0,0-.71.72v1.9A4.65,4.65,0,0,1,66,27.17V10.67ZM64.52,1.44V28a4.59,4.59,0,0,1-1.45.23H29.5A4.63,4.63,0,0,1,28.05,28V7.63H45.24a.72.72,0,0,0,0-1.44H28.05V1.44ZM21,15.3a4.63,4.63,0,0,1,4.64-4.63h.94v16.5a4.64,4.64,0,0,1-1.74-3.62v-1.9a.72.72,0,0,0-.72-.72H21ZM64.52,65.83H49.08a.72.72,0,0,0,0,1.44H64.52v5.29H28.05V62.14H64.52Zm10.41-5.12h-56a.71.71,0,0,0,0-.14V22.5a.57.57,0,0,0,0-.13h4.5v1.18a6.08,6.08,0,0,0,6.07,6.07H63.07a6.08,6.08,0,0,0,6.07-6.07V22.37h5.79A4.63,4.63,0,0,1,79.56,27V56.1H69.73a.72.72,0,1,0,0,1.43h9.6a4.64,4.64,0,0,1-4.4,3.18Zm0,0"/><path class="cls-1" d="M6.23,42.68a.72.72,0,0,0-.72.72v9.12a.72.72,0,0,0,1.44,0V43.4a.72.72,0,0,0-.72-.72Zm0,0"/></svg>