<?xml version="1.0" encoding="UTF-8"?>
<svg width="27px" height="28px" viewBox="0 0 27 28" version="1.1" xmlns="http://www.w3.org/2000/svg" xmlns:xlink="http://www.w3.org/1999/xlink">
    <!-- Generator: Sketch 50.2 (55047) - http://www.bohemiancoding.com/sketch -->
    <title>times</title>
    <desc>Created with Sketch.</desc>
    <defs></defs>
    <g id="Page-1" stroke="none" stroke-width="1" fill="none" fill-rule="evenodd">
        <g id="times" fill="#0F3861" fill-rule="nonzero">
            <path d="M0.74,0.86 C1.04416631,0.553436718 1.45814564,0.381008326 1.89,0.381008326 C2.32185436,0.381008326 2.73583369,0.553436718 3.04,0.86 L13.57,11.39 L24.12,0.84 C24.7525318,0.208034322 25.7774682,0.208034322 26.41,0.84 L26.52,0.96 C27.15,1.59 27.15,2.62 26.52,3.25 L15.97,13.8 L26.53,24.35 C27.16,24.98 27.16,26.01 26.53,26.65 L26.41,26.76 C25.78,27.39 24.75,27.39 24.12,26.76 L13.57,16.2 L3.03,26.74 C2.4,27.37 1.37,27.37 0.74,26.74 L0.62,26.63 C-0.0119656781,25.9974682 -0.0119656781,24.9725318 0.62,24.34 L11.16,13.8 L0.63,3.26 C-0.0019656781,2.62746818 -0.0019656781,1.60253182 0.63,0.97 L0.74,0.86 Z" id="olwpa"></path>
        </g>
    </g>
</svg>