<?xml version="1.0" encoding="UTF-8"?>
<svg width="46px" height="62px" viewBox="0 0 46 62" version="1.1" xmlns="http://www.w3.org/2000/svg" xmlns:xlink="http://www.w3.org/1999/xlink">
    <!-- Generator: Sketch 51 (57462) - http://www.bohemiancoding.com/sketch -->
    <title>trash</title>
    <desc>Created with Sketch.</desc>
    <defs></defs>
    <g id="Page-1" stroke="none" stroke-width="1" fill="none" fill-rule="evenodd">
        <g id="trash" fill="#FFFFFF" fill-rule="nonzero">
            <path d="M45.12,8.65 L45.12,14.75 C45.12,15.85 44.22,16.75 43.13,16.75 L42.53,16.75 L40.71,59.55 C40.6620247,60.6098903 39.790967,61.4457537 38.73,61.45 L7.27,61.45 C6.20516226,61.4510895 5.32815796,60.6137488 5.28,59.55 L3.47,16.75 L2.87,16.75 C1.77,16.75 0.88,15.85 0.88,14.75 L0.88,8.65 C0.88,7.55 1.77,6.66 2.87,6.66 L13.74,6.66 L13.74,2.54 C13.74,1.44 14.64,0.56 15.73,0.56 L30.27,0.56 C31.37,0.56 32.26,1.45 32.26,2.54 L32.26,6.66 L43.13,6.66 C44.23,6.66 45.12,7.56 45.12,8.65 Z M17.72,6.66 L28.29,6.66 L28.29,4.53 L17.71,4.53 L17.72,6.66 Z M38.55,16.74 L7.45,16.74 L9.17,57.47 L36.83,57.47 L38.55,16.74 Z M41.15,10.64 L4.85,10.64 L4.85,12.77 L41.15,12.77 L41.15,10.64 Z M17,24.82 L17,49.4 C16.9260152,50.4417168 16.0593408,51.2490213 15.015,51.2490213 C13.9706592,51.2490213 13.1039848,50.4417168 13.03,49.4 L13.03,24.82 C13.1039848,23.7782832 13.9706592,22.9709787 15.015,22.9709787 C16.0593408,22.9709787 16.9260152,23.7782832 17,24.82 Z M24.98,24.82 L24.98,49.4 C25.0327553,50.1428019 24.6663759,50.8529011 24.0304495,51.240374 C23.3945231,51.627847 22.5954769,51.627847 21.9595505,51.240374 C21.3236241,50.8529011 20.9572447,50.1428019 21.01,49.4 L21.01,24.82 C21.0839848,23.7782832 21.9506592,22.9709787 22.995,22.9709787 C24.0393408,22.9709787 24.9060152,23.7782832 24.98,24.82 Z M32.98,24.82 L32.98,49.4 C32.98,50.4990467 32.0890467,51.39 30.99,51.39 C29.8909533,51.39 29,50.4990467 29,49.4 L29,24.82 C29.0739848,23.7782832 29.9406592,22.9709787 30.985,22.9709787 C32.0293408,22.9709787 32.8960152,23.7782832 32.97,24.82 L32.98,24.82 Z" id="kiyja"></path>
        </g>
    </g>
</svg>