<svg id="Layer_1" data-name="Layer 1" xmlns="http://www.w3.org/2000/svg" viewBox="0 0 87 76"><defs><style>.cls-1{fill:#1c2756;}</style></defs><title>נסיעות</title><path class="cls-1" d="M81,9H60V7.52A7.52,7.52,0,0,0,52.5,0h-18A7.52,7.52,0,0,0,27,7.52V9H6a6,6,0,0,0-6,6V66.22a6,6,0,0,0,6,6,3.75,3.75,0,1,0,7.5,0h60a3.75,3.75,0,1,0,7.5,0,6,6,0,0,0,6-6V15.05a6,6,0,0,0-6-6ZM30,7.52A4.52,4.52,0,0,1,34.5,3h18A4.52,4.52,0,0,1,57,7.52V9H30ZM9.75,73A.76.76,0,0,1,9,72.24h1.5a.76.76,0,0,1-.75.75Zm67.5,0a.76.76,0,0,1-.75-.75H78a.76.76,0,0,1-.75.75ZM84,66.22a3,3,0,0,1-3,3H72.07A13.47,13.47,0,0,1,80.36,58a1.51,1.51,0,0,0-1.14-2.79,16.51,16.51,0,0,0-10.17,14H18a16.51,16.51,0,0,0-10.17-14A1.51,1.51,0,0,0,6.64,58a13.5,13.5,0,0,1,8.3,11.21H6a3,3,0,0,1-3-3V15.05a3,3,0,0,1,3-3h8.92a13.49,13.49,0,0,1-8.28,11A1.51,1.51,0,0,0,7.21,26a1.65,1.65,0,0,0,.57-.11A16.52,16.52,0,0,0,17.93,12H69.07A16.52,16.52,0,0,0,79.22,25.85a1.65,1.65,0,0,0,.57.11,1.51,1.51,0,0,0,.57-2.9,13.49,13.49,0,0,1-8.28-11H81a3,3,0,0,1,3,3Zm0,0"/><path class="cls-1" d="M32.11,44.29a1.5,1.5,0,0,0-.93,1.91,6.19,6.19,0,0,1,.32,2,6,6,0,1,1-6-6,5.93,5.93,0,0,1,2.25.44,1.51,1.51,0,0,0,1.13-2.79,8.89,8.89,0,0,0-3.38-.66,9,9,0,1,0,9,9A8.89,8.89,0,0,0,34,45.22a1.5,1.5,0,0,0-1.9-.93Zm0,0"/><path class="cls-1" d="M66.1,41.58a1.5,1.5,0,0,0-1.95-.84l-2.79,1.13a1.5,1.5,0,0,0,1.12,2.79l1.39-.56,3.37,8.37L53.32,58.09,50,49.72l7-2.81a1.51,1.51,0,0,0,.83-2,1.49,1.49,0,0,0-2-.83l-8.35,3.37a1.5,1.5,0,0,0-.83,2L51.1,60.61a1.5,1.5,0,0,0,1.39,1,1.55,1.55,0,0,0,.56-.11l16.7-6.75a1.5,1.5,0,0,0,.83-2Zm0,0"/><path class="cls-1" d="M28.78,30.56,51.27,39a1.58,1.58,0,0,0,.52.09,1.52,1.52,0,0,0,.63-.14,1.5,1.5,0,0,0,.78-.84l3.14-8.46a1.48,1.48,0,0,0,0-1.15,1.51,1.51,0,0,0-.84-.79l-2.81-1.05a1.5,1.5,0,0,0-1,2.82L53,30l-2.1,5.64L31.24,28.27l2.09-5.64L46,27.36A1.5,1.5,0,0,0,47,24.54L33,19.28a1.5,1.5,0,0,0-1.93.89L27.9,28.63a1.53,1.53,0,0,0,0,1.15,1.49,1.49,0,0,0,.84.78Zm0,0"/></svg>