<?xml version="1.0" encoding="UTF-8"?>
<svg width="42px" height="42px" viewBox="0 0 42 42" version="1.1" xmlns="http://www.w3.org/2000/svg" xmlns:xlink="http://www.w3.org/1999/xlink">
    <!-- Generator: Sketch 50.2 (55047) - http://www.bohemiancoding.com/sketch -->
    <title>umbrella</title>
    <desc>Created with Sketch.</desc>
    <defs></defs>
    <g id="Page-1" stroke="none" stroke-width="1" fill="none" fill-rule="evenodd">
        <g id="umbrella" fill="#0E3A63" fill-rule="nonzero">
            <path d="M36.04,28.55 L36.04,38.09 C36.04,39.89 33.64,41.26 30.48,41.26 C27.31,41.26 24.92,39.9 24.92,38.09 L24.92,28.55 C24.92,26.74 27.31,25.37 30.48,25.37 C33.65,25.37 36.04,26.74 36.04,28.55 Z M34.44,37.17 C33.45,37.74 32.06,38.09 30.48,38.09 C29.1000216,38.1253491 27.7337672,37.808736 26.51,37.17 L26.51,38.09 C26.51,38.73 28.05,39.67 30.48,39.67 C32.9,39.67 34.45,38.73 34.45,38.09 L34.44,37.17 Z M34.44,34 C33.45,34.56 32.06,34.9 30.48,34.9 C29.1017575,34.9415149 27.7356003,34.6318067 26.51,34 L26.51,34.9 C26.51,35.55 28.05,36.5 30.48,36.5 C32.9,36.5 34.45,35.55 34.45,34.9 L34.44,34 Z M34.44,30.82 C33.45,31.39 32.06,31.72 30.48,31.72 C29.1017149,31.7619555 27.7354487,31.4522226 26.51,30.82 L26.51,31.72 C26.51,32.38 28.05,33.32 30.48,33.32 C32.9,33.32 34.45,32.38 34.45,31.72 L34.44,30.82 Z M34.44,28.55 C34.44,27.9 32.9,26.96 30.48,26.96 C28.05,26.96 26.51,27.9 26.51,28.55 C26.51,29.2 28.05,30.14 30.48,30.14 C32.9,30.14 34.45,29.2 34.45,28.55 L34.44,28.55 Z M40.59,22.25 C40.1775737,22.300384 39.795226,22.0266577 39.71,21.62 C39.57,21.02 37.87,20.12 35.51,20.12 C33.08,20.12 31.54,21.07 31.54,21.72 C31.5401357,22.1541337 31.193998,22.5091467 30.76,22.52 L30.73,22.52 C30.2920824,22.5145256 29.9399658,22.1579518 29.94,21.72 L29.94,21.65 C29.81,21.03 28.09,20.13 25.71,20.13 C23.29,20.13 21.74,21.07 21.74,21.72 L21.74,37.29 C21.5920303,39.3734337 19.8586816,40.9880426 17.77,40.9880426 C15.6813184,40.9880426 13.9479697,39.3734337 13.8,37.29 L13.8,35.7 C13.8454631,35.2952741 14.1877287,34.9893029 14.595,34.9893029 C15.0022713,34.9893029 15.3445369,35.2952741 15.39,35.7 L15.39,37.29 C15.3873275,37.9220307 15.6372185,38.528947 16.0841357,38.9758643 C16.531053,39.4227815 17.1379693,39.6726725 17.77,39.67 C19.0821616,39.6645212 20.1445212,38.6021616 20.15,37.29 L20.15,21.72 C20.15,21.07 18.61,20.12 16.18,20.12 C13.82,20.12 12.11,21.03 11.98,21.65 L11.98,21.73 C11.9691467,22.163998 11.6141337,22.5101357 11.18,22.51 L11.17,22.51 L11.16,22.51 C10.726002,22.4991467 10.3798643,22.1441337 10.38,21.71 C10.38,21.07 8.83,20.13 6.41,20.13 C4.04,20.13 2.34,21.01 2.21,21.63 C2.1014778,22.0150719 1.72517798,22.2607727 1.32897714,22.2052541 C0.932776293,22.1497355 0.638502461,21.810069 0.64,21.41 C0.951671588,16.2729404 3.24633492,11.4577328 7.04,7.98 C10.6012498,4.61496098 15.2551196,2.64478729 20.15,2.43 L20.15,1.38 C20.15,0.9381722 20.5081722,0.58 20.95,0.58 C21.3918278,0.58 21.75,0.9381722 21.75,1.38 L21.75,2.43 C26.58,2.62 31.21,4.57 34.86,7.98 C38.6582243,11.4554353 40.9567497,16.2712227 41.27,21.41 C41.2899735,21.8201941 40.9961071,22.178884 40.59,22.24 L40.59,22.25 Z M13.54,8.22 C14.2157479,6.90412522 15.0854654,5.69730781 16.12,4.64 C9.13256874,6.53778209 3.83606483,12.2494698 2.47,19.36 L2.79,19.21 C3.94179169,18.7539969 5.1712995,18.5264361 6.41,18.54 C8.06,18.54 9.49,18.91 10.49,19.52 C10.83,15.28 11.89,11.32 13.54,8.22 Z M29.82,19.44 C29.12,11.41 25.7,4.86 21.74,4.08 L21.74,9.93 C21.6945369,10.3347259 21.3522713,10.6406971 20.945,10.6406971 C20.5377287,10.6406971 20.1954631,10.3347259 20.15,9.93 L20.15,4.08 C16.21,4.86 12.79,11.41 12.1,19.44 C13.22,18.84 14.75,18.54 16.18,18.54 C17.77,18.54 19.16,18.88 20.15,19.45 L20.15,9.4 C20.15,8.9581722 20.5081722,8.6 20.95,8.6 C21.3918278,8.6 21.75,8.9581722 21.75,9.4 L21.75,19.45 C22.73,18.88 24.12,18.54 25.71,18.54 C27.15,18.54 28.69,18.84 29.81,19.44 L29.82,19.44 Z M39.44,19.36 C38.0684453,12.2453314 32.7639162,6.53335862 25.77,4.64 C26.8076124,5.69700661 27.6806737,6.90378641 28.36,8.22 C30.1295159,11.7425644 31.1702727,15.5858823 31.42,19.52 C32.42,18.91 33.86,18.54 35.51,18.54 C36.8633033,18.5317861 38.2028987,18.8112945 39.44,19.36 Z" id="m6iqa"></path>
        </g>
    </g>
</svg>