<svg id="Layer_1" data-name="Layer 1" xmlns="http://www.w3.org/2000/svg" viewBox="0 0 80 80"><defs><style>.cls-1{fill:#1c2756;}</style></defs><title>הפרשות פנסיוניות</title><path class="cls-1" d="M71,0H9A9.05,9.05,0,0,0,0,9v54.2a9,9,0,0,0,5.16,8.14v7.34A1.29,1.29,0,0,0,6.45,80h12.9a1.3,1.3,0,0,0,1.3-1.29V72.26h38.7v6.45A1.3,1.3,0,0,0,60.65,80h12.9a1.29,1.29,0,0,0,1.29-1.29V71.37A9,9,0,0,0,80,63.23V9a9.05,9.05,0,0,0-9-9ZM18.06,77.42H7.74V72.15c.43.07,10.32.11,10.32.11Zm54.2,0H61.94V72.26s9.89,0,10.32-.11Zm5.16-14.19A6.47,6.47,0,0,1,71,69.68H9a6.47,6.47,0,0,1-6.45-6.45V9A6.47,6.47,0,0,1,9,2.58H71A6.47,6.47,0,0,1,77.42,9Zm0,0"/><path class="cls-1" d="M29.68,32.26a3.87,3.87,0,1,0,3.87,3.87,3.87,3.87,0,0,0-3.87-3.87Zm0,5.16A1.29,1.29,0,1,1,31,36.13a1.29,1.29,0,0,1-1.29,1.29Zm0,0"/><path class="cls-1" d="M44.78,26.72a1.29,1.29,0,0,0,0-1.83L40.91,21a1.29,1.29,0,0,0-1.82,0l-6.45,6.45-.07.11a8.94,8.94,0,0,0-5.78,0l-.07-.11L20.27,21a1.3,1.3,0,0,0-1.83,0l-3.87,3.87a1.3,1.3,0,0,0,0,1.83L21,33.17l.11.07a8.81,8.81,0,0,0,0,5.78l-.11.07-6.45,6.45a1.29,1.29,0,0,0,0,1.82l3.87,3.87a1.29,1.29,0,0,0,1.83,0l6.45-6.45.07-.1a8.94,8.94,0,0,0,5.78,0,.61.61,0,0,0,.07.1l6.45,6.45a1.27,1.27,0,0,0,1.82,0l3.87-3.87a1.27,1.27,0,0,0,0-1.82l-6.45-6.45-.1-.07a8.94,8.94,0,0,0,0-5.78l.1-.07Zm-27.47-.91,2-2,5.06,5a9.06,9.06,0,0,0-2.05,2.05Zm2,22.69-2-2,5.05-5.05a9.06,9.06,0,0,0,2.05,2.05Zm3.88-12.37a6.45,6.45,0,1,1,6.45,6.45,6.45,6.45,0,0,1-6.45-6.45ZM42.05,46.45l-2,2-5-5a9.06,9.06,0,0,0,2-2.05ZM35,28.81l5-5,2,2-5,5.05a9.06,9.06,0,0,0-2-2.05Zm0,0"/><path class="cls-1" d="M61.94,14.19H49a1.29,1.29,0,1,0,0,2.58H61.94a1.29,1.29,0,0,0,0-2.58Zm0,0"/><path class="cls-1" d="M59.35,19.35H52.9a1.3,1.3,0,0,0,0,2.59h6.45a1.3,1.3,0,1,0,0-2.59Zm0,0"/><path class="cls-1" d="M73.55,18.06H72.26V16.77a9.05,9.05,0,0,0-9-9H16.77a9.05,9.05,0,0,0-9,9V55.48a9.05,9.05,0,0,0,9,9H63.23a9.05,9.05,0,0,0,9-9V54.19h1.29a1.29,1.29,0,0,0,1.29-1.29V40a1.29,1.29,0,0,0-1.29-1.29H72.26V33.55h1.29a1.29,1.29,0,0,0,1.29-1.29V19.35a1.29,1.29,0,0,0-1.29-1.29ZM72.26,51.61H69.68V41.29h2.58Zm-3.87-12.9A1.29,1.29,0,0,0,67.1,40V52.9a1.28,1.28,0,0,0,1.29,1.29h1.29v1.29a6.47,6.47,0,0,1-6.45,6.46H16.77a6.47,6.47,0,0,1-6.45-6.46V16.77a6.47,6.47,0,0,1,6.45-6.45H63.23a6.47,6.47,0,0,1,6.45,6.45v1.29H68.39a1.29,1.29,0,0,0-1.29,1.29V32.26a1.29,1.29,0,0,0,1.29,1.29h1.29v5.16ZM72.26,31H69.68V20.65h2.58Zm0,0"/></svg>