<svg xmlns="http://www.w3.org/2000/svg" width="67" height="80" viewBox="0 0 67 80">
  <defs>
    <style>
      .cls-1 {
        fill: #022258;
        fill-rule: evenodd;
      }
    </style>
  </defs>
  <path id="מעמ" class="cls-1" d="M66.259,12.774a15.988,15.988,0,0,0-3.612-7.946A12.46,12.46,0,0,0,54.7.743C54.63,0.734,15.435.784,15.435,0.784h-0.11A8.52,8.52,0,0,0,6.833,7.526a1.673,1.673,0,0,0-.027.29V18.877H1.738A1.544,1.544,0,0,0,.2,20.421V63.766a4.766,4.766,0,0,0,4.854,4.662H20.8v9.821a1.544,1.544,0,0,0,1.543,1.544h42.4a1.545,1.545,0,0,0,1.544-1.544S66.276,12.864,66.259,12.774ZM6.807,63.9A1.7,1.7,0,0,1,5.049,65.34a1.681,1.681,0,0,1-1.767-1.574v-41.8H6.807V63.9ZM20.8,65.34H9.616c0-.012.278-1.726,0.278-1.726s0-.02,0-0.03c0-4.145,0-55.612,0-55.612a5.447,5.447,0,0,1,5.432-4.1A5.918,5.918,0,0,1,20.8,8.184V65.34ZM23.886,76.7V8.061a5.085,5.085,0,0,0-1.838-4.2l32.347-.045c5.962,0.826,8.081,5.514,8.8,9.369V76.7H23.886ZM56.7,17.445A1.544,1.544,0,1,0,55.157,15.9,1.546,1.546,0,0,0,56.7,17.445Zm-25.775,0h19.6a1.544,1.544,0,0,0,0-3.088h-19.6A1.544,1.544,0,1,0,30.925,17.445Zm0,8.237h19.6a1.544,1.544,0,0,0,0-3.088h-19.6A1.544,1.544,0,1,0,30.925,25.681Zm25.775,0a1.544,1.544,0,1,0-1.543-1.544A1.547,1.547,0,0,0,56.7,25.681Zm0,8.235a1.544,1.544,0,1,0-1.543-1.544A1.546,1.546,0,0,0,56.7,33.916Zm-25.775,0h19.6a1.544,1.544,0,0,0,0-3.088h-19.6A1.544,1.544,0,1,0,30.925,33.916ZM56.7,42.152a1.544,1.544,0,1,0-1.543-1.544A1.547,1.547,0,0,0,56.7,42.152Zm-25.775,0h19.6a1.544,1.544,0,0,0,0-3.088h-19.6A1.544,1.544,0,1,0,30.925,42.152ZM57.471,47.3H30.925a1.544,1.544,0,1,0,0,3.088H57.471A1.544,1.544,0,0,0,57.471,47.3Zm0,8.235H30.925a1.544,1.544,0,1,0,0,3.088H57.471A1.544,1.544,0,0,0,57.471,55.535Zm0,8.236H30.925a1.544,1.544,0,1,0,0,3.089H57.471A1.544,1.544,0,0,0,57.471,63.771Z"/>
</svg>
