<?xml version="1.0" encoding="UTF-8"?>
<svg width="30px" height="26px" viewBox="0 0 30 26" version="1.1" xmlns="http://www.w3.org/2000/svg" xmlns:xlink="http://www.w3.org/1999/xlink">
    <!-- Generator: Sketch 50.2 (55047) - http://www.bohemiancoding.com/sketch -->
    <title>wallet</title>
    <desc>Created with Sketch.</desc>
    <defs></defs>
    <g id="Page-1" stroke="none" stroke-width="1" fill="none" fill-rule="evenodd">
        <g id="wallet" fill="#2C546C" fill-rule="nonzero">
            <path d="M29.9,12.87 L29.9,16.53 C29.9,17.56 29.06,18.4 28.02,18.4 L27.56,18.4 L27.56,22.38 C27.56,24.23 26.06,25.73 24.21,25.73 L2.35,25.73 C1.06317653,25.73 0.02,24.6868235 0.02,23.4 L0.02,2.8 C0.0254852453,1.26140334 1.27140334,0.0154852453 2.81,0.01 L21.47,0.01 C22.7568235,0.01 23.8,1.05317653 23.8,2.34 L23.8,3.67 L24.2,3.67 C26.05,3.67 27.55,5.17 27.55,7.02 L27.55,10.99 L28.02,10.99 C29.05,10.99 29.89,11.83 29.9,12.87 Z M21.89,2.34 C21.89,2.22860907 21.8457501,2.12178043 21.7669848,2.04301515 C21.6882196,1.96424987 21.5813909,1.92 21.47,1.92 L2.81,1.92 C2.36280475,1.96787543 2.02367497,2.34524935 2.02367497,2.795 C2.02367497,3.24475065 2.36280475,3.62212457 2.81,3.67 L21.88,3.67 L21.89,2.34 Z M20.94,12.91 L20.98,16.53 L27.98,16.49 L27.98,12.87 L20.94,12.91 Z M25.64,7.01 C25.64,6.23 25,5.58 24.21,5.58 L2.81,5.58 C2.51,5.58 2.21,5.54 1.93,5.44 L1.93,23.39 C1.93,23.62 2.12,23.81 2.35,23.81 L24.21,23.81 C25,23.81 25.64,23.17 25.64,22.38 L25.64,18.4 L20.94,18.4 C20.4423148,18.4026615 19.9640999,18.2068197 19.6112411,17.8558378 C19.2583823,17.5048559 19.0599929,17.0276923 19.06,16.53 L19.06,12.87 C19.06,11.83 19.9,10.99 20.93,10.99 L25.64,10.99 L25.64,7.01 Z" id="2fo4a"></path>
        </g>
    </g>
</svg>